<svg width="64" height="65" viewBox="0 0 64 65" fill="none" xmlns="http://www.w3.org/2000/svg">
<g clip-path="url(#clip0_1315_29963)">
<path d="M0 32.0117C0 14.3386 14.3269 0.0117188 32 0.0117188C49.6731 0.0117188 64 14.3386 64 32.0117C64 49.6848 49.6731 64.0117 32 64.0117C14.3269 64.0117 0 49.6848 0 32.0117Z" fill="#04030F"/>
<g style="mix-blend-mode:plus-lighter" filter="url(#filter0_f_1315_29963)">
<path d="M26 6.01184C21.2 3.21185 1 4.84518 -8.5 6.01184L8 11.0117C9.83333 13.6784 13.4 19.7117 13 22.5117C12.5 26.0117 23 38.0117 26 36.0117C29 34.0117 38 27.5117 37.5 22.5117C37 17.5117 32 9.51185 26 6.01184Z" fill="#C496FF"/>
</g>
<g style="mix-blend-mode:plus-lighter" filter="url(#filter1_f_1315_29963)">
<path d="M28.5 20.5117L12 41.5117H-1L20.5 56.5117C30.5 53.8451 51.2 48.2117 54 47.0117C56.8 45.8117 61.8333 32.1784 64 25.5117L41 12.0117L28.5 20.5117Z" fill="#C496FF"/>
</g>
<g filter="url(#filter2_f_1315_29963)">
<ellipse cx="20" cy="69.0117" rx="27" ry="25" fill="#E6E6E7"/>
</g>
<path fill-rule="evenodd" clip-rule="evenodd" d="M19 32.0117C19 24.8317 24.82 19.0117 32 19.0117C39.18 19.0117 45 24.8317 45 32.0117C45 39.1917 39.18 45.0117 32 45.0117C24.82 45.0117 19 39.1917 19 32.0117ZM36.8133 29.5931C36.8933 29.4865 36.9512 29.3649 36.9836 29.2357C37.0159 29.1064 37.0221 28.9719 37.0018 28.8402C36.9815 28.7085 36.935 28.5822 36.8651 28.4686C36.7953 28.3551 36.7034 28.2568 36.595 28.1793C36.4866 28.1018 36.3638 28.0467 36.2337 28.0174C36.1037 27.988 35.9692 27.9849 35.838 28.0083C35.7068 28.0317 35.5816 28.0811 35.4697 28.1536C35.3579 28.2261 35.2616 28.3202 35.1867 28.4304L30.872 34.4704L28.7067 32.3051C28.5171 32.1284 28.2664 32.0322 28.0073 32.0368C27.7482 32.0414 27.5011 32.1463 27.3178 32.3296C27.1346 32.5128 27.0297 32.76 27.0251 33.019C27.0205 33.2781 27.1167 33.5288 27.2933 33.7184L30.2933 36.7184C30.396 36.821 30.5197 36.9 30.656 36.9499C30.7922 36.9999 30.9377 37.0196 31.0824 37.0076C31.227 36.9957 31.3673 36.9524 31.4935 36.8809C31.6197 36.8093 31.7289 36.7111 31.8133 36.5931L36.8133 29.5931Z" fill="url(#paint0_linear_1315_29963)"/>
</g>
<path d="M0.5 32.0117C0.5 14.6147 14.603 0.511719 32 0.511719C49.397 0.511719 63.5 14.6147 63.5 32.0117C63.5 49.4087 49.397 63.5117 32 63.5117C14.603 63.5117 0.5 49.4087 0.5 32.0117Z" stroke="url(#paint1_linear_1315_29963)"/>
<defs>
<filter id="filter0_f_1315_29963" x="-24.5" y="-11.5342" width="78.0195" height="63.7695" filterUnits="userSpaceOnUse" color-interpolation-filters="sRGB">
<feFlood flood-opacity="0" result="BackgroundImageFix"/>
<feBlend mode="normal" in="SourceGraphic" in2="BackgroundImageFix" result="shape"/>
<feGaussianBlur stdDeviation="8" result="effect1_foregroundBlur_1315_29963"/>
</filter>
<filter id="filter1_f_1315_29963" x="-17" y="-3.98828" width="97" height="76.5" filterUnits="userSpaceOnUse" color-interpolation-filters="sRGB">
<feFlood flood-opacity="0" result="BackgroundImageFix"/>
<feBlend mode="normal" in="SourceGraphic" in2="BackgroundImageFix" result="shape"/>
<feGaussianBlur stdDeviation="8" result="effect1_foregroundBlur_1315_29963"/>
</filter>
<filter id="filter2_f_1315_29963" x="-23" y="28.0117" width="86" height="82" filterUnits="userSpaceOnUse" color-interpolation-filters="sRGB">
<feFlood flood-opacity="0" result="BackgroundImageFix"/>
<feBlend mode="normal" in="SourceGraphic" in2="BackgroundImageFix" result="shape"/>
<feGaussianBlur stdDeviation="8" result="effect1_foregroundBlur_1315_29963"/>
</filter>
<linearGradient id="paint0_linear_1315_29963" x1="20.2908" y1="32.0117" x2="45" y2="32.0117" gradientUnits="userSpaceOnUse">
<stop stop-color="#11101B" stop-opacity="0.5"/>
<stop offset="1" stop-color="#04030F"/>
</linearGradient>
<linearGradient id="paint1_linear_1315_29963" x1="59.2" y1="0.0117153" x2="1.10865e-06" y2="60.0117" gradientUnits="userSpaceOnUse">
<stop stop-color="#04030F" stop-opacity="0.08"/>
<stop offset="1" stop-color="#04030F" stop-opacity="0"/>
</linearGradient>
<clipPath id="clip0_1315_29963">
<path d="M0 32.0117C0 14.3386 14.3269 0.0117188 32 0.0117188C49.6731 0.0117188 64 14.3386 64 32.0117C64 49.6848 49.6731 64.0117 32 64.0117C14.3269 64.0117 0 49.6848 0 32.0117Z" fill="white"/>
</clipPath>
</defs>
</svg>
