<svg width="64" height="64" viewBox="0 0 64 64" fill="none" xmlns="http://www.w3.org/2000/svg">
<g clip-path="url(#clip0_1315_21501)">
<path d="M0 32C0 14.3269 14.3269 0 32 0C49.6731 0 64 14.3269 64 32C64 49.6731 49.6731 64 32 64C14.3269 64 0 49.6731 0 32Z" fill="white"/>
<g style="mix-blend-mode:plus-darker" filter="url(#filter0_f_1315_21501)">
<path d="M42 10.0001C37.2 7.20013 17 8.83346 7.5 10.0001L24 15C25.8333 17.6667 29.4 23.7 29 26.5C28.5 30 39 42 42 40C45 38 54 31.5 53.5 26.5C53 21.5 48 13.5001 42 10.0001Z" fill="#C496FF"/>
</g>
<g style="mix-blend-mode:plus-darker" filter="url(#filter1_f_1315_21501)">
<path d="M28.5 15.5L12 36.5H-1L20.5 51.5C30.5 48.8333 51.2 43.2 54 42C56.8 40.8 61.8333 27.1667 64 20.5L41 7L28.5 15.5Z" fill="#C496FF"/>
</g>
<g filter="url(#filter2_f_1315_21501)">
<ellipse cx="20" cy="69" rx="27" ry="25" fill="#E6E6E7"/>
</g>
<g opacity="0.8">
<path fill-rule="evenodd" clip-rule="evenodd" d="M19 32C19 24.82 24.82 19 32 19C39.18 19 45 24.82 45 32C45 39.18 39.18 45 32 45C24.82 45 19 39.18 19 32ZM36.8133 29.5813C36.8933 29.4747 36.9512 29.3532 36.9836 29.2239C37.0159 29.0946 37.0221 28.9602 37.0018 28.8285C36.9815 28.6968 36.935 28.5704 36.8651 28.4569C36.7953 28.3434 36.7034 28.245 36.595 28.1675C36.4866 28.09 36.3638 28.035 36.2337 28.0056C36.1037 27.9763 35.9692 27.9732 35.838 27.9966C35.7068 28.02 35.5816 28.0694 35.4697 28.1419C35.3579 28.2144 35.2616 28.3085 35.1867 28.4187L30.872 34.4587L28.7067 32.2933C28.5171 32.1167 28.2664 32.0205 28.0073 32.0251C27.7482 32.0297 27.5011 32.1346 27.3178 32.3178C27.1346 32.5011 27.0297 32.7482 27.0251 33.0073C27.0205 33.2664 27.1167 33.5171 27.2933 33.7067L30.2933 36.7067C30.396 36.8092 30.5197 36.8882 30.656 36.9382C30.7922 36.9881 30.9377 37.0078 31.0824 36.9959C31.227 36.984 31.3673 36.9407 31.4935 36.8691C31.6197 36.7975 31.7289 36.6993 31.8133 36.5813L36.8133 29.5813Z" fill="white"/>
</g>
</g>
<path d="M0.5 32C0.5 14.603 14.603 0.5 32 0.5C49.397 0.5 63.5 14.603 63.5 32C63.5 49.397 49.397 63.5 32 63.5C14.603 63.5 0.5 49.397 0.5 32Z" stroke="url(#paint0_linear_1315_21501)"/>
<defs>
<filter id="filter0_f_1315_21501" x="-8.5" y="-7.5459" width="78.0195" height="63.769" filterUnits="userSpaceOnUse" color-interpolation-filters="sRGB">
<feFlood flood-opacity="0" result="BackgroundImageFix"/>
<feBlend mode="normal" in="SourceGraphic" in2="BackgroundImageFix" result="shape"/>
<feGaussianBlur stdDeviation="8" result="effect1_foregroundBlur_1315_21501"/>
</filter>
<filter id="filter1_f_1315_21501" x="-17" y="-9" width="97" height="76.5" filterUnits="userSpaceOnUse" color-interpolation-filters="sRGB">
<feFlood flood-opacity="0" result="BackgroundImageFix"/>
<feBlend mode="normal" in="SourceGraphic" in2="BackgroundImageFix" result="shape"/>
<feGaussianBlur stdDeviation="8" result="effect1_foregroundBlur_1315_21501"/>
</filter>
<filter id="filter2_f_1315_21501" x="-23" y="28" width="86" height="82" filterUnits="userSpaceOnUse" color-interpolation-filters="sRGB">
<feFlood flood-opacity="0" result="BackgroundImageFix"/>
<feBlend mode="normal" in="SourceGraphic" in2="BackgroundImageFix" result="shape"/>
<feGaussianBlur stdDeviation="8" result="effect1_foregroundBlur_1315_21501"/>
</filter>
<linearGradient id="paint0_linear_1315_21501" x1="59.2" y1="-3.44753e-06" x2="1.10865e-06" y2="60" gradientUnits="userSpaceOnUse">
<stop stop-color="#04030F" stop-opacity="0.08"/>
<stop offset="1" stop-color="#04030F" stop-opacity="0"/>
</linearGradient>
<clipPath id="clip0_1315_21501">
<path d="M0 32C0 14.3269 14.3269 0 32 0C49.6731 0 64 14.3269 64 32C64 49.6731 49.6731 64 32 64C14.3269 64 0 49.6731 0 32Z" fill="white"/>
</clipPath>
</defs>
</svg>
