<svg width="49" height="48" viewBox="0 0 49 48" fill="none" xmlns="http://www.w3.org/2000/svg">
<path d="M0.5 24C0.5 10.7452 11.2452 0 24.5 0C37.7548 0 48.5 10.7452 48.5 24C48.5 37.2548 37.7548 48 24.5 48C11.2452 48 0.5 37.2548 0.5 24Z" fill="#765A99"/>
<path d="M19.5 32.025V23H21.1C21.2167 23 21.3333 23.0125 21.45 23.0375C21.5667 23.0625 21.6833 23.0917 21.8 23.125L28.725 25.7C28.9583 25.7833 29.1458 25.9333 29.2875 26.15C29.4292 26.3667 29.5 26.5917 29.5 26.825C29.5 27.175 29.3792 27.4583 29.1375 27.675C28.8958 27.8917 28.6167 28 28.3 28H25.675C25.5917 28 25.5292 27.9958 25.4875 27.9875C25.4458 27.9792 25.3917 27.9583 25.325 27.925L23.725 27.3L23.4 28.275L25.325 28.95C25.3583 28.9667 25.4083 28.9792 25.475 28.9875C25.5417 28.9958 25.6 29 25.65 29H32.5C33.0333 29 33.5 29.1917 33.9 29.575C34.3 29.9583 34.5 30.4333 34.5 31L26.525 34L19.5 32.025ZM13.5 34V23H17.5V34H13.5Z" fill="white"/>
<circle cx="29" cy="19.5" r="5.5" fill="white"/>
</svg>
