<svg width="83" height="90" viewBox="0 0 83 90" fill="none" xmlns="http://www.w3.org/2000/svg">
<g id="Frame 14110">
<g id="Group 47700">
<g id="Group">
<g id="Group_2">
<g id="Group_3">
<path id="Vector" d="M26.0365 52.4626C33.9397 58.5201 42.6839 60.5948 45.5672 57.0968C48.4505 53.5987 44.3812 45.8525 36.478 39.7951C28.5748 33.7377 19.8305 31.6629 16.9472 35.161C14.0639 38.659 18.1333 46.4052 26.0365 52.4626Z" fill="#D58A00"/>
</g>
<g id="Group_4">
<path id="Vector_2" d="M29.2064 49.2766C37.1096 55.334 45.8538 57.4088 48.7371 53.9108C51.6205 50.4127 47.5511 42.6664 39.6479 36.609C31.7447 30.5516 23.0005 28.4769 20.1171 31.9749C17.2338 35.473 21.3032 43.2192 29.2064 49.2766Z" fill="#D58A00"/>
</g>
<g id="Group_5">
<path id="Vector_3" d="M30.6078 47.6262C38.5049 53.6916 46.9332 56.1449 49.433 53.1059C51.9328 50.0668 47.5575 42.6863 39.6603 36.6209C31.7632 30.5556 23.3348 28.1023 20.835 31.1413C18.3352 34.1804 22.7106 41.5609 30.6078 47.6262Z" fill="#FFF4CB"/>
</g>
<g id="Group_6">
<path id="Vector_4" d="M30.5953 47.6153C38.4866 53.6883 46.6335 56.4802 48.7919 53.8509C50.9503 51.2217 46.3028 44.167 38.4115 38.094C30.5202 32.0209 22.3733 29.2291 20.2149 31.8583C18.0565 34.4876 22.704 41.5422 30.5953 47.6153Z" fill="#FFCA00"/>
</g>
</g>
<g id="Group_7">
<path id="Vector_5" fill-rule="evenodd" clip-rule="evenodd" d="M22.0029 37.8692L25.6897 34.8236L26.2429 34.7631L28.7681 36.5992L30.3739 35.3227L31.0661 35.2822L33.9569 37.2266L36.855 39.7237L35.5952 41.5984L37.124 42.7179L38.4669 40.9988L41.6226 42.9906L44.3245 45.1847C44.3245 45.1847 44.5776 45.9863 44.5669 46.0215C44.554 46.0595 43.502 48.9097 43.502 48.9097L41.6252 52.5394L41.4796 52.7259L37.9436 50.4643L34.5816 47.7783L34.6346 47.1318L36.2164 44.454L34.3572 43.1832L32.3834 45.4488L31.7414 45.7459L29.0388 43.9437L25.0491 40.6688L25.9178 39.3912L27.16 38.0379L26.2124 37.3269L24.0696 38.9645L23.5344 39.1458L22.0029 37.8692Z" fill="#D58A00"/>
</g>
<g id="Group_8">
<g id="Group_9">
<g id="Group_10">
<g id="Group_11">
<path id="Vector_6" d="M29.1985 49.2511C37.1033 55.3432 45.8445 57.4661 48.7225 53.9928C51.6005 50.5195 47.5254 42.7653 39.6206 36.6732C31.7158 30.5812 22.9746 28.4583 20.0966 31.9316C17.2186 35.4048 21.2937 43.1591 29.1985 49.2511Z" stroke="#151514" stroke-width="2" stroke-miterlimit="1.5" stroke-linecap="round" stroke-linejoin="round"/>
</g>
<g id="Group_12">
<path id="Vector_7" d="M45.3927 57.1308C42.5271 60.6201 33.8043 58.4829 25.9311 52.3608C18.0572 46.2382 13.9927 38.4322 16.8584 34.9429" stroke="#151514" stroke-width="2" stroke-miterlimit="1.5" stroke-linecap="round" stroke-linejoin="round"/>
</g>
<path id="Vector_8" d="M17.1892 34.7289L20.4072 31.5596" stroke="#151514" stroke-width="2" stroke-miterlimit="1.5" stroke-linecap="round" stroke-linejoin="round"/>
<path id="Vector_9" d="M45.2286 57.498L48.4121 54.3628" stroke="#151514" stroke-width="2" stroke-miterlimit="1.5" stroke-linecap="round" stroke-linejoin="round"/>
</g>
</g>
<g id="Group_13">
<path id="Vector_10" d="M19.2793 37.3403L16.497 40.3254" stroke="#151514" stroke-width="2" stroke-miterlimit="1.5" stroke-linecap="round" stroke-linejoin="round"/>
<path id="Vector_11" d="M22.2402 42.0869L19.0753 45.2796" stroke="#151514" stroke-width="2" stroke-miterlimit="1.5" stroke-linecap="round" stroke-linejoin="round"/>
<path id="Vector_12" d="M27.5342 47.897L24.6723 51.0009" stroke="#151514" stroke-width="2" stroke-miterlimit="1.5" stroke-linecap="round" stroke-linejoin="round"/>
<path id="Vector_13" d="M33.2383 52.23L31.0428 55.2061" stroke="#151514" stroke-width="2" stroke-miterlimit="1.5" stroke-linecap="round" stroke-linejoin="round"/>
<g id="Group_14">
<path id="Vector_14" d="M39.6387 55.3237L37.5785 58.3616" stroke="#151514" stroke-width="2" stroke-miterlimit="1.5" stroke-linecap="round" stroke-linejoin="round"/>
</g>
</g>
</g>
<g id="Group_15">
<g id="Group_16">
<path id="Vector_15" d="M41.374 52.726L41.2178 52.0663" stroke="#4F2925" stroke-miterlimit="1.5" stroke-linecap="round" stroke-linejoin="round"/>
</g>
<g id="Group_17">
<path id="Vector_16" d="M44.3086 45.2562L44.5509 46.087C43.8124 48.1689 43.2823 49.8482 41.4444 52.7276C39.2105 51.5165 36.4432 49.5262 34.5087 47.8264L34.5616 47.187" stroke="#4F2925" stroke-miterlimit="1.5" stroke-linecap="round" stroke-linejoin="round"/>
</g>
<g id="Group_18">
<path id="Vector_17" fill-rule="evenodd" clip-rule="evenodd" d="M41.3057 52.0636C42.4107 50.529 44.0963 46.0868 44.3176 45.2512C42.5481 43.6299 40.6117 42.3266 38.4284 41.1048C36.8126 43.1164 35.7149 45.0733 34.5763 47.1835C36.5526 48.8622 39.2416 50.8886 41.3057 52.0636Z" stroke="#4F2925" stroke-miterlimit="1.5" stroke-linecap="round" stroke-linejoin="round"/>
</g>
<g id="Group_19">
<path id="Vector_18" d="M25.0382 40.5233L25.6256 40.4114" stroke="#4F2925" stroke-miterlimit="1.5" stroke-linecap="round" stroke-linejoin="round"/>
</g>
<g id="Group_20">
<path id="Vector_19" d="M31.1574 35.3002L30.4557 35.3409C29.8938 35.7507 29.42 36.0818 28.8278 36.5954" stroke="#4F2925" stroke-miterlimit="1.5" stroke-linecap="round" stroke-linejoin="round"/>
</g>
<g id="Group_21">
<path id="Vector_20" d="M27.143 37.9668C26.4003 38.7285 25.4883 39.7062 24.996 40.5583C26.7805 42.3284 29.5274 44.2921 31.7289 45.6587L32.3212 45.4183" stroke="#4F2925" stroke-miterlimit="1.5" stroke-linecap="round" stroke-linejoin="round"/>
</g>
<g id="Group_22">
<path id="Vector_21" d="M31.2783 36.9204L31.2883 37.4128" stroke="#4F2925" stroke-miterlimit="1.5" stroke-linecap="round" stroke-linejoin="round"/>
</g>
<g id="Group_23">
<path id="Vector_22" d="M28.1003 40.4579C29.0921 39.4164 30.0639 38.5739 31.2378 37.4113C32.5039 38.2442 33.709 39.3043 34.8571 40.2091" stroke="#4F2925" stroke-miterlimit="1.5" stroke-linecap="round" stroke-linejoin="round"/>
</g>
<g id="Group_24">
<path id="Vector_23" d="M29.1814 36.9065C29.9522 36.2609 30.4612 35.9118 31.0877 35.3077C33.1779 36.5322 35.1186 37.9981 36.9091 39.7059C35.7071 41.65 34.0331 43.5828 32.3601 45.4314C30.1594 44.0303 27.3364 42.135 25.6234 40.5254C26.2044 39.6888 27.1795 38.7755 27.8124 38.0084" stroke="#4F2925" stroke-miterlimit="1.5" stroke-linecap="round" stroke-linejoin="round"/>
</g>
<g id="Group_25">
<path id="Vector_24" fill-rule="evenodd" clip-rule="evenodd" d="M27.7271 40.2611C28.9086 39.0582 30.0414 37.9809 31.235 36.9137C32.6046 37.7197 33.8767 38.859 35.0817 39.8586C34.3098 41.1138 33.1619 42.3259 31.9586 43.5012C30.5159 42.5801 28.8532 41.315 27.7271 40.2611Z" stroke="#4F2925" stroke-miterlimit="1.5" stroke-linecap="round" stroke-linejoin="round"/>
</g>
<g id="Group_26">
<path id="Vector_25" d="M42.877 45.6636L42.3901 45.8229" stroke="#4F2925" stroke-miterlimit="1.5" stroke-linecap="round" stroke-linejoin="round"/>
</g>
<g id="Group_27">
<path id="Vector_26" d="M40.4683 49.7746C41.112 48.5509 41.5637 47.4098 42.3177 45.727C41.1008 44.8277 39.9617 43.9883 38.7089 43.2181" stroke="#4F2925" stroke-miterlimit="1.5" stroke-linecap="round" stroke-linejoin="round"/>
</g>
<g id="Group_28">
<path id="Vector_27" fill-rule="evenodd" clip-rule="evenodd" d="M40.8538 49.9819C41.6984 48.542 42.166 47.0179 42.8711 45.6083C41.6493 44.6073 40.2528 43.6431 38.8876 42.8508C37.8483 44.2175 37.086 45.499 36.4331 46.9952C37.7921 48.0276 39.458 49.2779 40.8538 49.9819Z" stroke="#4F2925" stroke-miterlimit="1.5" stroke-linecap="round" stroke-linejoin="round"/>
</g>
<g id="Group_29">
<path id="Vector_28" d="M37.1361 42.7704C36.7097 42.3518 36.1973 41.9772 35.6146 41.6383" stroke="#4F2925" stroke-miterlimit="1.5" stroke-linecap="round" stroke-linejoin="round"/>
</g>
<g id="Group_30">
<path id="Vector_29" d="M29.1406 36.7471L26.2824 34.7052L22.6642 37.7694L24.0923 38.8606L26.4912 36.9197C26.9819 37.2759 27.373 37.558 27.8612 37.9128" stroke="#4F2925" stroke-miterlimit="1.5" stroke-linecap="round" stroke-linejoin="round"/>
</g>
<g id="Group_31">
<path id="Vector_30" d="M34.6302 42.8357L36.2468 44.0722" stroke="#4F2925" stroke-miterlimit="1.5" stroke-linecap="round" stroke-linejoin="round"/>
</g>
<g id="Group_32">
<path id="Vector_31" d="M24.1039 38.8216L23.5624 38.9995C23.5624 38.9995 22.2548 38.1619 21.913 37.8276C23.3475 36.6542 24.3852 35.7094 25.6065 34.7658L26.3054 34.6932" stroke="#4F2925" stroke-miterlimit="1.5" stroke-linecap="round" stroke-linejoin="round"/>
</g>
<g id="Group_33">
<path id="Vector_32" d="M22.6641 37.7017L21.9174 37.7837" stroke="#4F2925" stroke-miterlimit="1.5" stroke-linecap="round" stroke-linejoin="round"/>
</g>
<g id="Group_34">
<path id="Vector_33" d="M35.9766 44.3994C35.424 43.9873 34.9007 43.5917 34.3483 43.1779" stroke="#4F2925" stroke-miterlimit="1.5" stroke-linecap="round" stroke-linejoin="round"/>
</g>
<g id="Group_35">
<path id="Vector_34" d="M27.4988 38.2013C27.1703 37.9532 26.5785 37.4957 26.2504 37.248" stroke="#4F2925" stroke-miterlimit="1.5" stroke-linecap="round" stroke-linejoin="round"/>
</g>
</g>
</g>
<g id="Group_36">
<g id="Group_37">
<g id="Group_38">
<path id="Vector_35" d="M52.1438 13.0836C41.5373 12.2835 33.1325 7.29402 33.3712 1.9393C33.6099 -3.41543 42.4016 -7.10771 53.0081 -6.30761C63.6146 -5.5075 72.0194 -0.517992 71.7807 4.83673C71.542 10.1915 62.7502 13.8837 52.1438 13.0836Z" fill="#D58A00"/>
</g>
<g id="Group_39">
<path id="Vector_36" d="M52.6897 8.72322C42.0832 7.92312 33.6784 2.93367 33.9171 -2.42105C34.1558 -7.77578 42.9475 -11.4681 53.554 -10.668C64.1605 -9.86785 72.5653 -4.87834 72.3266 0.476382C72.0879 5.83111 63.2961 9.52333 52.6897 8.72322Z" fill="#D58A00"/>
</g>
<g id="Group_40">
<path id="Vector_37" d="M53.1106 6.72964C42.5032 5.97748 34.0037 1.45314 34.1263 -3.37579C34.2489 -8.20471 42.9472 -11.5096 53.5545 -10.7574C64.1618 -10.0053 72.6614 -5.48087 72.5388 -0.651944C72.4162 4.17698 63.7179 7.48181 53.1106 6.72964Z" fill="#FFF4CB"/>
</g>
<g id="Group_41">
<path id="Vector_38" d="M53.1538 6.84834C42.5314 6.15931 33.9163 2.04948 33.9116 -2.33124C33.9068 -6.71197 42.5141 -9.7047 53.1365 -9.01567C63.759 -8.32664 72.374 -4.21676 72.3787 0.163966C72.3835 4.54469 63.7762 7.53738 53.1538 6.84834Z" fill="#FFCA00"/>
</g>
</g>
<g id="Group_42">
<path id="Vector_39" fill-rule="evenodd" clip-rule="evenodd" d="M66.6756 4.49839L65.7373 -1.73463L65.3277 -2.26416L62.0258 -2.52091L61.5832 -5.18459L61.0469 -5.81132L57.3737 -6.26644L53.3198 -6.16228L53.0751 -3.17923L51.0706 -3.32666L51.1423 -6.2207L47.2213 -6.85129L43.5327 -6.89138C43.5327 -6.89138 42.7831 -6.28526 42.7679 -6.24014C42.7526 -6.19039 41.6771 -2.38517 41.6771 -2.38517L40.745 2.91491L40.7373 3.22877L45.151 3.90486L49.7107 3.99976L50.1059 3.29356L50.633 -0.783178L53.009 -0.511288L53.0808 3.47538L53.4023 4.32212L56.8257 4.76353L62.2961 4.78668L62.4547 2.74519L62.3603 0.310567L63.6143 0.384323L64.2495 3.8714L64.5626 4.50943L66.6756 4.49839Z" fill="#D58A00"/>
</g>
<g id="Group_43">
<g id="Group_44">
<g id="Group_45">
<g id="Group_46">
<path id="Vector_40" d="M52.2699 8.07076C41.8798 6.93574 33.836 1.97901 34.3036 -3.00044C34.7712 -7.97988 43.5732 -11.0964 53.9633 -9.96139C64.3535 -8.82637 72.3973 -3.8696 71.9297 1.10984C71.4621 6.08929 62.6601 9.20578 52.2699 8.07076Z" stroke="#151514" stroke-width="2" stroke-miterlimit="1.5" stroke-linecap="round" stroke-linejoin="round"/>
</g>
<g id="Group_47">
<path id="Vector_41" d="M32.9527 0.185081C33.3747 7.16463 42.011 13.2115 52.2223 13.6744C62.4346 14.1374 70.3829 8.84234 69.9609 1.86279" stroke="#151514" stroke-width="2" stroke-miterlimit="1.5" stroke-linecap="round" stroke-linejoin="round"/>
</g>
<path id="Vector_42" d="M71.2722 6.41105L70.7695 2.02783" stroke="#151514" stroke-width="2" stroke-miterlimit="1.5" stroke-linecap="round" stroke-linejoin="round"/>
<path id="Vector_43" d="M34.9631 0.415702L34.4658 -3.92041" stroke="#151514" stroke-width="2" stroke-miterlimit="1.5" stroke-linecap="round" stroke-linejoin="round"/>
</g>
</g>
<g id="Group_48">
<path id="Vector_44" d="M66.7568 6.52832L67.262 10.5154" stroke="#151514" stroke-width="2" stroke-miterlimit="1.5" stroke-linecap="round" stroke-linejoin="round"/>
<path id="Vector_45" d="M61.0596 7.40674L61.5867 11.7787" stroke="#151514" stroke-width="2" stroke-miterlimit="1.5" stroke-linecap="round" stroke-linejoin="round"/>
<path id="Vector_46" d="M52.9277 7.22217L53.4491 11.3503" stroke="#151514" stroke-width="2" stroke-miterlimit="1.5" stroke-linecap="round" stroke-linejoin="round"/>
<path id="Vector_47" d="M45.7734 5.76807L45.9918 9.41336" stroke="#151514" stroke-width="2" stroke-miterlimit="1.5" stroke-linecap="round" stroke-linejoin="round"/>
<g id="Group_49">
<path id="Vector_48" d="M39.127 3.05469L39.3286 6.64301" stroke="#151514" stroke-width="2" stroke-miterlimit="1.5" stroke-linecap="round" stroke-linejoin="round"/>
</g>
</g>
</g>
<g id="Group_50">
<g id="Group_51">
<path id="Vector_49" d="M40.786 0.279785L41.4124 -0.19818" stroke="#4F2925" stroke-miterlimit="1.5" stroke-linecap="round" stroke-linejoin="round"/>
</g>
<g id="Group_52">
<path id="Vector_50" d="M43.8015 -7.05335L42.9605 -6.50433C42.0511 -4.18356 41.2592 -2.35775 40.7285 1.42519C43.629 1.94499 47.5908 2.16492 50.5925 2.05156L51.0267 1.46085" stroke="#4F2925" stroke-miterlimit="1.5" stroke-linecap="round" stroke-linejoin="round"/>
</g>
<g id="Group_53">
<path id="Vector_51" fill-rule="evenodd" clip-rule="evenodd" d="M41.3759 1.16852C41.5458 -0.964384 43.368 -6.06333 43.795 -6.95441C46.5574 -7.12095 49.2298 -6.88956 52.0588 -6.4113C51.9832 -3.49652 51.4928 -0.998044 50.9244 1.66427C47.9375 1.73427 44.0652 1.60328 41.3759 1.16852Z" stroke="#4F2925" stroke-miterlimit="1.5" stroke-linecap="round" stroke-linejoin="round"/>
</g>
<g id="Group_54">
<path id="Vector_52" d="M61.1632 4.36724L60.7022 3.86487" stroke="#4F2925" stroke-miterlimit="1.5" stroke-linecap="round" stroke-linejoin="round"/>
</g>
<g id="Group_55">
<path id="Vector_53" d="M61.7046 -0.316588C61.8324 1.12883 61.9613 2.94918 61.8164 4.28187C59.1276 4.6952 55.4921 4.51006 52.7156 4.13808L52.3708 3.38167" stroke="#4F2925" stroke-miterlimit="1.5" stroke-linecap="round" stroke-linejoin="round"/>
</g>
<g id="Group_56">
<path id="Vector_54" d="M60.0125 2.03662C59.9148 0.422163 59.6864 -1.00391 59.5185 -2.85334C57.781 -3.02148 55.9279 -2.94748 54.2409 -2.96914" stroke="#4F2925" stroke-miterlimit="1.5" stroke-linecap="round" stroke-linejoin="round"/>
</g>
<g id="Group_57">
<path id="Vector_55" d="M61.7292 -1.77876C61.5284 -2.877 61.3376 -3.5355 61.2342 -4.49673C58.4469 -4.90388 55.611 -4.99757 52.7267 -4.77696C52.3334 -2.25423 52.3695 0.589545 52.4683 3.35983C55.4872 3.6919 59.4337 4.03296 62.1748 3.84279C62.2873 2.71264 62.106 1.23971 62.1197 0.133146" stroke="#4F2925" stroke-miterlimit="1.5" stroke-linecap="round" stroke-linejoin="round"/>
</g>
<g id="Group_58">
<path id="Vector_56" fill-rule="evenodd" clip-rule="evenodd" d="M60.5073 2.15172C60.361 0.278925 60.1636 -1.45071 59.9045 -3.21426C58.0803 -3.47819 56.0923 -3.38476 54.2689 -3.36529C54.0117 -1.73499 54.1212 0.122034 54.3078 1.9862C56.2835 2.20171 58.7134 2.27378 60.5073 2.15172Z" stroke="#4F2925" stroke-miterlimit="1.5" stroke-linecap="round" stroke-linejoin="round"/>
</g>
<g id="Group_59">
<path id="Vector_57" d="M43.7767 -0.186875C44.0948 -1.71831 44.5241 -3.04323 45.0788 -5.05812C46.8231 -5.01037 48.4541 -4.96349 50.1361 -4.77632" stroke="#4F2925" stroke-miterlimit="1.5" stroke-linecap="round" stroke-linejoin="round"/>
</g>
<g id="Group_60">
<path id="Vector_58" fill-rule="evenodd" clip-rule="evenodd" d="M43.3464 -0.268818C43.6432 -2.12842 44.3391 -3.80109 44.7385 -5.5372C46.5641 -5.57598 48.5193 -5.46112 50.3208 -5.21588C50.2518 -3.28621 49.9972 -1.62385 49.4877 0.152669C47.5162 0.124145 45.1108 0.075703 43.3464 -0.268818Z" stroke="#4F2925" stroke-miterlimit="1.5" stroke-linecap="round" stroke-linejoin="round"/>
</g>
<g id="Group_61">
<path id="Vector_59" d="M60.5752 -1.01562L64.7782 -0.776147L65.7378 4.29985L63.583 4.24022L62.8768 0.951404C62.1508 0.915086 61.5736 0.884545 60.8511 0.848748" stroke="#4F2925" stroke-miterlimit="1.5" stroke-linecap="round" stroke-linejoin="round"/>
</g>
<g id="Group_62">
<path id="Vector_60" d="M63.0894 4.27548L63.5299 4.76555C63.5299 4.76555 65.6883 4.94576 66.3522 4.90151C65.7916 3.04755 65.4689 1.63044 64.9437 0.0957709L64.2394 -0.412396" stroke="#4F2925" stroke-miterlimit="1.5" stroke-linecap="round" stroke-linejoin="round"/>
</g>
<g id="Group_63">
<path id="Vector_61" d="M64.7695 4.30371L65.379 4.90304" stroke="#4F2925" stroke-miterlimit="1.5" stroke-linecap="round" stroke-linejoin="round"/>
</g>
<g id="Group_64">
<path id="Vector_62" d="M61.3786 1.38104C61.7897 1.31586 62.5337 1.14188 62.9443 1.07711" stroke="#4F2925" stroke-miterlimit="1.5" stroke-linecap="round" stroke-linejoin="round"/>
</g>
</g>
</g>
<g id="Group_65">
<g id="Group_66">
<g id="Group_67">
<path id="Vector_63" d="M70.3787 81.4968C77.6954 74.9991 81.2399 66.7893 78.2957 63.1597C75.3515 59.53 67.0334 61.8549 59.7167 68.3526C52.4001 74.8503 48.8555 83.0601 51.7998 86.6898C54.744 90.3195 63.0621 87.9945 70.3787 81.4968Z" fill="#D58A00"/>
</g>
<g id="Group_68">
<path id="Vector_64" d="M67.1941 78.323C74.5108 71.8253 78.0554 63.6155 75.1111 59.9858C72.1669 56.3562 63.8488 58.6811 56.5321 65.1788C49.2155 71.6764 45.671 79.8863 48.6152 83.516C51.5594 87.1456 59.8775 84.8206 67.1941 78.323Z" fill="#D58A00"/>
</g>
<g id="Group_69">
<path id="Vector_65" d="M65.6303 76.7858C72.9022 70.226 76.7419 62.3348 74.2066 59.1603C71.6713 55.9858 63.721 58.7301 56.4491 65.2899C49.1772 71.8497 45.3375 79.741 47.8729 82.9155C50.4082 86.09 58.3585 83.3457 65.6303 76.7858Z" fill="#FFF4CB"/>
</g>
<g id="Group_70">
<path id="Vector_66" d="M65.7128 76.6785C72.9411 70.0585 77.0379 62.4512 74.8633 59.6872C72.6887 56.9231 65.0661 60.0491 57.8379 66.6691C50.6097 73.2892 46.5129 80.8965 48.6875 83.6605C50.8621 86.4245 58.4846 83.2986 65.7128 76.6785Z" fill="#FFCA00"/>
</g>
</g>
<g id="Group_71">
<path id="Vector_67" fill-rule="evenodd" clip-rule="evenodd" d="M54.9379 83.1975L52.5824 78.874L52.6135 78.3077L54.8029 76.1614L53.8255 74.2887L53.8984 73.5874L56.252 71.0976L59.1428 68.7152L60.7562 70.3659L62.0894 69.0681L60.6403 67.3667L63.0829 64.6215L65.648 62.3726C65.648 62.3726 66.4662 62.2859 66.4986 62.304C66.5334 62.3247 69.1263 63.97 69.1263 63.97L72.3413 66.6029L72.4984 66.7875L69.7327 69.8572L66.5837 72.6646L65.9654 72.4772L63.6256 70.3374L62.0922 71.9344L63.9689 74.3811L64.1529 75.0855L61.9676 77.4164L58.1458 80.7298L57.0479 79.5947L55.9372 78.0701L55.0943 78.8709L56.3347 81.3562L56.4238 81.9297L54.9379 83.1975Z" fill="#D58A00"/>
</g>
<g id="Group_72">
<g id="Group_73">
<g id="Group_74">
<g id="Group_75">
<path id="Vector_68" d="M67.1704 78.3302C74.5226 71.8328 78.1163 63.6282 75.197 60.0048C72.2777 56.3813 63.9509 58.7111 56.5986 65.2085C49.2464 71.7059 45.6527 79.9105 48.572 83.534C51.4913 87.1574 59.8181 84.8276 67.1704 78.3302Z" stroke="#151514" stroke-width="2" stroke-miterlimit="1.5" stroke-linecap="round" stroke-linejoin="round"/>
</g>
<g id="Group_76">
<path id="Vector_69" d="M78.5355 62.0301C81.3576 65.7742 77.8417 74.3067 70.6895 81.0668C63.5367 87.8275 55.4364 90.2744 52.6143 86.5303" stroke="#151514" stroke-width="2" stroke-miterlimit="1.5" stroke-linecap="round" stroke-linejoin="round"/>
</g>
<path id="Vector_70" d="M52.4005 87.7469L49.2363 84.5278" stroke="#151514" stroke-width="2" stroke-miterlimit="1.5" stroke-linecap="round" stroke-linejoin="round"/>
<path id="Vector_71" d="M77.6604 62.1947L74.5303 59.0103" stroke="#151514" stroke-width="2" stroke-miterlimit="1.5" stroke-linecap="round" stroke-linejoin="round"/>
</g>
</g>
<g id="Group_77">
<path id="Vector_72" d="M55.2412 85.8521L58.2358 88.7162" stroke="#151514" stroke-width="2" stroke-miterlimit="1.5" stroke-linecap="round" stroke-linejoin="round"/>
<path id="Vector_73" d="M60.3643 83.2944L63.5569 86.4864" stroke="#151514" stroke-width="2" stroke-miterlimit="1.5" stroke-linecap="round" stroke-linejoin="round"/>
<path id="Vector_74" d="M66.7178 78.5137L69.833 81.47" stroke="#151514" stroke-width="2" stroke-miterlimit="1.5" stroke-linecap="round" stroke-linejoin="round"/>
<path id="Vector_75" d="M71.543 73.2339L74.554 75.6874" stroke="#151514" stroke-width="2" stroke-miterlimit="1.5" stroke-linecap="round" stroke-linejoin="round"/>
<g id="Group_78">
<path id="Vector_76" d="M75.1035 67.2827L78.1855 69.6423" stroke="#151514" stroke-width="2" stroke-miterlimit="1.5" stroke-linecap="round" stroke-linejoin="round"/>
</g>
</g>
</g>
<g id="Group_79">
<g id="Group_80">
<path id="Vector_77" d="M72.4665 65.6809L71.7684 65.69" stroke="#4F2925" stroke-miterlimit="1.5" stroke-linecap="round" stroke-linejoin="round"/>
</g>
<g id="Group_81">
<path id="Vector_78" d="M65.2944 62.2188L66.1875 62.1605C68.2034 63.2766 69.8402 64.1153 72.4934 66.4247C70.8808 68.2735 68.3802 70.4642 66.3152 71.9329L65.6674 71.7532" stroke="#4F2925" stroke-miterlimit="1.5" stroke-linecap="round" stroke-linejoin="round"/>
</g>
<g id="Group_82">
<path id="Vector_79" fill-rule="evenodd" clip-rule="evenodd" d="M71.7827 66.5239C70.397 65.1679 66.1365 62.6706 65.3193 62.2913C63.3708 63.631 61.7197 65.1932 60.111 67.0049C61.8997 68.9404 63.7179 70.3757 65.6861 71.881C67.7274 70.3578 70.2416 68.2328 71.7827 66.5239Z" stroke="#4F2925" stroke-miterlimit="1.5" stroke-linecap="round" stroke-linejoin="round"/>
</g>
<g id="Group_83">
<path id="Vector_80" d="M58.8321 80.5687L58.8085 80.0042" stroke="#4F2925" stroke-miterlimit="1.5" stroke-linecap="round" stroke-linejoin="round"/>
</g>
<g id="Group_84">
<path id="Vector_81" d="M53.8065 74.4829L53.7314 75.102C54.0804 75.6703 54.3591 76.1468 54.8158 76.7616" stroke="#4F2925" stroke-miterlimit="1.5" stroke-linecap="round" stroke-linejoin="round"/>
</g>
<g id="Group_85">
<path id="Vector_82" d="M56.2948 77.9043C56.9199 78.8 57.7289 79.9084 58.4835 80.5742C60.5097 79.1712 62.883 76.8532 64.582 74.9524L64.4432 74.3145" stroke="#4F2925" stroke-miterlimit="1.5" stroke-linecap="round" stroke-linejoin="round"/>
</g>
<g id="Group_86">
<path id="Vector_83" d="M55.3936 74.4141L55.9122 74.5075" stroke="#4F2925" stroke-miterlimit="1.5" stroke-linecap="round" stroke-linejoin="round"/>
</g>
<g id="Group_87">
<path id="Vector_84" d="M58.5462 77.6478C57.6446 76.5006 56.9432 75.4128 55.9478 74.0693C57.0087 73.0456 58.292 72.1257 59.4069 71.2278" stroke="#4F2925" stroke-miterlimit="1.5" stroke-linecap="round" stroke-linejoin="round"/>
</g>
<g id="Group_88">
<path id="Vector_85" d="M55.0907 75.9191C54.5547 75.0656 54.28 74.5176 53.7628 73.8077C55.3662 72.0978 57.1929 70.5771 59.2433 69.2464C61.0424 70.7681 62.7519 72.7298 64.375 74.6735C62.572 76.451 60.1583 78.7111 58.2215 79.9892C57.4579 79.2747 56.6804 78.1751 55.9968 77.4261" stroke="#4F2925" stroke-miterlimit="1.5" stroke-linecap="round" stroke-linejoin="round"/>
</g>
<g id="Group_89">
<path id="Vector_86" fill-rule="evenodd" clip-rule="evenodd" d="M58.2885 77.9735C57.2488 76.6201 56.3301 75.3379 55.4318 74.0008C56.4853 72.8796 57.8648 71.9176 59.0898 70.9901C60.2508 71.9699 61.3053 73.2936 62.313 74.6619C61.1292 75.8284 59.5562 77.1313 58.2885 77.9735Z" stroke="#4F2925" stroke-miterlimit="1.5" stroke-linecap="round" stroke-linejoin="round"/>
</g>
<g id="Group_90">
<path id="Vector_87" d="M65.1631 63.8486L65.2598 64.321" stroke="#4F2925" stroke-miterlimit="1.5" stroke-linecap="round" stroke-linejoin="round"/>
</g>
<g id="Group_91">
<path id="Vector_88" d="M69.324 66.8491C68.1808 66.0037 67.0911 65.3543 65.4981 64.3144C64.3877 65.2725 63.3508 66.1698 62.3662 67.1872" stroke="#4F2925" stroke-miterlimit="1.5" stroke-linecap="round" stroke-linejoin="round"/>
</g>
<g id="Group_92">
<path id="Vector_89" fill-rule="evenodd" clip-rule="evenodd" d="M69.5684 66.5366C68.2363 65.4611 66.7582 64.721 65.4346 63.7818C64.2193 64.7234 63.0135 65.8354 61.9878 66.9525C63.2142 68.1951 64.3981 69.1622 65.8182 70.0698C67.0875 69.0064 68.6278 67.6998 69.5684 66.5366Z" stroke="#4F2925" stroke-miterlimit="1.5" stroke-linecap="round" stroke-linejoin="round"/>
</g>
<g id="Group_93">
<path id="Vector_90" d="M61.8209 69.1789C61.3694 69.5428 60.9457 70.0093 60.5443 70.5593" stroke="#4F2925" stroke-miterlimit="1.5" stroke-linecap="round" stroke-linejoin="round"/>
</g>
<g id="Group_94">
<path id="Vector_91" d="M55.4902 76.4795L52.9003 78.7129L55.4794 82.6824L56.8471 81.5809L55.2311 78.9674C55.6817 78.5851 56.0389 78.28 56.4875 77.8998" stroke="#4F2925" stroke-miterlimit="1.5" stroke-linecap="round" stroke-linejoin="round"/>
</g>
<g id="Group_95">
<path id="Vector_92" d="M61.7624 71.5538L63.138 70.0792" stroke="#4F2925" stroke-miterlimit="1.5" stroke-linecap="round" stroke-linejoin="round"/>
</g>
<g id="Group_96">
<path id="Vector_93" d="M57.0551 81.6797L57.1572 82.189C57.1572 82.189 56.038 83.1695 55.621 83.403C54.5937 81.9158 53.7472 80.821 52.9323 79.5656L52.9698 78.9392" stroke="#4F2925" stroke-miterlimit="1.5" stroke-linecap="round" stroke-linejoin="round"/>
</g>
<g id="Group_97">
<path id="Vector_94" d="M55.832 82.6865L55.7975 83.3991" stroke="#4F2925" stroke-miterlimit="1.5" stroke-linecap="round" stroke-linejoin="round"/>
</g>
<g id="Group_98">
<path id="Vector_95" d="M63.4707 70.3521C63.0095 70.8576 62.5678 71.3351 62.105 71.8401" stroke="#4F2925" stroke-miterlimit="1.5" stroke-linecap="round" stroke-linejoin="round"/>
</g>
<g id="Group_99">
<path id="Vector_96" d="M56.5501 78.1115C56.2733 78.4121 55.7651 78.951 55.4887 79.2513" stroke="#4F2925" stroke-miterlimit="1.5" stroke-linecap="round" stroke-linejoin="round"/>
</g>
</g>
</g>
</g>
</g>
</svg>
