<svg width="64" height="64" viewBox="0 0 64 64" fill="none" xmlns="http://www.w3.org/2000/svg">
<g clip-path="url(#clip0_1315_19030)">
<path d="M0 32C0 14.3269 14.3269 0 32 0C49.6731 0 64 14.3269 64 32C64 49.6731 49.6731 64 32 64C14.3269 64 0 49.6731 0 32Z" fill="white"/>
<g style="mix-blend-mode:plus-darker" filter="url(#filter0_f_1315_19030)">
<path d="M57 20.0001C52.2 17.2001 32 18.8335 22.5 20.0001L39 25C40.8333 27.6667 44.4 33.7 44 36.5C43.5 40 54 52 57 50C60 48 69 41.5 68.5 36.5C68 31.5 63 23.5001 57 20.0001Z" fill="#C496FF"/>
</g>
<g style="mix-blend-mode:plus-darker" filter="url(#filter1_f_1315_19030)">
<path d="M40 33.5H23.5L27 47.5H13C13.6667 51.3333 15.5 59.6 17.5 62C20 65 26.5 75 48 70C69.5 65 57.5 62.5 59 59C60.2 56.2 61.8333 47.5 62.5 43.5L40 33.5Z" fill="#86F9E4"/>
</g>
<g style="mix-blend-mode:plus-darker" filter="url(#filter2_f_1315_19030)">
<path d="M28.5 15.5L12 36.5H-1L20.5 51.5C30.5 48.8333 51.2 43.2 54 42C56.8 40.8 61.8333 27.1667 64 20.5L41 7L28.5 15.5Z" fill="#C496FF"/>
</g>
<g filter="url(#filter3_f_1315_19030)">
<ellipse cx="20" cy="69" rx="27" ry="25" fill="#E6E6E7"/>
</g>
<path d="M27 40.025V31H28.6C28.7167 31 28.8333 31.0125 28.95 31.0375C29.0667 31.0625 29.1833 31.0917 29.3 31.125L36.225 33.7C36.4583 33.7833 36.6458 33.9333 36.7875 34.15C36.9292 34.3667 37 34.5917 37 34.825C37 35.175 36.8792 35.4583 36.6375 35.675C36.3958 35.8917 36.1167 36 35.8 36H33.175C33.0917 36 33.0292 35.9958 32.9875 35.9875C32.9458 35.9792 32.8917 35.9583 32.825 35.925L31.225 35.3L30.9 36.275L32.825 36.95C32.8583 36.9667 32.9083 36.9792 32.975 36.9875C33.0417 36.9958 33.1 37 33.15 37H40C40.5333 37 41 37.1917 41.4 37.575C41.8 37.9583 42 38.4333 42 39L34.025 42L27 40.025ZM21 42V31H25V42H21Z" fill="url(#paint0_linear_1315_19030)"/>
<circle cx="36.5" cy="27.5" r="5.5" fill="url(#paint1_linear_1315_19030)"/>
</g>
<path d="M0.5 32C0.5 14.603 14.603 0.5 32 0.5C49.397 0.5 63.5 14.603 63.5 32C63.5 49.397 49.397 63.5 32 63.5C14.603 63.5 0.5 49.397 0.5 32Z" stroke="url(#paint2_linear_1315_19030)"/>
<defs>
<filter id="filter0_f_1315_19030" x="6.5" y="2.4541" width="78.0195" height="63.769" filterUnits="userSpaceOnUse" color-interpolation-filters="sRGB">
<feFlood flood-opacity="0" result="BackgroundImageFix"/>
<feBlend mode="normal" in="SourceGraphic" in2="BackgroundImageFix" result="shape"/>
<feGaussianBlur stdDeviation="8" result="effect1_foregroundBlur_1315_19030"/>
</filter>
<filter id="filter1_f_1315_19030" x="-3" y="17.5" width="81.5" height="69.877" filterUnits="userSpaceOnUse" color-interpolation-filters="sRGB">
<feFlood flood-opacity="0" result="BackgroundImageFix"/>
<feBlend mode="normal" in="SourceGraphic" in2="BackgroundImageFix" result="shape"/>
<feGaussianBlur stdDeviation="8" result="effect1_foregroundBlur_1315_19030"/>
</filter>
<filter id="filter2_f_1315_19030" x="-17" y="-9" width="97" height="76.5" filterUnits="userSpaceOnUse" color-interpolation-filters="sRGB">
<feFlood flood-opacity="0" result="BackgroundImageFix"/>
<feBlend mode="normal" in="SourceGraphic" in2="BackgroundImageFix" result="shape"/>
<feGaussianBlur stdDeviation="8" result="effect1_foregroundBlur_1315_19030"/>
</filter>
<filter id="filter3_f_1315_19030" x="-23" y="28" width="86" height="82" filterUnits="userSpaceOnUse" color-interpolation-filters="sRGB">
<feFlood flood-opacity="0" result="BackgroundImageFix"/>
<feBlend mode="normal" in="SourceGraphic" in2="BackgroundImageFix" result="shape"/>
<feGaussianBlur stdDeviation="8" result="effect1_foregroundBlur_1315_19030"/>
</filter>
<linearGradient id="paint0_linear_1315_19030" x1="22.0426" y1="36.5" x2="42" y2="36.5" gradientUnits="userSpaceOnUse">
<stop stop-color="#11101B" stop-opacity="0.5"/>
<stop offset="1" stop-color="#04030F"/>
</linearGradient>
<linearGradient id="paint1_linear_1315_19030" x1="31.5461" y1="27.5" x2="42" y2="27.5" gradientUnits="userSpaceOnUse">
<stop stop-color="#11101B" stop-opacity="0.5"/>
<stop offset="1" stop-color="#04030F"/>
</linearGradient>
<linearGradient id="paint2_linear_1315_19030" x1="59.2" y1="-3.44753e-06" x2="1.10865e-06" y2="60" gradientUnits="userSpaceOnUse">
<stop stop-color="#04030F" stop-opacity="0.08"/>
<stop offset="1" stop-color="#04030F" stop-opacity="0"/>
</linearGradient>
<clipPath id="clip0_1315_19030">
<path d="M0 32C0 14.3269 14.3269 0 32 0C49.6731 0 64 14.3269 64 32C64 49.6731 49.6731 64 32 64C14.3269 64 0 49.6731 0 32Z" fill="white"/>
</clipPath>
</defs>
</svg>
