<svg width="386" height="386" viewBox="0 0 386 386" fill="none" xmlns="http://www.w3.org/2000/svg">
<mask id="mask0_1315_12887" style="mask-type:alpha" maskUnits="userSpaceOnUse" x="0" y="0" width="386" height="386">
<rect width="385.32" height="385.71" fill="url(#paint0_radial_1315_12887)"/>
</mask>
<g mask="url(#mask0_1315_12887)">
<g filter="url(#filter0_f_1315_12887)">
<path d="M107.479 145.595V143.595H105.479H93.3764H93.3464H91.3464V145.595C91.3464 167.01 73.9437 184.453 52.6924 184.453C31.4324 184.453 14.0982 167.151 14.0687 145.865V144.949C14.4509 124.052 31.6028 107.189 52.6319 107.189H54.6319V105.189V93.0888V91.0888H52.6319C31.336 91.0888 14.0083 73.8122 14.0083 52.5928V52.4117C14.0083 31.1564 31.2816 13.8555 52.6019 13.8555C73.9126 13.8555 91.2558 31.2674 91.2558 52.7135V54.7135H93.2558H105.358H107.358V52.7135C107.358 31.2976 124.732 13.8555 146.012 13.8555C167.304 13.8555 184.638 31.1584 184.666 52.4447V53.3595C184.284 74.256 167.132 91.1189 146.103 91.1189H144.103V93.1189V105.219V107.219H146.103C167.399 107.219 184.727 124.496 184.727 145.715V145.896C184.727 167.152 167.453 184.453 146.133 184.453C124.822 184.453 107.479 167.041 107.479 145.595Z" stroke="#C496FF" stroke-width="4"/>
</g>
<mask id="mask1_1315_12887" style="mask-type:alpha" maskUnits="userSpaceOnUse" x="12" y="12" width="175" height="175">
<path d="M93.3681 145.739H105.471C105.471 168.28 123.7 186.597 146.125 186.597C168.549 186.597 186.718 168.401 186.718 146.041V145.86C186.718 123.53 168.489 105.364 146.095 105.364V93.2635C168.217 93.2635 186.266 75.5201 186.658 53.5219V52.5865C186.628 30.196 168.398 12 146.004 12C123.61 12 105.35 30.3469 105.35 52.8581H93.2475C93.2475 30.3167 75.0182 12 52.5936 12C30.1691 12 12 30.196 12 52.5563V52.7373C12 75.0674 30.2293 93.2333 52.6236 93.2333V105.334C30.5009 105.334 12.4528 123.077 12.0604 145.075V146.011C12.0906 168.401 30.3199 186.597 52.6841 186.597C75.0483 186.597 93.3381 168.25 93.3381 145.739H93.3681Z" fill="#04030F"/>
</mask>
<g mask="url(#mask1_1315_12887)">
<g opacity="0.2">
<rect x="11.9917" y="12.2324" width="175" height="174" style="mix-blend-mode:overlay"/>
</g>
</g>
<g filter="url(#filter1_f_1315_12887)">
<path d="M293.902 145.595V143.595H291.902H279.8H279.77H277.77V145.595C277.77 167.01 260.367 184.453 239.116 184.453C217.856 184.453 200.522 167.151 200.492 145.865V144.949C200.874 124.052 218.026 107.189 239.055 107.189H241.055V105.189V93.0888V91.0888H239.055C217.759 91.0888 200.432 73.8122 200.432 52.5928V52.4117C200.432 31.1564 217.705 13.8555 239.025 13.8555C260.336 13.8555 277.679 31.2674 277.679 52.7135V54.7135H279.679H291.782H293.782V52.7135C293.782 31.2976 311.155 13.8555 332.436 13.8555C353.727 13.8555 371.061 31.1584 371.09 52.4447V53.3595C370.707 74.256 353.555 91.1189 332.526 91.1189H330.526V93.1189V105.219V107.219H332.526C353.822 107.219 371.15 124.496 371.15 145.715V145.896C371.15 167.152 353.877 184.453 332.556 184.453C311.246 184.453 293.902 167.041 293.902 145.595Z" stroke="#C496FF" stroke-width="4"/>
</g>
<mask id="mask2_1315_12887" style="mask-type:alpha" maskUnits="userSpaceOnUse" x="198" y="12" width="175" height="175">
<path d="M279.368 145.739H291.471C291.471 168.28 309.7 186.597 332.125 186.597C354.549 186.597 372.718 168.401 372.718 146.041V145.86C372.718 123.53 354.489 105.364 332.095 105.364V93.2635C354.217 93.2635 372.266 75.5201 372.658 53.5219V52.5865C372.628 30.196 354.398 12 332.004 12C309.61 12 291.35 30.3469 291.35 52.8581H279.247C279.247 30.3167 261.018 12 238.594 12C216.169 12 198 30.196 198 52.5563V52.7373C198 75.0674 216.229 93.2333 238.624 93.2333V105.334C216.501 105.334 198.453 123.077 198.06 145.075V146.011C198.091 168.401 216.32 186.597 238.684 186.597C261.048 186.597 279.338 168.25 279.338 145.739H279.368Z" fill="#04030F"/>
</mask>
<g mask="url(#mask2_1315_12887)">
<g opacity="0.2">
<rect x="197.992" y="12.2324" width="175" height="174" style="mix-blend-mode:overlay"/>
</g>
</g>
<g filter="url(#filter2_f_1315_12887)">
<path d="M293.902 332.263V330.263H291.902H279.8H279.77H277.77V332.263C277.77 353.678 260.367 371.121 239.116 371.121C217.856 371.121 200.522 353.819 200.492 332.533V331.617C200.874 310.72 218.026 293.857 239.055 293.857H241.055V291.857V279.757V277.757H239.055C217.759 277.757 200.432 260.48 200.432 239.261V239.08C200.432 217.824 217.705 200.523 239.025 200.523C260.336 200.523 277.679 217.935 277.679 239.381V241.381H279.679H291.782H293.782V239.381C293.782 217.966 311.155 200.523 332.436 200.523C353.727 200.523 371.061 217.826 371.09 239.113V240.027C370.707 260.924 353.555 277.787 332.526 277.787H330.526V279.787V291.887V293.887H332.526C353.822 293.887 371.15 311.164 371.15 332.383V332.564C371.15 353.82 353.877 371.121 332.556 371.121C311.246 371.121 293.902 353.709 293.902 332.263Z" stroke="#86F9E4" stroke-width="4"/>
</g>
<mask id="mask3_1315_12887" style="mask-type:alpha" maskUnits="userSpaceOnUse" x="198" y="199" width="175" height="175">
<path d="M279.368 332.739H291.471C291.471 355.28 309.7 373.597 332.125 373.597C354.549 373.597 372.718 355.401 372.718 333.041V332.86C372.718 310.53 354.489 292.364 332.095 292.364V280.263C354.217 280.263 372.266 262.52 372.658 240.522V239.586C372.628 217.196 354.398 199 332.004 199C309.61 199 291.35 217.347 291.35 239.858H279.247C279.247 217.317 261.018 199 238.594 199C216.169 199 198 217.196 198 239.556V239.737C198 262.067 216.229 280.233 238.624 280.233V292.334C216.501 292.334 198.453 310.077 198.06 332.075V333.011C198.091 355.401 216.32 373.597 238.684 373.597C261.048 373.597 279.338 355.25 279.338 332.739H279.368Z" fill="#04030F"/>
</mask>
<g mask="url(#mask3_1315_12887)">
<g opacity="0.2">
<rect x="197.992" y="199.232" width="175" height="174" style="mix-blend-mode:overlay"/>
</g>
</g>
<g filter="url(#filter3_f_1315_12887)">
<path d="M107.479 332.507V330.507H105.479H93.3764H93.3464H91.3464V332.507C91.3464 353.922 73.9437 371.365 52.6924 371.365C31.4324 371.365 14.0982 354.064 14.0687 332.777V331.861C14.4509 310.964 31.6028 294.101 52.6319 294.101H54.6319V292.101V280.001V278.001H52.6319C31.336 278.001 14.0083 260.724 14.0083 239.505V239.324C14.0083 218.068 31.2816 200.768 52.6019 200.768C73.9126 200.768 91.2558 218.18 91.2558 239.626V241.626H93.2558H105.358H107.358V239.626C107.358 218.21 124.732 200.768 146.012 200.768C167.304 200.768 184.638 218.071 184.666 239.357V240.272C184.284 261.168 167.132 278.031 146.103 278.031H144.103V280.031V292.132V294.132H146.103C167.399 294.132 184.727 311.408 184.727 332.627V332.809C184.727 354.064 167.453 371.365 146.133 371.365C124.822 371.365 107.479 353.953 107.479 332.507Z" stroke="#86F9E4" stroke-width="4"/>
</g>
<mask id="mask4_1315_12887" style="mask-type:alpha" maskUnits="userSpaceOnUse" x="12" y="198" width="175" height="176">
<path d="M93.3764 332.507H105.479C105.479 355.048 123.709 373.365 146.133 373.365C168.558 373.365 186.727 355.169 186.727 332.809V332.627C186.727 310.297 168.497 292.132 146.103 292.132V280.031C168.226 280.031 186.274 262.288 186.666 240.29V239.354C186.636 216.964 168.407 198.768 146.012 198.768C123.618 198.768 105.358 217.114 105.358 239.626H93.2558C93.2558 217.084 75.0265 198.768 52.6019 198.768C30.1774 198.768 12.0083 216.964 12.0083 239.324V239.505C12.0083 261.835 30.2376 280.001 52.6319 280.001V292.101C30.5092 292.101 12.4611 309.845 12.0687 331.843V332.778C12.0989 355.169 30.3282 373.365 52.6924 373.365C75.0566 373.365 93.3464 355.018 93.3464 332.507H93.3764Z" fill="#04030F"/>
</mask>
<g mask="url(#mask4_1315_12887)">
<g opacity="0.2">
<rect x="12" y="199" width="175" height="174" style="mix-blend-mode:overlay"/>
</g>
</g>
<path fill-rule="evenodd" clip-rule="evenodd" d="M93.316 52.7134C93.316 30.2124 75.1029 11.8719 52.6922 11.8554C30.3116 11.8719 12.04 30.2398 12.04 52.59H-0.0600977C-0.0600977 23.5609 23.658 -0.245117 52.7224 -0.245117C72.9739 -0.245117 90.5694 11.282 99.4125 28.1503C108.225 11.282 125.851 -0.245117 146.103 -0.245117C166.212 -0.245117 183.733 11.0928 192.613 27.7155C201.482 11.0952 219.01 -0.245117 239.146 -0.245117C259.397 -0.245117 276.993 11.282 285.836 28.1503C294.649 11.282 312.275 -0.245117 332.526 -0.245117C361.5 -0.245117 385.102 23.292 385.223 52.2608V52.5927H385.253C385.253 72.7803 373.814 90.3427 357.064 99.154C373.785 107.95 385.151 125.751 385.19 145.896H385.193C385.193 166.078 373.77 183.65 357.04 192.486C373.72 201.296 385.139 218.801 385.223 238.928V239.26H385.253C385.253 259.448 373.814 277.01 357.064 285.821C373.809 294.63 385.184 312.383 385.19 332.563H385.193C385.193 361.592 361.561 385.22 332.497 385.22C312.245 385.22 294.65 373.693 285.807 356.825C276.994 373.693 259.368 385.22 239.116 385.22C219.056 385.22 201.571 373.937 192.671 357.38C183.823 374.068 166.258 385.464 146.073 385.464C125.821 385.464 108.226 373.937 99.3828 357.068C90.5699 373.937 72.9441 385.464 52.6925 385.464C23.7187 385.464 0.117181 361.927 -0.0035437 332.958V332.626H-0.0337543C-0.0337543 312.438 11.4048 294.876 28.1553 286.065C11.4048 277.253 -0.0639648 259.691 -0.0639648 239.503H12.0387C12.0387 261.833 30.268 279.999 52.6623 279.999V292.1C30.4792 292.1 12.4008 309.964 12.1291 332.053V332.777C12.1291 355.167 30.2982 373.363 52.7228 373.363C75.1473 373.363 93.3766 355.047 93.3766 332.505H105.479C105.479 355.006 123.692 373.347 146.103 373.363C167.392 373.348 184.883 356.888 186.538 336.046C186.465 334.944 186.425 333.833 186.42 332.714V332.382H186.39C186.39 331.048 186.44 329.725 186.538 328.415C184.418 308.057 167.101 292.13 146.133 292.13V280.03C167.258 280.03 184.66 263.829 186.507 243.208C186.409 241.904 186.36 240.588 186.36 239.26H186.666C186.666 239.2 186.665 239.139 186.665 239.079H186.45C186.45 238.069 186.478 237.066 186.535 236.07C184.862 215.211 167.39 198.766 146.072 198.766C123.648 198.766 105.418 217.083 105.418 239.625H93.3158C93.3158 217.124 75.1027 198.783 52.692 198.767C30.3113 198.783 12.0312 217.15 12.0312 239.5H0C0 219.208 11.5596 201.469 28.4451 192.629C11.6205 183.865 0.080779 166.281 -0.0035437 146.047V145.715H-0.0337543C-0.0337543 125.527 11.4048 107.965 28.1553 99.1536C11.4048 90.3422 -0.0639648 72.7799 -0.0639648 52.5923H12.0387C12.0387 74.9224 30.268 93.0882 52.6623 93.0882V105.189C30.4792 105.189 12.4008 123.053 12.1291 145.142V145.866C12.1291 168.256 30.2982 186.452 52.7228 186.452C75.1473 186.452 93.3766 168.135 93.3766 145.594H105.479C105.479 168.095 123.692 186.436 146.103 186.452C167.355 186.437 184.822 170.035 186.53 149.244C186.461 148.186 186.425 147.12 186.42 146.047V145.715H186.39C186.39 144.332 186.444 142.962 186.549 141.606C184.476 121.199 167.137 105.219 146.133 105.219V93.1188C167.22 93.1188 184.598 76.976 186.497 56.4069C186.406 55.147 186.36 53.8749 186.36 52.5923H186.666V52.4419L186.666 52.4116H186.45C186.45 51.3536 186.481 50.3028 186.543 49.26C184.919 28.3528 167.425 11.8554 146.073 11.8554C123.648 11.8554 105.419 30.1721 105.419 52.7134H93.316ZM76.9573 192.604C86.5251 197.605 94.3837 205.469 99.4122 215.061C104.42 205.476 112.274 197.615 121.838 192.615C112.27 187.614 104.411 179.749 99.3828 170.157C94.3749 179.743 86.5213 187.603 76.9573 192.604ZM170.384 192.607C179.783 197.512 187.53 205.171 192.548 214.505C197.513 205.141 205.224 197.442 214.603 192.489C205.268 187.559 197.581 179.904 192.606 170.592C187.597 179.978 179.827 187.681 170.384 192.607ZM198.681 235.839C198.754 236.941 198.794 238.052 198.799 239.172V239.504H198.829C198.829 240.838 198.779 242.161 198.681 243.471C200.801 263.83 218.118 279.756 239.086 279.756V291.856C217.961 291.856 200.559 308.057 198.712 328.679C198.809 329.982 198.859 331.298 198.859 332.626H198.553C198.553 332.687 198.553 332.747 198.554 332.807H198.769C198.769 333.817 198.741 334.82 198.684 335.816C200.357 356.676 217.829 373.12 239.147 373.12C261.571 373.12 279.8 354.803 279.8 332.262H291.903C291.903 354.763 310.116 373.103 332.527 373.12C354.902 373.103 373.081 354.923 373.09 332.58H373.08C373.08 310.25 354.951 291.887 332.557 291.887V279.786C354.74 279.786 372.818 261.922 373.09 239.834V239.109C373.09 217.113 355.555 199.165 333.676 198.54C333.284 198.548 332.891 198.553 332.497 198.553C332.104 198.553 331.711 198.548 331.32 198.54C309.438 199.167 291.842 217.235 291.842 239.381H279.74C279.74 217.269 262.151 199.175 240.274 198.54C239.889 198.548 239.503 198.553 239.116 198.553C238.728 198.553 238.341 198.548 237.955 198.54C217.195 199.14 200.307 215.377 198.681 235.839ZM192.553 307.705C197.527 298.392 205.225 290.742 214.579 285.821C205.306 280.943 197.652 273.384 192.666 264.182C187.692 273.494 179.994 281.144 170.64 286.065C179.912 290.943 187.567 298.502 192.553 307.705ZM198.799 52.2608C198.795 51.1862 198.758 50.1191 198.69 49.0605C200.399 28.2713 217.865 11.8709 239.116 11.8554C261.526 11.8718 279.74 30.2124 279.74 52.7134H291.842C291.842 30.1721 310.072 11.8554 332.496 11.8554C354.921 11.8554 373.09 30.0514 373.09 52.4419V53.166C372.818 75.2547 354.74 93.1188 332.557 93.1188V105.219C354.951 105.219 373.08 123.67 373.08 146H373.09C373.035 167.915 355.498 185.805 333.687 186.435C333.301 186.427 332.914 186.422 332.526 186.422C332.14 186.422 331.754 186.427 331.369 186.435C309.492 185.801 291.903 167.706 291.903 145.594H279.8C279.8 167.74 262.204 185.809 240.322 186.435C239.931 186.427 239.539 186.422 239.146 186.422C238.752 186.422 238.359 186.427 237.968 186.435C217.153 185.841 200.269 169.568 198.676 149.046C198.738 148.004 198.769 146.953 198.769 145.896H198.553L198.553 145.866V145.715H198.859C198.859 144.433 198.813 143.161 198.722 141.901C200.621 121.332 217.999 105.189 239.086 105.189V93.0882C218.083 93.0882 200.743 77.1086 198.67 56.7011C198.775 55.3452 198.829 53.9751 198.829 52.5927H198.799V52.2608ZM214.579 99.1536C205.266 104.053 197.594 111.657 192.618 120.914C187.634 111.658 179.953 104.053 170.64 99.154C179.954 94.2547 187.625 86.6501 192.601 77.393C197.585 86.6499 205.266 94.2544 214.579 99.1536ZM308.03 192.493C298.567 187.487 290.795 179.672 285.807 170.157C280.839 179.665 273.072 187.476 263.613 192.482C273.076 197.488 280.848 205.303 285.836 214.818C290.803 205.31 298.571 197.499 308.03 192.493Z" fill="url(#paint1_linear_1315_12887)"/>
</g>
<defs>
<filter id="filter0_f_1315_12887" x="-19.9917" y="-20.1445" width="238.718" height="238.598" filterUnits="userSpaceOnUse" color-interpolation-filters="sRGB">
<feFlood flood-opacity="0" result="BackgroundImageFix"/>
<feBlend mode="normal" in="SourceGraphic" in2="BackgroundImageFix" result="shape"/>
<feGaussianBlur stdDeviation="16" result="effect1_foregroundBlur_1315_12887"/>
</filter>
<filter id="filter1_f_1315_12887" x="166.432" y="-20.1445" width="238.719" height="238.598" filterUnits="userSpaceOnUse" color-interpolation-filters="sRGB">
<feFlood flood-opacity="0" result="BackgroundImageFix"/>
<feBlend mode="normal" in="SourceGraphic" in2="BackgroundImageFix" result="shape"/>
<feGaussianBlur stdDeviation="16" result="effect1_foregroundBlur_1315_12887"/>
</filter>
<filter id="filter2_f_1315_12887" x="166.432" y="166.523" width="238.719" height="238.598" filterUnits="userSpaceOnUse" color-interpolation-filters="sRGB">
<feFlood flood-opacity="0" result="BackgroundImageFix"/>
<feBlend mode="normal" in="SourceGraphic" in2="BackgroundImageFix" result="shape"/>
<feGaussianBlur stdDeviation="16" result="effect1_foregroundBlur_1315_12887"/>
</filter>
<filter id="filter3_f_1315_12887" x="-19.9917" y="166.768" width="238.718" height="238.598" filterUnits="userSpaceOnUse" color-interpolation-filters="sRGB">
<feFlood flood-opacity="0" result="BackgroundImageFix"/>
<feBlend mode="normal" in="SourceGraphic" in2="BackgroundImageFix" result="shape"/>
<feGaussianBlur stdDeviation="16" result="effect1_foregroundBlur_1315_12887"/>
</filter>
<radialGradient id="paint0_radial_1315_12887" cx="0" cy="0" r="1" gradientUnits="userSpaceOnUse" gradientTransform="translate(192.66 192.855) rotate(90) scale(192.855 187.66)">
<stop stop-color="#D9D9D9" stop-opacity="0.8"/>
<stop offset="1" stop-color="#737373" stop-opacity="0.1"/>
</radialGradient>
<linearGradient id="paint1_linear_1315_12887" x1="192.594" y1="101.992" x2="192.594" y2="385.464" gradientUnits="userSpaceOnUse">
<stop stop-color="#C496FF"/>
<stop offset="1" stop-color="#86F9E4"/>
</linearGradient>
</defs>
</svg>
