<svg width="352" height="24" viewBox="0 0 352 24" fill="none" xmlns="http://www.w3.org/2000/svg">
<line x1="0.5" y1="11.5" x2="109.991" y2="11.5" stroke="#E6E6E7"/>
<path d="M124.355 11.313C127.465 11.313 129.987 14.2943 129.987 17.4068" stroke="white" stroke-width="15" stroke-miterlimit="10"/>
<path d="M135.623 24C133.214 24 131.067 22.5276 129.988 20.421C128.912 22.5276 126.765 23.9964 124.356 23.9964C120.845 23.9964 117.991 21.1426 117.991 17.6328V6.37084C117.991 2.86105 120.845 0.00729085 124.356 0.00729085L135.623 0C139.13 0 141.984 2.85376 141.984 6.36355C141.984 8.80547 140.596 10.9339 138.562 11.9982C140.596 13.0661 141.988 15.1909 141.988 17.6328V17.7312C141.937 21.1936 139.101 23.9964 135.627 23.9964L135.623 24ZM130.721 17.4032C130.721 20.1877 132.966 22.5385 135.623 22.5385C138.281 22.5385 140.523 20.3408 140.523 17.6401V17.549C140.475 14.8847 138.281 12.7308 135.583 12.7308V11.2692C138.306 11.2692 140.523 9.06788 140.523 6.36355C140.523 3.65923 138.325 1.46151 135.623 1.46151L124.356 1.4688C121.651 1.4688 119.453 3.66652 119.453 6.37084V17.6328C119.453 20.3371 121.651 22.5348 124.356 22.5348C127.061 22.5348 129.259 20.184 129.259 17.4032H130.721Z" fill="white"/>
<path d="M140.523 17.6434C140.523 20.3441 138.325 22.5418 135.624 22.5418C132.922 22.5418 130.721 20.191 130.721 17.4065C130.721 13.7728 127.746 10.5837 124.356 10.5837V12.0453C126.97 12.0453 129.259 14.5528 129.259 17.4065C129.259 20.2603 127.013 22.5382 124.356 22.5382C121.699 22.5382 119.453 20.3405 119.453 17.6361V6.37418C119.453 3.66986 121.651 1.47213 124.356 1.47213L135.624 1.46484C138.325 1.46484 140.523 3.66256 140.523 6.36689C140.523 9.07122 138.307 11.2726 135.584 11.2726V12.7341C138.277 12.7341 140.475 14.8881 140.523 17.5523V17.6434Z" fill="#E6E6E7"/>
<path d="M147.343 12.7175V11.2567C144.643 11.2567 142.449 9.05995 142.449 6.36413C142.449 3.66832 144.646 1.46432 147.35 1.46432L158.612 1.45703C161.312 1.45703 163.509 3.65375 163.509 6.35685C163.509 9.05995 161.312 11.2567 158.609 11.2567L158.481 11.264C154.983 11.2749 152.141 14.1237 152.141 17.6246H153.602C153.602 14.9215 155.799 12.7248 158.503 12.7248H158.609C161.312 12.7248 163.509 14.9215 163.509 17.6246C163.509 20.3277 161.312 22.5171 158.612 22.5171L147.35 22.5244C144.65 22.5244 142.449 20.3277 142.449 17.6246C142.449 14.9179 144.646 12.7139 147.343 12.7139" fill="#E6E6E7"/>
<path d="M161.542 12C163.575 10.9362 164.971 8.80874 164.971 6.36066C164.971 2.85246 162.118 0 158.613 0L147.35 0.00728597C143.841 0.00728597 140.988 2.85974 140.988 6.36794C140.988 8.81239 142.376 10.9399 144.41 12C142.38 13.0601 140.988 15.1876 140.988 17.6321C140.988 21.1403 143.841 23.9927 147.35 23.9927L158.613 24C162.118 24 164.971 21.1475 164.971 17.6393C164.971 15.1913 163.579 13.0601 161.542 12ZM158.613 22.5392L147.35 22.5319C144.646 22.5319 142.449 20.3352 142.449 17.6321C142.449 14.929 144.643 12.7395 147.343 12.7395V11.2605C144.646 11.2605 142.449 9.0674 142.449 6.36794C142.449 3.66849 144.646 1.46812 147.35 1.46812L158.613 1.46084C161.312 1.46084 163.51 3.65756 163.51 6.36066C163.51 9.06375 161.312 11.2605 158.609 11.2605L158.481 11.2678C158.438 11.2678 158.394 11.2678 158.35 11.2714C155.719 11.1913 153.603 9.02732 153.603 6.37523H152.141C152.141 8.81239 153.522 10.9326 155.541 12C153.522 13.0674 152.141 15.1876 152.141 17.6248H153.603C153.603 14.9727 155.719 12.8087 158.35 12.7286C158.394 12.7286 158.438 12.7322 158.481 12.7322L158.609 12.7395C161.312 12.7395 163.51 14.9362 163.51 17.6393C163.51 20.3424 161.312 22.5392 158.613 22.5392Z" fill="white"/>
<path d="M184.484 12C185.045 11.7049 185.57 11.3297 186.037 10.8707C187.272 9.66485 187.949 8.06557 187.949 6.36794C187.949 2.85974 185.096 0.00728597 181.591 0.00728597L170.329 0V0.010929C166.824 0.010929 163.971 2.86339 163.971 6.37158L163.978 17.6321V17.6393H163.971C163.971 21.1475 166.824 24 170.329 24L181.591 23.9927C185.1 23.9927 187.953 21.1403 187.953 17.6321C187.953 15.9344 187.275 14.3352 186.04 13.1293C185.574 12.674 185.049 12.2951 184.488 12H184.484ZM181.588 22.5319L170.332 22.5392V22.5282C167.633 22.5282 165.439 20.3315 165.439 17.6321L165.432 6.37158C165.432 3.66849 167.629 1.47177 170.332 1.47177V1.46084L181.591 1.46812C184.295 1.46812 186.492 3.66484 186.492 6.36794C186.492 9.07104 184.255 11.2678 181.504 11.2678C178.753 11.2678 176.691 9.11475 176.691 6.3643H175.23C175.23 8.06557 175.874 9.6612 177.044 10.8561C177.485 11.3042 177.98 11.6794 178.516 11.9709C176.366 13.0383 174.854 15.1985 174.854 17.6284H176.315C176.315 15.0164 178.738 12.725 181.504 12.725C184.269 12.725 186.492 14.9253 186.492 17.6284C186.492 20.3315 184.295 22.5282 181.591 22.5282L181.588 22.5319Z" fill="white"/>
<path d="M181.587 22.5315L170.332 22.5388V22.5278C167.632 22.5278 165.439 20.3311 165.439 17.6317L165.432 6.3712C165.432 3.6681 167.629 1.47138 170.332 1.47138V1.46045L181.591 1.46774C184.295 1.46774 186.492 3.66446 186.492 6.36755C186.492 9.07065 184.255 11.2674 181.504 11.2674C178.753 11.2674 176.69 9.11436 176.69 6.36391H175.229C175.229 8.06518 175.874 9.66081 177.044 10.8557C177.485 11.3038 177.98 11.679 178.516 11.9705C176.366 13.0379 174.854 15.1982 174.854 17.628H176.315C176.315 15.016 178.738 12.7246 181.504 12.7246C184.269 12.7246 186.492 14.9249 186.492 17.628C186.492 20.3311 184.295 22.5278 181.591 22.5278L181.587 22.5315Z" fill="#E6E6E7"/>
<path d="M210.968 6.36281C210.965 2.85506 208.109 0 204.601 0L193.328 0.00729262H193.321V0C189.809 0 186.953 2.85506 186.953 6.36281L186.96 17.6335C186.96 21.1449 189.816 24 193.328 24C195.027 24 196.628 23.3218 197.836 22.0857C198.291 21.619 198.671 21.0939 198.966 20.5324C199.262 21.0939 199.637 21.619 200.097 22.0857C201.304 23.3218 202.905 24 204.604 24C208.116 24 210.972 21.1449 210.972 17.6335L210.979 6.36281H210.968ZM204.604 22.5378C201.898 22.5378 199.699 20.299 199.699 17.546C199.699 14.7931 201.855 12.7293 204.608 12.7293V11.2671C202.905 11.2671 201.308 11.9125 200.111 13.083C199.663 13.5242 199.287 14.0201 198.995 14.5561C197.927 12.4047 195.764 10.8915 193.332 10.8915V12.3537C195.946 12.3537 198.24 14.7785 198.24 17.546C198.24 20.3136 196.038 22.5378 193.332 22.5378C190.626 22.5378 188.426 20.3391 188.426 17.6335L188.419 6.3701H188.43C188.43 3.66819 190.629 1.47311 193.332 1.47311L204.604 1.46582C207.31 1.46582 209.51 3.66454 209.51 6.3701H209.52L209.513 17.6372C209.513 20.3428 207.314 22.5415 204.608 22.5415L204.604 22.5378Z" fill="white"/>
<path d="M188.423 17.6336L188.416 6.3701H188.427C188.427 3.66819 190.626 1.47311 193.328 1.47311L204.601 1.46582C207.307 1.46582 209.506 3.66454 209.506 6.3701H209.517L209.51 17.6372C209.51 20.3428 207.311 22.5415 204.605 22.5415C201.899 22.5415 199.7 20.3026 199.7 17.5497C199.7 14.7967 201.855 12.7329 204.608 12.7329V11.2707C202.905 11.2707 201.308 11.9161 200.112 13.0866C199.663 13.5278 199.288 14.0237 198.996 14.5597C197.927 12.4084 195.765 10.8952 193.332 10.8952V12.3573C195.947 12.3573 198.241 14.7821 198.241 17.5497C198.241 20.3172 196.038 22.5415 193.332 22.5415C190.626 22.5415 188.427 20.3428 188.427 17.6372L188.423 17.6336Z" fill="#E6E6E7"/>
<path d="M216.356 23.9927C212.837 23.9927 209.979 21.1235 209.979 17.5944V6.36184C209.982 2.85463 212.837 0 216.345 0H227.627C231.146 0 234.008 2.85827 234.008 6.37278L233.994 10.919C233.994 14.4335 231.135 17.2955 227.62 17.2955C225.654 17.2955 223.893 16.395 222.726 14.9804V17.6199C222.726 21.1381 219.871 24 216.36 24L216.356 23.9927ZM227.623 1.4583H216.341C213.64 1.4583 211.441 3.66034 211.441 6.36184V17.5944C211.437 20.3178 213.643 22.5308 216.356 22.5308C219.069 22.5308 221.264 20.3251 221.264 17.6126V10.9081C221.264 10.9081 221.26 10.9008 221.26 10.8935H222.723V10.9008C222.723 13.6169 224.921 15.8262 227.62 15.8262C230.318 15.8262 232.531 13.6205 232.531 10.9081L232.546 6.36184C232.546 3.65305 230.34 1.45101 227.627 1.45101L227.623 1.4583Z" fill="white"/>
<path d="M227.623 1.45823H216.341C213.639 1.45823 211.44 3.66027 211.44 6.36177V17.5943C211.437 20.3177 213.643 22.5307 216.356 22.5307C219.069 22.5307 221.264 20.325 221.264 17.6126V10.9044C221.264 10.9044 221.26 10.9007 221.26 10.8971H222.722V10.9044C222.722 13.6205 224.921 15.8298 227.619 15.8298C230.318 15.8298 232.531 13.6241 232.531 10.9117L232.546 6.36542C232.546 3.65662 230.34 1.45459 227.627 1.45459L227.623 1.45823Z" fill="#E6E6E7"/>
<line x1="242.009" y1="11.5" x2="351.5" y2="11.5" stroke="#E6E6E7"/>
</svg>
