<svg width="44" height="16" viewBox="0 0 44 16" fill="none" xmlns="http://www.w3.org/2000/svg">
<g id="Group 2292">
<path id="Vector" d="M24.6665 0H8.6665V2.66666H24.6665V0Z" fill="#F3322C"/>
<path id="Vector_2" d="M43.3325 0H27.3325V2.66666H43.3325V0Z" fill="#F3322C"/>
<path id="Vector_3" d="M11.3332 2.66406H8.6665V5.33073H11.3332V2.66406Z" fill="#F3322C"/>
<path id="Vector_4" d="M16.6663 2.66406H11.333V5.33073H16.6663V2.66406Z" fill="white"/>
<path id="Vector_5" d="M21.9998 2.66406H16.6665V5.33073H21.9998V2.66406Z" fill="black"/>
<path id="Vector_6" d="M24.6672 2.66406H22.0005V5.33073H24.6672V2.66406Z" fill="#F3322C"/>
<path id="Vector_7" d="M29.9992 2.66406H27.3325V5.33073H29.9992V2.66406Z" fill="#F3322C"/>
<path id="Vector_8" d="M35.3333 2.66406H30V5.33073H35.3333V2.66406Z" fill="white"/>
<path id="Vector_9" d="M40.6663 2.66406H35.333V5.33073H40.6663V2.66406Z" fill="black"/>
<path id="Vector_10" d="M43.3327 2.66406H40.666V5.33073H43.3327V2.66406Z" fill="#F3322C"/>
<path id="Vector_11" d="M11.3332 5.33594H0.666504V8.0026H11.3332V5.33594Z" fill="#F3322C"/>
<path id="Vector_12" d="M16.6663 5.33594H11.333V8.0026H16.6663V5.33594Z" fill="white"/>
<path id="Vector_13" d="M21.9998 5.33594H16.6665V8.0026H21.9998V5.33594Z" fill="black"/>
<path id="Vector_14" d="M30.0005 5.33594H22.0005V8.0026H30.0005V5.33594Z" fill="#F3322C"/>
<path id="Vector_15" d="M35.3333 5.33594H30V8.0026H35.3333V5.33594Z" fill="white"/>
<path id="Vector_16" d="M40.6663 5.33594H35.333V8.0026H40.6663V5.33594Z" fill="black"/>
<path id="Vector_17" d="M43.3327 5.33594H40.666V8.0026H43.3327V5.33594Z" fill="#F3322C"/>
<path id="Vector_18" d="M3.33317 8H0.666504V10.6667H3.33317V8Z" fill="#F3322C"/>
<path id="Vector_19" d="M11.3332 8H8.6665V10.6667H11.3332V8Z" fill="#F3322C"/>
<path id="Vector_20" d="M16.6663 8H11.333V10.6667H16.6663V8Z" fill="white"/>
<path id="Vector_21" d="M21.9998 8H16.6665V10.6667H21.9998V8Z" fill="black"/>
<path id="Vector_22" d="M24.6672 8H22.0005V10.6667H24.6672V8Z" fill="#F3322C"/>
<path id="Vector_23" d="M29.9992 8H27.3325V10.6667H29.9992V8Z" fill="#F3322C"/>
<path id="Vector_24" d="M35.3333 8H30V10.6667H35.3333V8Z" fill="white"/>
<path id="Vector_25" d="M40.6663 8H35.333V10.6667H40.6663V8Z" fill="black"/>
<path id="Vector_26" d="M43.3327 8H40.666V10.6667H43.3327V8Z" fill="#F3322C"/>
<path id="Vector_27" d="M3.33317 10.665H0.666504V13.3317H3.33317V10.665Z" fill="#F3322C"/>
<path id="Vector_28" d="M11.3332 10.665H8.6665V13.3317H11.3332V10.665Z" fill="#F3322C"/>
<path id="Vector_29" d="M16.6663 10.665H11.333V13.3317H16.6663V10.665Z" fill="white"/>
<path id="Vector_30" d="M21.9998 10.665H16.6665V13.3317H21.9998V10.665Z" fill="black"/>
<path id="Vector_31" d="M24.6672 10.665H22.0005V13.3317H24.6672V10.665Z" fill="#F3322C"/>
<path id="Vector_32" d="M29.9992 10.665H27.3325V13.3317H29.9992V10.665Z" fill="#F3322C"/>
<path id="Vector_33" d="M35.3333 10.665H30V13.3317H35.3333V10.665Z" fill="white"/>
<path id="Vector_34" d="M40.6663 10.665H35.333V13.3317H40.6663V10.665Z" fill="black"/>
<path id="Vector_35" d="M43.3327 10.665H40.666V13.3317H43.3327V10.665Z" fill="#F3322C"/>
<path id="Vector_36" d="M24.6665 13.334H8.6665V16.0006H24.6665V13.334Z" fill="#F3322C"/>
<path id="Vector_37" d="M43.3325 13.334H27.3325V16.0006H43.3325V13.334Z" fill="#F3322C"/>
</g>
</svg>
