<svg width="25" height="24" viewBox="0 0 25 24" fill="none" xmlns="http://www.w3.org/2000/svg">
<g id="Frame">
<path id="Vector" d="M12.3115 20.9101L12.3045 20.9071L12.2825 20.8951C12.1538 20.8243 12.0261 20.7516 11.8995 20.6771C10.3773 19.7726 8.95478 18.71 7.6555 17.5071C5.3545 15.3601 2.9165 12.1741 2.9165 8.25007C2.9165 5.32207 5.3805 3.00007 8.3545 3.00007C9.18126 2.99602 9.99828 3.17841 10.7448 3.53368C11.4914 3.88894 12.1482 4.40794 12.6665 5.05207C13.1849 4.40781 13.8419 3.88873 14.5886 3.53346C15.3354 3.17819 16.1526 2.99587 16.9795 3.00007C19.9525 3.00007 22.4165 5.32207 22.4165 8.25007C22.4165 12.1751 19.9785 15.3611 17.6775 17.5061C16.3783 18.709 14.9557 19.7716 13.4335 20.6761C13.3069 20.7509 13.1792 20.8239 13.0505 20.8951L13.0285 20.9071L13.0215 20.9111L13.0185 20.9121C12.9101 20.9695 12.7892 20.9995 12.6665 20.9995C12.5438 20.9995 12.4229 20.9695 12.3145 20.9121L12.3115 20.9101Z" fill="#C496FF"/>
</g>
</svg>
