<svg width="1920" height="1920" viewBox="0 0 1920 1920" fill="none" xmlns="http://www.w3.org/2000/svg">
<g clip-path="url(#clip0_1115_932)">
<g filter="url(#filter0_d_1115_932)">
<path d="M526.852 961.927C447.216 961.927 382.634 894.479 382.634 814.818V814.394V815.017C382.634 735.381 317.754 671.024 238.118 671.024H238.217C158.581 671.024 94 735.581 94 815.242L94.1994 1103.68C94.1994 1183.31 158.606 1247.82 238.267 1247.82C317.903 1247.82 382.485 1183.26 382.485 1103.6" stroke="#121710" stroke-width="15" stroke-miterlimit="10"/>
<path d="M238.267 956.668C317.903 956.668 382.484 1021.22 382.484 1100.89L382.634 1103.58C382.634 1183.21 447.19 1247.79 526.851 1247.79C606.487 1247.79 671.068 1183.31 671.068 1103.65L670.869 815.217C670.869 735.581 606.313 671 526.652 671C447.015 671 382.658 735.357 382.658 814.993" stroke="#121710" stroke-width="15" stroke-miterlimit="10"/>
<path d="M1104.97 963.074C1025.33 963.074 960.751 895.626 960.751 815.965V815.541V816.164C960.751 736.528 895.871 672.171 816.235 672.171H816.335C736.698 672.171 672.117 736.728 672.117 816.389L672.317 1104.82C672.317 1184.46 736.723 1248.97 816.384 1248.97C896.021 1248.97 960.602 1184.41 960.602 1104.75" stroke="#121710" stroke-width="15" stroke-miterlimit="10"/>
<path d="M816.385 957.815C896.021 957.815 960.602 1022.37 960.602 1102.03L960.752 1104.72C960.752 1184.36 1025.31 1248.94 1104.97 1248.94C1184.61 1248.94 1249.19 1184.46 1249.19 1104.8L1248.99 816.364C1248.99 736.728 1184.43 672.147 1104.77 672.147C1025.13 672.147 960.777 736.504 960.777 816.14" stroke="#121710" stroke-width="15" stroke-miterlimit="10"/>
<path d="M526.351 1228.6C457.639 1228.33 401.828 1172.35 401.828 1103.58V1103.57L401.827 1103.55L401.678 1100.31C401.678 1100.31 401.678 1100.3 401.678 1100.3C401.373 1010.45 328.195 937.475 238.267 937.475H237.767V937.975V975.362V975.862H238.267C307.208 975.862 363.291 1031.94 363.291 1100.89V1100.9L363.291 1100.91L363.392 1103.08H363.291V1103.58C363.291 1172.52 307.208 1228.6 238.267 1228.6C169.327 1228.6 113.418 1172.54 113.418 1103.65L113.418 1103.65L113.219 815.243C113.219 746.326 169.276 690.244 238.192 690.219C307.285 690.244 363.465 746.229 363.465 815.018L363.465 815.019C363.515 858.67 380.441 900.07 411.139 931.618L411.473 931.293L411.139 931.618C442.188 963.517 483.293 981.097 526.876 981.097H527.376V980.597V943.209V942.709H526.876C459.167 942.709 401.903 884.195 401.853 814.894C401.903 746.127 457.885 690.169 526.652 690.169C595.419 690.169 651.676 746.252 651.676 815.193L651.875 1103.6C651.875 1172.49 595.793 1228.55 526.851 1228.55H526.351V1228.6Z" fill="white" stroke="#121710"/>
<path d="M1104.47 1229.75C1035.75 1229.48 979.943 1173.5 979.943 1104.72V1104.71L979.943 1104.7L979.794 1101.46C979.794 1101.45 979.794 1101.45 979.794 1101.45C979.488 1011.6 906.31 938.622 816.382 938.622H815.882V939.122V976.509V977.009H816.382C885.324 977.009 941.406 1033.09 941.406 1102.03V1102.04L941.406 1102.06L941.507 1104.22H941.406V1104.72C941.406 1173.67 885.324 1229.75 816.382 1229.75C747.442 1229.75 691.533 1173.69 691.533 1104.8L691.533 1104.8L691.334 816.39C691.334 747.473 747.391 691.391 816.308 691.366C885.4 691.391 941.58 747.376 941.58 816.165V816.166C941.63 859.817 958.556 901.217 989.254 932.765L989.592 932.436L989.254 932.765C1020.3 964.664 1061.41 982.244 1104.99 982.244H1105.49V981.744V944.356V943.856H1104.99C1037.28 943.856 980.018 885.342 979.968 816.041C980.018 747.274 1036 691.316 1104.77 691.316C1173.53 691.316 1229.79 747.399 1229.79 816.34L1229.99 1104.75C1229.99 1173.64 1173.91 1229.7 1104.97 1229.7H1104.47V1229.75Z" fill="white" stroke="#121710"/>
<path d="M1250.63 1105.22C1250.63 1184.68 1315.04 1249.09 1394.5 1249.09L1682.21 1248.89C1761.67 1248.89 1826.08 1184.48 1826.08 1105.02" stroke="#121710" stroke-width="15" stroke-miterlimit="10"/>
<path d="M1394.5 961.255C1315.04 961.255 1250.63 1025.66 1250.63 1105.12" stroke="#121710" stroke-width="15" stroke-miterlimit="10"/>
<path d="M1538.37 1105.12C1538.37 1025.66 1473.96 961.255 1394.5 961.255" stroke="#121710" stroke-width="15" stroke-miterlimit="10"/>
<path d="M1826.08 1105C1826.08 1025.54 1761.67 961.129 1682.21 961.129" stroke="#121710" stroke-width="15" stroke-miterlimit="10"/>
<path d="M1826.08 816.887C1826.08 737.426 1761.67 673.019 1682.21 673.019L1394.5 673.218C1315.04 673.218 1250.63 737.625 1250.63 817.087" stroke="#121710" stroke-width="15" stroke-miterlimit="10"/>
<path d="M1682.21 960.831C1761.67 960.831 1826.08 896.425 1826.08 816.963" stroke="#121710" stroke-width="15" stroke-miterlimit="10"/>
<path d="M1538.37 816.987C1538.37 896.449 1602.77 960.856 1682.24 960.856" stroke="#121710" stroke-width="15" stroke-miterlimit="10"/>
<path d="M1250.63 817.086C1250.63 896.548 1315.04 960.955 1394.5 960.955" stroke="#121710" stroke-width="15" stroke-miterlimit="10"/>
<path d="M1520.15 1105.3V1105.8H1520.65H1558.03H1558.53V1105.3C1558.53 1015.34 1485.38 942.135 1395.47 942.135C1326.73 942.135 1270.8 886.128 1270.8 817.261C1270.8 748.395 1326.73 692.587 1395.47 692.587L1395.47 692.587L1683.18 692.387C1751.92 692.387 1807.86 748.32 1807.86 817.161C1807.86 886.003 1751.93 941.836 1683.18 941.836C1614.44 941.836 1558.51 885.903 1558.51 817.161V816.661H1558.01H1520.62H1520.12V817.161C1520.12 906.902 1593.01 979.952 1682.68 980.223V980.523H1683.18C1751.93 980.523 1807.86 1036.46 1807.86 1105.2C1807.86 1173.94 1751.93 1229.87 1683.18 1229.87L1395.47 1230.07C1326.73 1230.07 1270.8 1174.14 1270.8 1105.3C1270.8 1036.46 1326.73 980.523 1395.47 980.523C1464.21 980.523 1520.15 1036.51 1520.15 1105.3Z" fill="white" stroke="#121710"/>
</g>
<rect x="1355" y="771" width="360" height="376" fill="#E1E1E1"/>
<rect x="1199" y="771" width="267" height="97" fill="#E1E1E1"/>
<rect x="1189" y="1050" width="267" height="97" fill="#E1E1E1"/>
<rect x="1559" y="1056" width="267" height="97" fill="#E1E1E1"/>
<rect x="1559" y="771" width="267" height="97" fill="#E1E1E1"/>
<path d="M526.852 961.927C447.216 961.927 382.634 894.479 382.634 814.818V814.394V815.017C382.634 735.381 317.754 671.024 238.118 671.024H238.217C158.581 671.024 94 735.581 94 815.242L94.1994 1103.68C94.1994 1183.31 158.606 1247.82 238.267 1247.82C317.903 1247.82 382.485 1183.26 382.485 1103.6" stroke="#121710" stroke-width="15" stroke-miterlimit="10"/>
<path d="M238.267 956.668C317.903 956.668 382.484 1021.22 382.484 1100.89L382.634 1103.58C382.634 1183.21 447.19 1247.79 526.851 1247.79C606.487 1247.79 671.068 1183.31 671.068 1103.65L670.869 815.217C670.869 735.581 606.313 671 526.652 671C447.015 671 382.658 735.357 382.658 814.993" stroke="#121710" stroke-width="15" stroke-miterlimit="10"/>
<path d="M1104.97 963.074C1025.33 963.074 960.751 895.626 960.751 815.965V815.541V816.164C960.751 736.528 895.871 672.171 816.235 672.171H816.335C736.698 672.171 672.117 736.728 672.117 816.389L672.317 1104.82C672.317 1184.46 736.723 1248.97 816.384 1248.97C896.021 1248.97 960.602 1184.41 960.602 1104.75" stroke="#121710" stroke-width="15" stroke-miterlimit="10"/>
<path d="M816.385 957.815C896.021 957.815 960.602 1022.37 960.602 1102.03L960.752 1104.72C960.752 1184.36 1025.31 1248.94 1104.97 1248.94C1184.61 1248.94 1249.19 1184.46 1249.19 1104.8L1248.99 816.364C1248.99 736.728 1184.43 672.147 1104.77 672.147C1025.13 672.147 960.777 736.504 960.777 816.14" stroke="#121710" stroke-width="15" stroke-miterlimit="10"/>
<path d="M526.351 1228.6C457.639 1228.33 401.828 1172.35 401.828 1103.58V1103.57L401.827 1103.55L401.678 1100.31C401.678 1100.31 401.678 1100.3 401.678 1100.3C401.373 1010.45 328.195 937.475 238.267 937.475H237.767V937.975V975.362V975.862H238.267C307.208 975.862 363.291 1031.94 363.291 1100.89V1100.9L363.291 1100.91L363.392 1103.08H363.291V1103.58C363.291 1172.52 307.208 1228.6 238.267 1228.6C169.327 1228.6 113.418 1172.54 113.418 1103.65L113.418 1103.65L113.219 815.243C113.219 746.326 169.276 690.244 238.192 690.219C307.285 690.244 363.465 746.229 363.465 815.018L363.465 815.019C363.515 858.67 380.441 900.07 411.139 931.618L411.473 931.293L411.139 931.618C442.188 963.517 483.293 981.097 526.876 981.097H527.376V980.597V943.209V942.709H526.876C459.167 942.709 401.903 884.195 401.853 814.894C401.903 746.127 457.885 690.169 526.652 690.169C595.419 690.169 651.676 746.252 651.676 815.193L651.875 1103.6C651.875 1172.49 595.793 1228.55 526.851 1228.55H526.351V1228.6Z" fill="white" stroke="#121710"/>
<path d="M1104.47 1229.75C1035.75 1229.48 979.943 1173.5 979.943 1104.72V1104.71L979.943 1104.7L979.794 1101.46C979.794 1101.45 979.794 1101.45 979.794 1101.45C979.488 1011.6 906.31 938.622 816.382 938.622H815.882V939.122V976.509V977.009H816.382C885.324 977.009 941.406 1033.09 941.406 1102.03V1102.04L941.406 1102.06L941.507 1104.22H941.406V1104.72C941.406 1173.67 885.324 1229.75 816.382 1229.75C747.442 1229.75 691.533 1173.69 691.533 1104.8L691.533 1104.8L691.334 816.39C691.334 747.473 747.391 691.391 816.308 691.366C885.4 691.391 941.58 747.376 941.58 816.165V816.166C941.63 859.817 958.556 901.217 989.254 932.765L989.592 932.436L989.254 932.765C1020.3 964.664 1061.41 982.244 1104.99 982.244H1105.49V981.744V944.356V943.856H1104.99C1037.28 943.856 980.018 885.342 979.968 816.041C980.018 747.274 1036 691.316 1104.77 691.316C1173.53 691.316 1229.79 747.399 1229.79 816.34L1229.99 1104.75C1229.99 1173.64 1173.91 1229.7 1104.97 1229.7H1104.47V1229.75Z" fill="white" stroke="#121710"/>
<path d="M1250.63 1105.22C1250.63 1184.68 1315.04 1249.09 1394.5 1249.09L1682.21 1248.89C1761.67 1248.89 1826.08 1184.48 1826.08 1105.02" stroke="#121710" stroke-width="15" stroke-miterlimit="10"/>
<path d="M1394.5 961.255C1315.04 961.255 1250.63 1025.66 1250.63 1105.12" stroke="#121710" stroke-width="15" stroke-miterlimit="10"/>
<path d="M1538.37 1105.12C1538.37 1025.66 1473.96 961.255 1394.5 961.255" stroke="#121710" stroke-width="15" stroke-miterlimit="10"/>
<path d="M1826.08 1105C1826.08 1025.54 1761.67 961.129 1682.21 961.129" stroke="#121710" stroke-width="15" stroke-miterlimit="10"/>
<path d="M1826.08 816.887C1826.08 737.426 1761.67 673.019 1682.21 673.019L1394.5 673.218C1315.04 673.218 1250.63 737.625 1250.63 817.087" stroke="#121710" stroke-width="15" stroke-miterlimit="10"/>
<path d="M1682.21 960.831C1761.67 960.831 1826.08 896.425 1826.08 816.963" stroke="#121710" stroke-width="15" stroke-miterlimit="10"/>
<path d="M1538.37 816.987C1538.37 896.449 1602.77 960.856 1682.24 960.856" stroke="#121710" stroke-width="15" stroke-miterlimit="10"/>
<path d="M1250.63 817.086C1250.63 896.548 1315.04 960.955 1394.5 960.955" stroke="#121710" stroke-width="15" stroke-miterlimit="10"/>
<path d="M1520.15 1105.3V1105.8H1520.65H1558.03H1558.53V1105.3C1558.53 1015.34 1485.38 942.135 1395.47 942.135C1326.73 942.135 1270.8 886.128 1270.8 817.261C1270.8 748.395 1326.73 692.587 1395.47 692.587L1395.47 692.587L1683.18 692.387C1751.92 692.387 1807.86 748.32 1807.86 817.161C1807.86 886.003 1751.93 941.836 1683.18 941.836C1614.44 941.836 1558.51 885.903 1558.51 817.161V816.661H1558.01H1520.62H1520.12V817.161C1520.12 906.902 1593.01 979.952 1682.68 980.223V980.523H1683.18C1751.93 980.523 1807.86 1036.46 1807.86 1105.2C1807.86 1173.94 1751.93 1229.87 1683.18 1229.87L1395.47 1230.07C1326.73 1230.07 1270.8 1174.14 1270.8 1105.3C1270.8 1036.46 1326.73 980.523 1395.47 980.523C1464.21 980.523 1520.15 1036.51 1520.15 1105.3Z" fill="white" stroke="#121710"/>
</g>
<defs>
<filter id="filter0_d_1115_932" x="-13.5" y="563.5" width="1947.08" height="793.091" filterUnits="userSpaceOnUse" color-interpolation-filters="sRGB">
<feFlood flood-opacity="0" result="BackgroundImageFix"/>
<feColorMatrix in="SourceAlpha" type="matrix" values="0 0 0 0 0 0 0 0 0 0 0 0 0 0 0 0 0 0 127 0" result="hardAlpha"/>
<feOffset/>
<feGaussianBlur stdDeviation="50"/>
<feComposite in2="hardAlpha" operator="out"/>
<feColorMatrix type="matrix" values="0 0 0 0 0.717647 0 0 0 0 0.588235 0 0 0 0 1 0 0 0 1 0"/>
<feBlend mode="normal" in2="BackgroundImageFix" result="effect1_dropShadow_1115_932"/>
<feBlend mode="normal" in="SourceGraphic" in2="effect1_dropShadow_1115_932" result="shape"/>
</filter>
<clipPath id="clip0_1115_932">
<rect width="1920" height="1080" fill="white" transform="translate(0 420)"/>
</clipPath>
</defs>
</svg>
