<svg width="139" height="132" viewBox="0 0 139 132" fill="none" xmlns="http://www.w3.org/2000/svg">
<path d="M49 7H90V13H104V21H111V28H118V34H125V49H132V90H125V104H118V110H21V104H14V90H7V49H14V34H21V27H27V20H35V13H49V7ZM41 27V34H35V42H41V49H48V48H49V42H56V34H49V27H41ZM90 34V41H83V49H90V55H97V48H104V42H97V34H90ZM55 53V54H54V62H56V64H63V63H64V62H65V61H66V60H65V55H63V54H62V53H55Z" fill="#440C68"/>
<path d="M21 110H118H125V132H14V110H21ZM48 118V125H97V118H48Z" fill="#532C23"/>
<path d="M0 49H7V90H14V104H21V110H14V132V109V106H6V90H0V49Z" fill="#DE4CCA"/>
<path d="M48 118H97V125H48V118Z" fill="#0C0301"/>
<path d="M49 0H90V7H49V0Z" fill="#E03CCA"/>
<path d="M41 27H49V34H56V42H49V48V49H48H41V42H35V34H41V27Z" fill="#440C68"/>
<path d="M90 34H97V41H104V48H97V55H90V48H83V41H90V34Z" fill="#DF3BCC"/>
<path d="M104 13H111V20H118H119V21V26H127V30V33H128H130H132H133V48H132V35H126V34H118V28H111V21H104V13Z" fill="#E059CE"/>
<path d="M26 13H28H35V20H27V27H21V34H7V33H13V30V26H19V18H24H25V17V13H26Z" fill="#E87DDB"/>
<path d="M55 53H62V54H63V55H65V60H66V61H65V62H64V63H63V64H56V62H54V54H55V53Z" fill="#440C68"/>
<path d="M7 34H14V49H7V34Z" fill="#DA42C8"/>
<path d="M125 34H126V35H132V49H125V34Z" fill="#D83EC6"/>
<path d="M125 90H132V104H125V90Z" fill="#DE40C9"/>
<path d="M90 7H104V13H90V7Z" fill="#DF42CA"/>
<path d="M35 7H49V13H35V7Z" fill="#DF42CB"/>
<rect x="83" y="48" width="7" height="1" fill="#440C68"/>
<rect x="40" y="27" width="7" height="7" fill="#DF42CB"/>
<rect x="40" y="41" width="7" height="7" fill="#DF42CB"/>
<rect x="76" y="20" width="7" height="7" fill="#DF42CB"/>
<rect x="54" y="63" width="7" height="7" fill="#DF42CB"/>
<rect x="47" y="34" width="7" height="7" fill="#DF42CB"/>
<rect x="33" y="34" width="7" height="7" fill="#DF42CB"/>
<rect x="132" y="48" width="7" height="42" fill="#DF3BCC"/>
<rect x="118" y="104" width="7" height="6" fill="#DF42CB"/>
</svg>
