<svg width="117" height="118" viewBox="0 0 117 118" fill="none" xmlns="http://www.w3.org/2000/svg">
<path d="M12 6H116V85H12V6Z" fill="#8C9213"/>
<path d="M0 0H117V118H0V0ZM7 6V85H111V6H7Z" fill="#CEC1A8"/>
<path d="M65 98H85V111H65V98Z" fill="#4D4BDF"/>
<path d="M91 98H111V111H91V98Z" fill="#E33F35"/>
<path d="M13 92H20V98H26V105H20V111H13V105H6V98H13V92Z" fill="#A19375"/>
<path d="M39 98H46V104H52V98H59V105H52V111H45V105H40V111H32V104H39V98Z" fill="#A5967A"/>
<rect x="7" y="6" width="5" height="79" fill="#887C20"/>
<rect x="7" y="6" width="104" height="6" fill="#887C20"/>
<path d="M55 28H85V34H55V28Z" fill="#887C20"/>
<path d="M67 21H74V39H67V21Z" fill="#887C20"/>
<path d="M61 30H67V46H61V30Z" fill="#887C20"/>
<path d="M74 30H80V46H74V30Z" fill="#887C20"/>
<rect x="36" y="39" width="9" height="7" fill="#887C20"/>
</svg>
