<svg width="30" height="30" viewBox="0 0 30 30" fill="none" xmlns="http://www.w3.org/2000/svg">
<path d="M27 0H3C1.34315 0 0 1.34315 0 3V27C0 28.6569 1.34315 30 3 30H27C28.6569 30 30 28.6569 30 27V3C30 1.34315 28.6569 0 27 0Z" fill="white"/>
<path fill-rule="evenodd" clip-rule="evenodd" d="M6.2484 0H23.7504C27.2028 0 30 3.0096 30 6.7224V23.2776C30 26.9904 27.2028 30 23.7516 30H6.2484C2.7972 30 0 26.9904 0 23.2776V6.7224C0 3.0096 2.7972 0 6.2484 0Z" fill="white"/>
<path fill-rule="evenodd" clip-rule="evenodd" d="M15.0005 4.34473C20.8853 4.34473 25.6553 9.11473 25.6553 14.9995C25.6553 20.8843 20.8853 25.6543 15.0005 25.6543C9.1157 25.6543 4.3457 20.8843 4.3457 14.9995C4.3457 9.11473 9.1157 4.34473 15.0005 4.34473Z" fill="black"/>
<path fill-rule="evenodd" clip-rule="evenodd" d="M12.375 11.5947H17.6225C18.0545 11.5947 18.4037 11.9715 18.4037 12.4347V17.5647C18.4037 18.0291 18.0533 18.4047 17.6225 18.4047H12.375C11.943 18.4047 11.5938 18.0279 11.5938 17.5647V12.4347C11.5938 11.9715 11.9442 11.5947 12.375 11.5947Z" fill="white"/>
</svg>
