<svg width="26" height="25" viewBox="0 0 26 25" fill="none" xmlns="http://www.w3.org/2000/svg">
<rect x="0.368164" width="24.9636" height="24.9636" rx="7.86125" fill="white"/>
<path d="M17.4012 8.38999C18.8722 10.568 19.5986 13.0248 19.3271 15.8531C19.3259 15.865 19.3197 15.876 19.31 15.8832C18.196 16.707 17.1168 17.2069 16.0527 17.5384C16.0444 17.5409 16.0355 17.5408 16.0273 17.538C16.0191 17.5352 16.012 17.5299 16.007 17.5228C15.7611 17.1783 15.5377 16.8152 15.3421 16.4338C15.3308 16.4113 15.3411 16.3843 15.3642 16.3754C15.7189 16.2408 16.0563 16.0795 16.3808 15.8885C16.4063 15.8734 16.4079 15.8365 16.3843 15.8188C16.3155 15.7673 16.2473 15.7132 16.182 15.6591C16.1698 15.6491 16.1533 15.6471 16.1395 15.6538C14.0329 16.6335 11.7253 16.6335 9.59387 15.6538C9.58003 15.6476 9.56359 15.6497 9.5517 15.6596C9.48658 15.7137 9.4182 15.7673 9.34999 15.8188C9.32638 15.8365 9.32833 15.8734 9.35406 15.8885C9.67853 16.0759 10.0159 16.2408 10.3701 16.3761C10.3931 16.3849 10.404 16.4113 10.3926 16.4338C10.2011 16.8157 9.97777 17.1788 9.72737 17.5233C9.71646 17.5372 9.69855 17.5436 9.68162 17.5384C8.62257 17.2069 7.54333 16.707 6.42941 15.8832C6.42013 15.876 6.41346 15.8645 6.41248 15.8526C6.18553 13.4061 6.64806 10.9291 8.33652 8.3895C8.34059 8.38278 8.34678 8.37753 8.35394 8.37442C9.18474 7.99043 10.0748 7.70792 11.0051 7.54659C11.022 7.54397 11.0389 7.55184 11.0477 7.56692C11.1627 7.77187 11.2941 8.03469 11.3829 8.24948C12.3635 8.09864 13.3594 8.09864 14.3605 8.24948C14.4494 8.03928 14.5762 7.77187 14.6907 7.56692C14.6947 7.55944 14.7011 7.55344 14.7087 7.54979C14.7164 7.54614 14.725 7.54502 14.7333 7.54659C15.6641 7.70842 16.5541 7.99092 17.3843 8.37442C17.3916 8.37753 17.3976 8.38278 17.4012 8.38999ZM11.8815 13.0415C11.8917 12.3183 11.3681 11.7198 10.7109 11.7198C10.059 11.7198 9.54047 12.313 9.54047 13.0415C9.54047 13.7698 10.0693 14.363 10.7109 14.363C11.3629 14.363 11.8815 13.7698 11.8815 13.0415ZM16.2092 13.0415C16.2194 12.3183 15.6958 11.7198 15.0387 11.7198C14.3867 11.7198 13.8682 12.313 13.8682 13.0415C13.8682 13.7698 14.397 14.363 15.0387 14.363C15.6958 14.363 16.2092 13.7698 16.2092 13.0415Z" fill="black"/>
</svg>
