<svg width="279" height="33" viewBox="0 0 279 33" fill="none" xmlns="http://www.w3.org/2000/svg">
<path fill-rule="evenodd" clip-rule="evenodd" d="M37.3028 2.17676H21.0206H14.1212H14.1208V9.07616H14.1212V11.5845H0.000375748V16.7606H14.1212V32.2582H21.0206V9.07616H37.3028V25.3588H21.0212V32.2582H44.2032V25.3588H44.2022V16.7606H49.17V25.3588H49.1699V32.2582H72.3458V25.3588H56.0694V2.17676H49.17V11.5845H44.2022V2.17676H37.3028ZM79.252 2.17676H79.251H72.3516H56.07V9.07616H72.3516V32.2582H79.251V9.07616H79.252V2.17676ZM5.17584 27.1771H-0.000244141V16.8648H5.17584V27.1771Z" fill="url(#paint0_linear_282_3908)"/>
<path d="M226.515 12.9336C228.849 12.9336 230.778 13.553 232.299 14.7918C233.838 16.0307 234.831 17.7018 235.282 19.8115H230.587C230.241 18.956 229.704 18.2875 228.981 17.7969C228.272 17.3093 227.423 17.064 226.439 17.064C225.142 17.064 224.096 17.5424 223.299 18.5022C222.501 19.462 222.106 20.7437 222.106 22.3474C222.106 23.9512 222.504 25.2329 223.299 26.1927C224.093 27.1341 225.142 27.6063 226.439 27.6063C227.423 27.6063 228.272 27.361 228.981 26.8735C229.707 26.3859 230.244 25.7236 230.587 24.8864H235.282C234.831 26.9777 233.838 28.652 232.299 29.9061C230.778 31.145 228.849 31.7644 226.515 31.7644C224.734 31.7644 223.17 31.3719 221.821 30.5869C220.471 29.7835 219.426 28.6704 218.681 27.2384C217.954 25.8094 217.592 24.1781 217.592 22.3474C217.592 20.5168 217.954 18.8855 218.681 17.4565C219.426 16.0276 220.471 14.9206 221.821 14.1356C223.17 13.3322 224.734 12.9336 226.515 12.9336Z" fill="white"/>
<path d="M242.203 12.2529V31.605H237.766V12.2529H242.203Z" fill="white"/>
<path d="M259.662 17.0127V31.6057H255.201V28.9655C254.787 29.8211 254.164 30.4987 253.333 31.0047C252.521 31.5106 251.57 31.7621 250.478 31.7621C248.819 31.7621 247.495 31.204 246.51 30.0878C245.541 28.9717 245.057 27.4385 245.057 25.4852V17.0127H249.466V24.9363C249.466 25.9298 249.718 26.7056 250.218 27.2637C250.736 27.8034 251.429 28.0732 252.294 28.0732C253.158 28.0732 253.903 27.785 254.422 27.2115C254.94 26.6351 255.201 25.8163 255.201 24.7523V17.0127H259.662Z" fill="white"/>
<path d="M271.748 16.8283C272.941 16.8283 274.005 17.1349 274.94 17.7421C275.891 18.3339 276.636 19.1986 277.172 20.3301C277.724 21.4463 278.003 22.771 278.003 24.3042C278.003 25.8374 277.727 27.1467 277.172 28.2782C276.636 29.4128 275.894 30.2836 274.94 30.8939C274.005 31.4857 272.944 31.7831 271.748 31.7831C270.641 31.7831 269.69 31.5317 268.893 31.0257C268.099 30.5198 267.519 29.8329 267.154 28.959V31.5991H262.717V12.2471H267.154V19.6463C267.516 18.7754 268.096 18.0855 268.893 17.5795C269.687 17.0736 270.641 16.8221 271.748 16.8221V16.8283ZM270.322 20.7502C269.387 20.7502 268.617 21.0722 268.013 21.7192C267.424 22.3478 267.13 23.2095 267.13 24.3072C267.13 25.405 267.424 26.2513 268.013 26.8953C268.617 27.5392 269.387 27.8643 270.322 27.8643C271.257 27.8643 272.033 27.5515 272.603 26.9229C273.192 26.2943 273.486 25.4234 273.486 24.3072C273.486 23.1911 273.192 22.3202 272.603 21.6916C272.033 21.063 271.273 20.7502 270.322 20.7502Z" fill="white"/>
<path d="M102.495 27.0883C100.762 23.2492 99.6214 20.5906 99.0694 19.1157V27.1312C99.0694 28.8576 99.0817 30.0382 99.1093 30.6791C98.3672 30.9029 97.5546 31.0133 96.6746 31.0133C96.3986 31.0133 95.9877 30.9857 95.4357 30.9305C94.8317 30.8753 94.3901 30.8477 94.1141 30.8477L92.0934 30.7649V27.6341C92.0934 25.8525 92.0658 23.3197 92.0106 20.0386C91.983 18.3981 91.9707 15.9051 91.9707 12.5658C91.9707 8.08581 92.0934 4.32947 92.3417 1.2968C93.0838 1.10055 93.9087 1.00549 94.8163 1.00549C95.4204 1.00549 96.1502 1.06068 97.0027 1.17107C97.8827 1.28146 98.4868 1.45012 98.818 1.6709C99.2043 2.39457 99.6704 3.40955 100.222 4.7189C100.799 5.99759 101.351 7.27935 101.872 8.55804L103.522 12.3972C103.467 10.45 103.439 8.15327 103.439 5.51003C103.439 3.36662 103.451 1.89168 103.479 1.08521C104.607 0.861367 105.803 0.750977 107.07 0.750977C108.143 0.750977 109.256 0.876699 110.412 1.12814V30.722C110.329 30.722 110.164 30.7649 109.918 30.8477C109.642 30.9581 109.161 31.0133 108.474 31.0133C108.336 31.0409 107.606 30.998 106.288 30.8876C105.957 30.86 105.53 30.8324 105.009 30.8048C104.515 30.7772 104.224 30.7772 104.141 30.8048L102.492 27.0914L102.495 27.0883Z" fill="white"/>
<path d="M119.66 8.93164C119.798 8.95924 120.292 8.97457 121.144 8.97457C121.31 8.94697 121.653 8.93164 122.175 8.93164C122.506 8.93164 122.739 8.94697 122.877 8.97457C123.84 9.02977 124.747 9.22602 125.6 9.56025C126.48 9.86689 127.182 10.2839 127.703 10.8113C128.501 11.4522 129.025 12.4519 129.27 13.8164C129.519 15.181 129.641 16.7663 129.641 18.5755V19.9523C129.558 22.3165 129.42 24.3066 129.227 25.9226C129.034 27.5355 128.706 28.621 128.237 29.1791C127.688 29.958 126.888 30.5007 125.845 30.8074C124.827 31.114 123.631 31.2673 122.254 31.2673C121.733 31.2673 121.003 31.2397 120.068 31.1845C119.188 31.1293 118.513 31.1017 118.047 31.1017C116.591 30.8227 115.309 30.1971 114.211 29.222C113.359 28.388 112.767 27.3423 112.436 26.0912C112.105 24.8125 111.942 23.3775 111.942 21.7921L111.902 17.0331C111.819 16.2818 111.902 15.1963 112.151 13.7766C112.426 12.3568 112.699 11.5503 112.975 11.3541C113.279 10.5752 114.061 9.97728 115.327 9.56025C116.621 9.14322 118.066 8.93471 119.66 8.93471V8.93164ZM118.792 17.3642C118.765 17.6433 118.737 18.0327 118.71 18.5325C118.682 19.0048 118.67 19.3666 118.67 19.6181L118.63 20.4521C118.63 21.1482 118.602 21.9117 118.547 22.7488C118.575 23.3621 118.808 23.862 119.249 24.2514C119.691 24.6408 120.184 24.8371 120.733 24.8371C121.282 24.8371 121.834 24.7113 122.383 24.4599C122.549 24.3771 122.754 23.9171 123.003 23.0831L123.042 22.8746C123.208 21.4824 123.291 20.4674 123.291 19.8266C123.291 19.1857 123.236 18.5601 123.125 18.0327C122.987 17.3091 122.711 16.7387 122.3 16.3217C121.914 15.9046 121.42 15.6961 120.816 15.6961C120.706 15.6961 120.485 15.7237 120.157 15.7789C119.47 16.0028 119.071 16.3063 118.961 16.6958L118.795 17.3642H118.792Z" fill="white"/>
<path d="M141.003 29.0935L140.92 29.1364H140.96C140.301 29.581 139.544 29.9429 138.691 30.2219C137.839 30.4733 136.971 30.596 136.091 30.596C134.276 30.596 132.871 30.1514 131.881 29.2591C131.111 28.563 130.725 26.2662 130.725 22.3719C130.725 21.2312 130.752 19.4926 130.807 17.1529C130.863 15.1505 130.89 13.7155 130.89 12.8538C130.89 11.9063 130.863 10.8514 130.807 9.68008C132.264 9.45623 133.751 9.37344 135.263 9.42863H137.201C137.256 10.2627 137.284 11.8787 137.284 14.2705C137.284 15.8282 137.311 17.2204 137.366 18.4439C137.394 18.8057 137.406 19.2779 137.406 19.8636C137.517 21.728 137.848 22.8963 138.397 23.3685C138.618 23.4789 138.918 23.5341 139.304 23.5341C139.798 23.5341 140.227 23.3532 140.583 22.9913C140.969 22.6295 141.187 22.0315 141.242 21.1975C141.298 20.4186 141.325 19.8483 141.325 19.4864C141.325 18.5389 141.285 17.5669 141.203 16.5642C141.175 16.2299 141.147 15.7424 141.12 15.1045C141.092 14.4361 141.08 13.8535 141.08 13.3506C141.08 11.9032 141.147 10.7073 141.285 9.7598C142 9.56355 142.579 9.45316 143.018 9.42557C143.459 9.37037 143.953 9.35504 144.502 9.38264C144.75 9.41023 145.177 9.42557 145.781 9.42557C146.385 9.42557 147.032 9.39797 147.639 9.34277C147.639 12.6821 147.651 15.1597 147.679 16.7727C147.734 20.391 147.762 23.1324 147.762 24.9968C147.762 26.3337 147.734 28.2533 147.679 30.7555L146.688 30.7125C146.112 30.7125 145.575 30.7279 145.078 30.7555C144.254 30.8383 143.401 30.8812 142.521 30.8812C141.558 30.8812 141.077 30.7831 141.077 30.5899C141.022 30.228 140.994 29.7405 140.994 29.1303V29.0873L141.003 29.0935Z" fill="white"/>
<path d="M156.197 11.2291C156.215 11.2291 156.215 11.2291 156.197 11.2291C156.197 11.2015 156.209 11.1862 156.237 11.1862C156.896 10.7416 157.653 10.392 158.506 10.1436C159.386 9.86457 160.254 9.72658 161.106 9.72658C162.921 9.72658 164.326 10.1712 165.316 11.0635C166.086 11.7596 166.472 14.0563 166.472 17.9507C166.472 19.0914 166.445 20.83 166.389 23.1697C166.334 25.172 166.307 26.6071 166.307 27.4688C166.307 28.4163 166.334 29.4711 166.389 30.6425C164.878 30.8664 163.39 30.9492 161.934 30.894H159.996C159.941 30.0599 159.913 28.4439 159.913 26.0521V23.9639C159.913 22.5993 159.886 21.612 159.83 21.0017L159.791 20.7503V20.459C159.735 19.6801 159.668 19.0668 159.585 18.6222C159.53 18.1776 159.352 17.7606 159.048 17.3711C158.772 16.9817 158.334 16.7854 157.727 16.7854C157.285 16.7854 156.887 16.9817 156.531 17.3711C156.172 17.7606 155.982 18.3462 155.954 19.1251C155.927 19.5421 155.915 20.183 155.915 21.0447C155.915 21.7407 155.942 22.7557 155.997 24.0927C156.053 25.4848 156.08 26.5274 156.08 27.2235C156.08 28.4746 156.025 29.5877 155.915 30.5628C155.173 30.759 154.565 30.8694 154.099 30.897C153.658 30.9522 153.164 30.9675 152.615 30.94C152.367 30.9124 151.968 30.897 151.419 30.897C150.788 30.897 150.168 30.9246 149.564 30.9798C149.564 27.6405 149.552 25.1629 149.524 23.5499C149.469 19.9316 149.441 17.1902 149.441 15.3258C149.441 13.9613 149.469 12.0294 149.524 9.5242C150.404 9.63459 151.091 9.68978 151.588 9.68978C152.054 9.68978 152.511 9.66219 152.949 9.60699L153.652 9.5242C154.256 9.469 154.725 9.44141 155.056 9.44141C155.715 9.44141 156.074 9.53953 156.129 9.73271C156.184 10.067 156.212 10.5545 156.212 11.1923V11.2353L156.197 11.2291Z" fill="white"/>
<path d="M174.856 0.416738C174.856 1.16801 174.868 1.79355 174.896 2.29644C174.896 2.57549 174.923 3.07531 174.978 3.79898L175.061 6.46982C174.923 6.6354 174.702 6.72126 174.402 6.72126C174.209 6.72126 173.948 6.70593 173.617 6.67833C173.286 6.62314 173.013 6.59554 172.792 6.59554C172.461 6.59554 171.94 6.56794 171.225 6.51274C170.949 6.48515 170.483 6.46982 169.821 6.46982C169.106 6.46982 168.554 6.48515 168.171 6.51274C168.171 5.92706 168.143 5.16353 168.088 4.21601L168.048 3.54753C167.993 2.32404 167.981 1.23853 168.009 0.291016L174.859 0.416738H174.856ZM175.021 9.60061C175.021 11.048 174.994 13.1638 174.939 15.945L174.899 18.2816C174.844 20.842 174.816 22.7616 174.816 24.0403C174.816 26.4321 174.871 28.5356 174.982 30.3418C174.844 30.538 174.555 30.6607 174.114 30.7189C173.7 30.8017 173.123 30.8446 172.381 30.8446C171.529 30.8446 170.937 30.8293 170.606 30.8017C169.533 30.7465 168.625 30.8293 167.883 31.0532C168.021 29.1888 168.088 27.3091 168.088 25.4171C168.088 24.2488 168.061 22.5224 168.005 20.241C167.95 18.3491 167.923 16.7055 167.923 15.3164C167.923 13.2558 168.005 11.2687 168.171 9.3461C168.557 9.2909 168.886 9.26331 169.161 9.26331C169.41 9.26331 169.603 9.27864 169.738 9.30624C171.443 9.38903 172.777 9.41663 173.74 9.38903L175.018 9.59755L175.021 9.60061Z" fill="white"/>
<path d="M193.671 16.571C192.984 16.6814 192.214 16.7366 191.359 16.7366C190.065 16.7366 188.664 16.5832 187.149 16.2766C187.176 16.1662 187.189 15.9853 187.189 15.7338C187.189 15.1482 187.011 14.6637 186.652 14.2742C186.293 13.8848 185.772 13.7161 185.085 13.7744C184.671 13.9124 184.328 14.1485 184.055 14.4827C183.806 14.7894 183.684 15.1359 183.684 15.5253C183.684 15.97 183.806 16.387 184.055 16.7764C184.303 17.1658 184.659 17.4572 185.128 17.6534H185.088C187.152 17.96 188.817 18.3219 190.08 18.7389C191.347 19.1559 192.31 19.7968 192.969 20.6585C193.711 21.882 194.082 23.1085 194.082 24.332C194.082 25.2489 193.861 26.3344 193.423 27.5885C192.791 28.9255 191.758 29.9129 190.329 30.5507C188.927 31.1916 187.302 31.4982 185.459 31.4675C182.46 31.5779 180.053 30.9677 178.238 29.6308C176.45 28.2938 175.555 26.3896 175.555 23.9119C176.656 23.7739 177.784 23.7034 178.937 23.7034L182.899 23.7862C182.926 24.4547 183.187 25.0097 183.684 25.4574C184.177 25.8744 184.729 26.0829 185.333 26.0829C185.775 26.0829 186.158 25.9174 186.489 25.5831C186.821 25.2213 186.971 24.7491 186.943 24.1634C187.026 23.4397 186.805 22.9399 186.284 22.6608C185.763 22.3542 184.978 22.0905 183.932 21.8666L183.313 21.7409C182.184 21.4895 181.332 21.2411 180.755 20.9897C179.244 20.404 178.06 19.5699 177.207 18.4844C176.383 17.3713 175.969 16.2153 175.969 15.0194C175.969 13.7407 176.395 12.5417 177.247 11.4286C178.1 10.3155 179.256 9.54891 180.712 9.13187C181.703 8.85283 183.147 8.71484 185.045 8.71484C187.054 8.71484 188.869 8.91109 190.491 9.30053C191.813 9.85555 192.776 10.7601 193.38 12.0143C194.011 13.2378 194.327 14.6851 194.327 16.3563L193.668 16.5648L193.671 16.571Z" fill="white"/>
<path d="M201.809 11.2289C201.828 11.2289 201.828 11.2289 201.809 11.2289C201.809 11.2013 201.822 11.186 201.849 11.186C202.509 10.7413 203.266 10.3918 204.118 10.1434C204.998 9.86434 205.866 9.72635 206.719 9.72635C208.534 9.72635 209.938 10.171 210.926 11.0633C211.696 11.7594 212.082 14.0561 212.082 17.9504C212.082 19.0911 212.054 20.8298 211.999 23.1695C211.944 25.1718 211.916 26.6069 211.916 27.4686C211.916 28.4161 211.944 29.4709 211.999 30.6423C210.487 30.8661 209 30.9489 207.544 30.8937H205.606C205.55 30.0597 205.523 28.4437 205.523 26.0519V23.9637L205.483 21.0015C205.455 20.8359 205.443 20.5569 205.443 20.1675C205.416 19.3334 205.333 18.6925 205.195 18.2479C205.084 17.8033 204.974 17.5242 204.864 17.4138C204.781 17.3034 204.643 17.1624 204.45 16.9968C204.229 16.8588 203.913 16.7883 203.502 16.7883C203.008 16.7883 202.567 16.9692 202.18 17.331C201.794 17.6929 201.589 18.2908 201.561 19.1249C201.533 19.5419 201.521 20.1828 201.521 21.0444C201.521 21.7405 201.549 22.7555 201.604 24.0924C201.659 25.4846 201.687 26.5272 201.687 27.2232C201.687 28.4743 201.632 29.5874 201.521 30.5626C200.779 30.7588 200.172 30.8692 199.706 30.8968C199.264 30.952 198.771 30.9673 198.222 30.9397C197.973 30.9121 197.575 30.8968 197.026 30.8968C196.394 30.8968 195.775 30.9244 195.168 30.9796V27.6403L195.128 22.7984C195.1 20.5722 195.088 16.5522 195.088 10.7352C195.088 5.42112 195.115 1.88556 195.171 0.131582C196.051 0.241972 196.738 0.297168 197.234 0.297168C197.7 0.297168 198.157 0.26957 198.596 0.214375L199.298 0.131582C200.206 0.048789 200.687 0.00585938 200.742 0.00585938C201.402 0.00585938 201.745 0.131582 201.773 0.383027C201.828 1.16189 201.855 2.69203 201.855 4.97343L201.816 8.7727V11.235L201.809 11.2289Z" fill="white"/>
<defs>
<linearGradient id="paint0_linear_282_3908" x1="-0.000243933" y1="17.8364" x2="79.2476" y2="16.8163" gradientUnits="userSpaceOnUse">
<stop stop-color="#9C4F96"/>
<stop offset="0.171875" stop-color="#FF6355"/>
<stop offset="0.34375" stop-color="#FBA949"/>
<stop offset="0.494792" stop-color="#FAE442"/>
<stop offset="0.697917" stop-color="#8BD448"/>
<stop offset="1" stop-color="#2AA8F2"/>
</linearGradient>
</defs>
</svg>
