<svg width="34" height="32" viewBox="0 0 34 32" fill="none" xmlns="http://www.w3.org/2000/svg">
<path d="M31.748 1L19.1211 10.3782L21.4561 4.84518L31.748 1Z" fill="#E2761B" stroke="#E2761B" stroke-linecap="round" stroke-linejoin="round"/>
<path d="M2.59811 1L15.1235 10.467L12.9027 4.84518L2.59811 1ZM27.2047 22.7386L23.8418 27.8909L31.0372 29.8706L33.1057 22.8528L27.2047 22.7386ZM1.26562 22.8528L3.32146 29.8706L10.5169 27.8909L7.15395 22.7386L1.26562 22.8528Z" fill="#E4761B" stroke="#E4761B" stroke-linecap="round" stroke-linejoin="round"/>
<path d="M10.1105 14.0334L8.10547 17.0664L15.2501 17.3837L14.9963 9.70602L10.1105 14.0334ZM24.2349 14.0334L19.2857 9.61719L19.1207 17.3837L26.2527 17.0664L24.2349 14.0334ZM10.5166 27.8913L14.806 25.7974L11.1004 22.904L10.5166 27.8913ZM19.5395 25.7974L23.8415 27.8913L23.2451 22.904L19.5395 25.7974Z" fill="#E4761B" stroke="#E4761B" stroke-linecap="round" stroke-linejoin="round"/>
<path d="M23.8425 27.8908L19.5404 25.7969L19.8831 28.6014L19.845 29.7816L23.8425 27.8908ZM10.5176 27.8908L14.515 29.7816L14.4897 28.6014L14.8069 25.7969L10.5176 27.8908Z" fill="#D7C1B3" stroke="#D7C1B3" stroke-linecap="round" stroke-linejoin="round"/>
<path d="M14.5787 21.0509L11 19.9976L13.5254 18.8428L14.5787 21.0509ZM19.769 21.0509L20.8223 18.8428L23.3604 19.9976L19.769 21.0509Z" fill="#233447" stroke="#233447" stroke-linecap="round" stroke-linejoin="round"/>
<path d="M10.5174 27.8913L11.1265 22.739L7.15442 22.8532L10.5174 27.8913ZM23.2331 22.739L23.8422 27.8913L27.2052 22.8532L23.2331 22.739ZM26.2534 17.0664L19.1214 17.3837L19.7813 21.0512L20.8346 18.8431L23.3727 19.9979L26.2534 17.0664ZM10.9996 19.9979L13.5377 18.8431L14.5783 21.0512L15.2509 17.3837L8.1062 17.0664L10.9996 19.9979Z" fill="#CD6116" stroke="#CD6116" stroke-linecap="round" stroke-linejoin="round"/>
<path d="M8.10547 17.0664L11.1004 22.904L10.9989 19.9979L8.10547 17.0664ZM23.372 19.9979L23.2451 22.904L26.2527 17.0664L23.372 19.9979ZM15.2501 17.3837L14.5775 21.0512L15.4151 25.3786L15.6055 19.6806L15.2501 17.3837ZM19.1207 17.3837L18.7781 19.6679L18.9303 25.3786L19.7806 21.0512L19.1207 17.3837Z" fill="#E4751F" stroke="#E4751F" stroke-linecap="round" stroke-linejoin="round"/>
<path d="M19.7817 21.0513L18.9315 25.3788L19.5406 25.7975L23.2462 22.9041L23.3731 19.998L19.7817 21.0513ZM11 19.998L11.1015 22.9041L14.8071 25.7975L15.4162 25.3788L14.5787 21.0513L11 19.998Z" fill="#F6851B" stroke="#F6851B" stroke-linecap="round" stroke-linejoin="round"/>
<path d="M19.845 29.7815L19.8831 28.6013L19.5658 28.3221H14.7815L14.4897 28.6013L14.515 29.7815L10.5176 27.8906L11.9135 29.0328L14.7435 30.9998H19.6039L22.4465 29.0328L23.8425 27.8906L19.845 29.7815Z" fill="#C0AD9E" stroke="#C0AD9E" stroke-linecap="round" stroke-linejoin="round"/>
<path d="M19.541 25.7967L18.9319 25.3779H15.4166L14.8075 25.7967L14.4902 28.6013L14.7821 28.3221H19.5664L19.8836 28.6013L19.541 25.7967Z" fill="#161616" stroke="#161616" stroke-linecap="round" stroke-linejoin="round"/>
<path d="M32.2817 10.9873L33.3604 5.80964L31.7487 1L19.5406 10.0609L24.236 14.033L30.8731 15.9746L32.3452 14.2614L31.7107 13.8046L32.7259 12.8782L31.9391 12.269L32.9543 11.4949L32.2817 10.9873ZM1 5.80964L2.07868 10.9873L1.3934 11.4949L2.40863 12.269L1.63452 12.8782L2.64975 13.8046L2.01523 14.2614L3.47462 15.9746L10.1117 14.033L14.8071 10.0609L2.59898 1L1 5.80964Z" fill="#763D16" stroke="#763D16" stroke-linecap="round" stroke-linejoin="round"/>
<path d="M30.8722 15.9751L24.2352 14.0335L26.2529 17.0665L23.2453 22.9041L27.2047 22.8533H33.1057L30.8722 15.9751ZM10.1108 14.0335L3.47375 15.9751L1.26562 22.8533H7.15395L11.1006 22.9041L8.10573 17.0665L10.1108 14.0335ZM19.121 17.3838L19.5397 10.0614L21.4687 4.8457H12.9027L14.8062 10.0614L15.2504 17.3838L15.4027 19.6934L15.4154 25.3787H18.9306L18.956 19.6934L19.121 17.3838Z" fill="#F6851B" stroke="#F6851B" stroke-linecap="round" stroke-linejoin="round"/>
</svg>
