<svg width="20" height="30" viewBox="0 0 20 30" fill="none" xmlns="http://www.w3.org/2000/svg">
<path d="M17.5699 12.6437C15.9772 10.7225 13.7276 9.49099 11.2645 9.16258L11.1003 9.14616C10.3286 9.04764 9.55681 9.04764 8.78505 9.14616L8.62085 9.16258C6.1578 9.49099 3.90821 10.7389 2.31543 12.6437L1.92134 13.3005L1.24811 14.4007L0.755497 15.2053C0.755497 15.2217 0.739077 15.2545 0.722656 15.271V15.2874L1.78998 15.9278L8.60443 19.9672L9.91806 20.7389V11.1002L8.60443 11.6913V10.2463L9.91806 9.65519L11.2317 10.2463L17.9312 13.3005L17.5699 12.6437Z" fill="white"/>
<path d="M19.8522 19.6386C19.8358 22.8077 18.4072 25.7962 15.9606 27.7995C15.0246 28.5713 13.9737 29.146 12.8243 29.5401C11.8883 29.852 10.9195 29.9998 9.93432 29.9998C4.44992 29.9998 0 25.123 0 19.6386C0 18.834 0.098522 18.0294 0.295566 17.2412L9.9179 22.9391L19.5402 17.2412C19.7537 18.0294 19.8686 18.834 19.8522 19.6386Z" fill="white"/>
<path d="M8.7853 9.14655L9.93472 9.65559L8.62109 10.2631V9.06445L8.7853 9.14655Z" fill="white"/>
<path d="M8.62109 11.7081L9.93472 11.1006V20.7558L8.62109 19.9676V11.7081Z" fill="white"/>
<path d="M9.93359 11.1006V20.7558L19.1618 15.3042L9.93359 11.1006Z" fill="white"/>
<path d="M9.93359 0V11.1002L19.1618 15.3038L9.93359 0Z" fill="white"/>
<path d="M9.93527 11.1003V20.7391L8.62164 19.9673L0.723452 15.3039C0.723452 15.2875 0.739872 15.2547 0.756293 15.2382L1.90572 13.3171L8.60522 10.2793V11.7079L9.93527 11.1003Z" fill="white"/>
<path d="M9.93448 11.1006V20.7558L8.62085 19.9676L0.722656 15.3042L0.739077 15.2878L8.62085 11.7081L9.93448 11.1006Z" fill="white"/>
<path d="M9.93448 0V11.1002L0.722656 15.3038L9.93448 0Z" fill="white"/>
<path d="M6.20679 29.2119C6.33815 29.2776 6.48593 29.3269 6.6173 29.3761C6.48593 29.3269 6.35457 29.2612 6.20679 29.2119Z" fill="white"/>
<path d="M6.61719 29.376C6.74855 29.4252 6.89633 29.4909 7.04412 29.5238C6.91275 29.4909 6.76497 29.4417 6.61719 29.376Z" fill="white"/>
<path d="M7.42188 29.6387C7.53682 29.6715 7.63534 29.7044 7.75028 29.7208C7.63534 29.7044 7.5204 29.6715 7.42188 29.6387Z" fill="white"/>
<path d="M0.311191 17.2412L9.93352 22.9391C9.80216 23.8094 9.57228 24.6468 9.24387 25.4678C8.47211 27.3397 6.9286 29.3102 3.90725 27.7995C1.46062 25.7962 0.0320454 22.8077 0.015625 19.6386C0.015625 18.834 0.114147 18.0294 0.311191 17.2412Z" fill="white"/>
<path d="M15.9599 27.8001L15.927 27.8165C15.8778 27.8493 15.8285 27.8986 15.7793 27.9314L15.7628 27.9478C15.7136 27.9971 15.6479 28.0299 15.5986 28.0792C15.533 28.1285 15.4837 28.1777 15.418 28.2106C15.3523 28.2434 15.2866 28.2927 15.2374 28.3419C15.1717 28.3912 15.1224 28.4076 15.0732 28.4569L15.0403 28.4733C14.9747 28.5061 14.9254 28.539 14.8761 28.5882C14.8761 28.5882 14.8597 28.5882 14.8597 28.6047C14.794 28.6375 14.7448 28.6703 14.6791 28.7196C14.6134 28.7524 14.5477 28.7853 14.4821 28.8345C14.4164 28.8674 14.3507 28.9002 14.285 28.9331L14.088 29.0316C14.0223 29.0644 13.9566 29.0973 13.8909 29.1301C13.8252 29.163 13.7596 29.1958 13.6939 29.2286C13.5625 29.2943 13.4147 29.3436 13.2834 29.3928C13.152 29.4421 13.0042 29.4914 12.8564 29.5406C12.8072 29.557 12.7415 29.5735 12.6922 29.5899L12.4952 29.6556C12.3802 29.6884 12.2817 29.7212 12.1668 29.7377C12.1339 29.7541 12.0847 29.7541 12.0354 29.7705L11.9697 29.7869L11.7891 29.8198C11.7234 29.8362 11.6906 29.8362 11.6249 29.8526C11.5756 29.869 11.5264 29.869 11.4771 29.8854C11.4279 29.8854 11.3622 29.9019 11.3129 29.9183C11.2801 29.9183 11.2637 29.9183 11.2308 29.9347L11.0995 29.9511H11.0338C10.9845 29.9511 10.9353 29.9676 10.9024 29.9676C10.8532 29.9676 10.7875 29.984 10.7382 29.984C10.6889 29.984 10.6561 29.984 10.6068 29.984C10.5576 29.984 10.5247 29.984 10.4919 29.984C10.4426 29.984 10.3934 29.984 10.3605 29.984C10.3277 29.984 10.2292 29.984 10.1799 29.984H9.78583C9.72015 29.984 9.65446 29.984 9.6052 29.984C9.55594 29.984 9.50668 29.984 9.47384 29.984C9.441 29.984 9.39174 29.984 9.3589 29.984C9.32606 29.984 9.2768 29.984 9.22754 29.984C9.17827 29.984 9.11259 29.9676 9.06333 29.9676C9.01407 29.9676 8.96481 29.9676 8.93197 29.9511H8.86629C8.83345 29.9511 8.78419 29.9347 8.73492 29.9347C8.70208 29.9347 8.68566 29.9347 8.65282 29.9183C8.60356 29.9183 8.53788 29.9019 8.48862 29.8854C8.43936 29.8854 8.3901 29.869 8.34084 29.8526C8.29157 29.8526 8.22589 29.8362 8.17663 29.8198C8.12737 29.8033 8.06169 29.7869 7.99601 29.7869L7.93033 29.7705C7.88107 29.7705 7.8318 29.7541 7.79896 29.7541C7.68402 29.7212 7.56908 29.6884 7.47056 29.672L7.27351 29.6063C7.20783 29.5899 7.15857 29.5735 7.10931 29.557C6.96152 29.5078 6.83016 29.4585 6.68238 29.4093C6.5346 29.36 6.40323 29.2943 6.27187 29.2451C6.20619 29.2122 6.14051 29.1794 6.07482 29.1465L5.87778 29.048L5.68074 28.9495C5.61506 28.9166 5.54937 28.8838 5.48369 28.851C5.41801 28.8181 5.35233 28.7853 5.28665 28.736C5.22097 28.7032 5.17171 28.6703 5.10602 28.6211L5.0896 28.6047C5.02392 28.5718 4.97466 28.539 4.9254 28.4897L4.89256 28.4733C4.8433 28.4405 4.77762 28.4076 4.72836 28.3584C4.67909 28.3255 4.59699 28.2763 4.54773 28.227C4.48205 28.1777 4.41637 28.1449 4.36711 28.0956L4.2029 27.9643L4.18648 27.9478C4.13722 27.915 4.08796 27.8657 4.0387 27.8329L4.00586 27.8165C7.01079 29.3107 8.57072 27.3403 9.34248 25.4848C9.67088 24.6802 9.90077 23.8263 10.0321 22.9561C10.1635 23.8263 10.3934 24.6638 10.7218 25.4848C11.395 27.3239 12.955 29.2943 15.9599 27.8001Z" fill="white"/>
<path d="M12.8242 29.5238C12.972 29.4745 13.1034 29.4252 13.2511 29.376C13.1198 29.4417 12.972 29.4909 12.8242 29.5238Z" fill="white"/>
<path d="M13.252 29.3761C13.3833 29.3269 13.5311 29.2612 13.6625 29.2119C13.5311 29.2612 13.3997 29.3269 13.252 29.3761Z" fill="white"/>
<path d="M19.8515 19.6386C19.8351 22.8077 18.4065 25.7962 15.9599 27.7995C12.9549 29.2938 11.395 27.3233 10.6232 25.4678C10.2948 24.6632 10.065 23.8094 9.93359 22.9391L19.5559 17.2412C19.753 18.0294 19.8515 18.834 19.8515 19.6386Z" fill="white"/>
</svg>
