<svg width="25" height="25" viewBox="0 0 25 25" fill="none" xmlns="http://www.w3.org/2000/svg">
<rect y="0.0361328" width="24.9636" height="24.9636" rx="7.86125" fill="white"/>
<path d="M18.6774 8.56567C18.2653 8.74322 17.8319 8.86685 17.3882 8.93352C17.5956 8.89792 17.9009 8.52414 18.0224 8.37284C18.207 8.14463 18.3477 7.88411 18.4374 7.60452C18.4374 7.58375 18.4581 7.55409 18.4374 7.53925C18.4269 7.53354 18.4152 7.53055 18.4033 7.53055C18.3914 7.53055 18.3796 7.53354 18.3692 7.53925C17.8873 7.80043 17.3745 7.99977 16.8428 8.13256C16.8243 8.13822 16.8045 8.13873 16.7857 8.13403C16.7669 8.12932 16.7498 8.11959 16.7361 8.10586C16.6947 8.05653 16.6502 8.00996 16.6027 7.96643C16.3859 7.77196 16.1398 7.6128 15.8736 7.49476C15.5143 7.3472 15.1261 7.28329 14.7384 7.30787C14.3623 7.33164 13.9951 7.43262 13.6596 7.60452C13.3292 7.78575 13.0389 8.03196 12.806 8.32835C12.561 8.63341 12.3842 8.98744 12.2873 9.36663C12.2075 9.72731 12.1984 10.1001 12.2606 10.4642C12.2606 10.5265 12.2606 10.5354 12.2073 10.5265C10.0941 10.215 8.36018 9.46452 6.94345 7.85371C6.88121 7.78251 6.84861 7.78251 6.79822 7.85371C6.18174 8.79112 6.48109 10.2744 7.25169 11.0071C7.35543 11.105 7.46213 11.1999 7.57476 11.2889C7.22144 11.2638 6.87675 11.168 6.56111 11.0071C6.50183 10.9685 6.46923 10.9893 6.46627 11.0605C6.45787 11.1592 6.45787 11.2584 6.46627 11.3572C6.52811 11.8302 6.71437 12.2783 7.00599 12.6557C7.29761 13.033 7.68414 13.3261 8.12604 13.5049C8.23376 13.5511 8.34601 13.5859 8.46096 13.6087C8.13387 13.6732 7.7984 13.6832 7.46806 13.6384C7.39692 13.6236 7.37025 13.6621 7.39692 13.7304C7.83261 14.917 8.77809 15.2789 9.47164 15.4806C9.56648 15.4954 9.66133 15.4954 9.76803 15.5192C9.76803 15.5192 9.76803 15.5192 9.75024 15.537C9.54573 15.9107 8.71881 16.1629 8.33944 16.2934C7.64698 16.5424 6.90869 16.6375 6.17581 16.5723C6.06022 16.5545 6.03354 16.5574 6.0039 16.5723C5.97426 16.5871 6.0039 16.6197 6.03651 16.6494C6.1847 16.7473 6.33289 16.8333 6.48701 16.9164C6.94584 17.1669 7.4309 17.3658 7.93339 17.5097C10.5357 18.2276 13.464 17.6996 15.4172 15.7565C16.9525 14.2317 17.4919 12.1284 17.4919 10.0222C17.4919 9.94213 17.5897 9.89466 17.646 9.85313C18.0344 9.55022 18.3769 9.19249 18.6626 8.79112C18.7121 8.73129 18.7375 8.65512 18.7338 8.57753C18.7338 8.53304 18.7338 8.54194 18.6774 8.56567Z" fill="black"/>
</svg>
