<svg width="30" height="30" viewBox="0 0 30 30" fill="none" xmlns="http://www.w3.org/2000/svg">
<path fill-rule="evenodd" clip-rule="evenodd" d="M15 0C23.2852 0 30 6.71484 30 15C30 23.2852 23.2852 30 15 30C6.71484 30 0 23.2852 0 15C0 6.71484 6.71484 0 15 0Z" fill="white"/>
<path d="M9.53418 11.5835C12.5518 8.63623 17.4502 8.63623 20.4678 11.5835L20.8311 11.9409C20.9834 12.0874 20.9834 12.3276 20.8311 12.4741L19.5889 13.687C19.5127 13.7632 19.3896 13.7632 19.3135 13.687L18.8154 13.2007C16.7061 11.144 13.2959 11.144 11.1865 13.2007L10.6533 13.7222C10.5771 13.7983 10.4541 13.7983 10.3779 13.7222L9.13574 12.5093C8.9834 12.3628 8.9834 12.1226 9.13574 11.9761L9.53418 11.5835ZM23.04 14.0913L24.1475 15.1694C24.2998 15.3159 24.2998 15.5562 24.1475 15.7026L19.1611 20.5718C19.0088 20.7183 18.7627 20.7183 18.6162 20.5718L15.0771 17.1147C15.042 17.0796 14.9775 17.0796 14.9424 17.1147L11.4033 20.5718C11.251 20.7183 11.0049 20.7183 10.8584 20.5718L5.85449 15.7026C5.70215 15.5562 5.70215 15.3159 5.85449 15.1694L6.96191 14.0913C7.11426 13.9448 7.36035 13.9448 7.50684 14.0913L11.0459 17.5483C11.0811 17.5835 11.1455 17.5835 11.1807 17.5483L14.7197 14.0913C14.8721 13.9448 15.1182 13.9448 15.2646 14.0913L18.8037 17.5483C18.8389 17.5835 18.9033 17.5835 18.9385 17.5483L22.4775 14.0913C22.6416 13.9448 22.8877 13.9448 23.04 14.0913Z" fill="black"/>
</svg>
