<svg width="138" height="49" viewBox="0 0 138 49" fill="none" xmlns="http://www.w3.org/2000/svg">
<path d="M35.2863 45.5751C29.8742 45.5751 25.476 41.1777 25.476 35.7666L25.4614 35.5113C25.4395 28.5104 19.7357 22.8222 12.7263 22.8222V25.7465C18.1384 25.7465 22.5366 30.144 22.5366 35.5551V35.7666C22.5366 41.1777 18.1384 45.5751 12.7263 45.5751C7.31422 45.5751 2.9306 41.1777 2.9306 35.7739L2.91602 13.2324C2.91602 7.82857 7.31422 3.42383 12.7263 3.42383C18.1457 3.42383 22.5585 7.82128 22.5585 13.2178C22.5585 16.6162 23.8787 19.8468 26.2711 22.3044C28.6926 24.7912 31.8946 26.1622 35.2863 26.1622V23.2379C29.9691 23.2379 25.4833 18.6435 25.476 13.2105C25.476 7.81398 29.8742 3.42383 35.2717 3.42383C40.6692 3.42383 45.082 7.82127 45.082 13.2324L45.0966 35.7739C45.0966 41.1777 40.6984 45.5751 35.2863 45.5751Z" fill="#04030F"/>
<path d="M80.3093 45.5751C74.8972 45.5751 70.499 41.1777 70.499 35.7666L70.4844 35.5113C70.4625 28.5104 64.7587 22.8222 57.7492 22.8222V25.7465C63.1613 25.7465 67.5595 30.144 67.5595 35.5551V35.7666C67.5595 41.1777 63.1613 45.5751 57.7492 45.5751C52.3372 45.5751 47.9535 41.1777 47.9535 35.7739L47.939 13.2324C47.939 7.82857 52.3372 3.42383 57.7492 3.42383C63.1686 3.42383 67.5814 7.82128 67.5814 13.2178C67.5814 16.6162 68.9016 19.8468 71.294 22.3044C73.7156 24.7912 76.9176 26.1622 80.3093 26.1622V23.2379C74.992 23.2379 70.5063 18.6435 70.499 13.2105C70.499 7.81398 74.8972 3.42383 80.2947 3.42383C85.6922 3.42383 90.105 7.82127 90.105 13.2324L90.1196 35.7739C90.1196 41.1777 85.7213 45.5751 80.3093 45.5751Z" fill="#04030F"/>
<path d="M125.364 45.5782L102.843 45.5928C97.4372 45.5928 93.0469 41.196 93.0469 35.7913C93.0469 30.3866 97.4445 25.9898 102.843 25.9898C108.241 25.9898 112.639 30.3866 112.639 35.7913H115.568C115.568 28.7725 109.863 23.061 102.843 23.061C97.4372 23.061 93.0469 18.6569 93.0469 13.2522C93.0469 7.84748 97.4445 3.45797 102.843 3.45797L125.364 3.44336C130.77 3.44336 135.16 7.84016 135.16 13.2449C135.16 18.6496 130.762 23.0391 125.364 23.0391C119.966 23.0391 115.568 18.6423 115.568 13.2449H112.639C112.639 20.2637 118.344 25.9679 125.364 25.9679V25.9898C130.77 25.9898 135.16 30.3866 135.16 35.784C135.16 41.1814 130.762 45.5782 125.364 45.5782Z" fill="#04030F"/>
</svg>
