<svg width="101" height="22" viewBox="0 0 101 22" fill="none" xmlns="http://www.w3.org/2000/svg">
<path d="M20.8937 6.09664C20.8937 3.04027 18.4081 0.555176 15.3512 0.555176C13.2276 0.555176 11.3801 1.75805 10.4532 3.51951C9.52309 1.76122 7.67243 0.555176 5.54243 0.555176H5.53926C2.48552 0.555176 0 3.04027 0 6.09664L0.00634524 15.9069C0.00634524 18.9601 2.4887 21.4452 5.54243 21.4452C7.67243 21.4452 9.52308 20.2391 10.45 18.4713C11.3769 20.236 13.2276 21.4452 15.3576 21.4452C18.4145 21.4452 20.9 18.9601 20.9 15.9069L20.8937 6.09664ZM15.3607 20.1725C13.0054 20.1725 11.0912 18.2587 11.0912 15.9037L11.0849 15.7926C11.0753 12.7458 8.593 10.2702 5.54243 10.2702V11.5429C7.89781 11.5429 9.81196 13.4567 9.81196 15.8117V15.9037C9.81196 18.2587 7.89781 20.1725 5.54243 20.1725C3.18706 20.1725 1.27927 18.2587 1.27927 15.9069L1.27292 6.09664C1.27292 3.74485 3.18706 1.82787 5.54243 1.82787C7.90099 1.82787 9.82148 3.74168 9.82148 6.0903C9.82148 7.56929 10.396 8.97529 11.4372 10.0449C12.4911 11.1271 13.8847 11.7238 15.3607 11.7238V10.4511C13.0466 10.4511 11.0944 8.45161 11.0912 6.08712C11.0912 3.7385 13.0054 1.82787 15.3544 1.82787C17.7034 1.82787 19.6239 3.74168 19.6239 6.09664L19.6303 15.9069C19.6303 18.2587 17.7161 20.1725 15.3607 20.1725Z" fill="#11101B"/>
<path d="M15.3603 20.1722C13.0049 20.1722 11.0908 18.2584 11.0908 15.9035L11.0844 15.7924C11.0749 12.7455 8.59253 10.27 5.54197 10.27V11.5427C7.89735 11.5427 9.81149 13.4565 9.81149 15.8114V15.9035C9.81149 18.2584 7.89735 20.1722 5.54197 20.1722C3.1866 20.1722 1.27881 18.2584 1.27881 15.9066L1.27246 6.09641C1.27246 3.74462 3.1866 1.82764 5.54197 1.82764C7.90052 1.82764 9.82102 3.74144 9.82102 6.09006C9.82102 7.56906 10.3956 8.97505 11.4368 10.0446C12.4907 11.1269 13.8842 11.7236 15.3603 11.7236V10.4509C13.0462 10.4509 11.0939 8.45137 11.0908 6.08689C11.0908 3.73827 13.0049 1.82764 15.3539 1.82764C17.703 1.82764 19.6234 3.74144 19.6234 6.09641L19.6298 15.9066C19.6298 18.2584 17.7156 20.1722 15.3603 20.1722Z" fill="white"/>
<path d="M35.2371 0.561519L25.4341 0.555176C22.4783 0.555176 20.0553 2.88897 19.9062 5.80938H19.8999V15.9088C19.8999 18.9623 22.3832 21.4452 25.4341 21.4452L35.2371 21.4388C38.2913 21.4388 40.7746 18.956 40.7746 15.9024V6.09794C40.7746 3.04435 38.2913 0.561519 35.2371 0.561519ZM35.2371 20.1641L25.4341 20.1705C23.0841 20.1705 21.1717 18.2584 21.1717 15.9056V9.61448C22.1929 10.8511 23.7406 11.6407 25.4658 11.6407C28.5009 11.6407 30.9715 9.15153 30.9715 6.0916H29.6998C29.6998 8.45076 27.8 10.3692 25.4627 10.3692C23.1253 10.3692 21.1685 8.44759 21.1685 6.08842C21.1685 3.72926 23.0809 1.82354 25.431 1.82354L35.234 1.82989C37.5872 1.82989 39.4996 3.74195 39.4996 6.09477V15.8992C39.4996 18.2521 37.5872 20.1641 35.234 20.1641H35.2371Z" fill="#11101B"/>
<path d="M25.4348 20.1741L35.2378 20.1677C37.5911 20.1677 39.5035 18.2557 39.5035 15.9028V6.09837C39.5035 3.74555 37.5911 1.83349 35.2378 1.83349L25.4348 1.82715C23.0848 1.82715 21.1724 3.73921 21.1724 6.09203C21.1724 8.44485 23.0974 10.3728 25.4665 10.3728C27.8356 10.3728 29.7036 8.45436 29.7036 6.0952H30.9754C30.9754 9.15514 28.5048 11.6443 25.4697 11.6443C23.7413 11.6443 22.1967 10.8547 21.1755 9.61809V15.9092C21.1755 18.262 23.0879 20.1741 25.438 20.1741H25.4348Z" fill="white"/>
<path d="M55.1383 21.4452H45.3232C42.2663 21.4452 39.7808 18.9601 39.7808 15.9037L39.7744 6.09347C39.7744 3.04027 42.2599 0.555176 45.3169 0.555176C47.45 0.555176 49.3039 1.76757 50.2308 3.53538C51.1577 1.7644 53.0115 0.555176 55.1447 0.555176C58.2016 0.555176 60.6871 3.04027 60.6871 6.09347L60.6808 15.9037C60.6808 18.9569 58.1952 21.4452 55.1383 21.4452ZM45.3169 1.82788C42.9615 1.82788 41.0473 3.74168 41.0473 6.09347L41.0537 15.9037C41.0537 18.2587 42.9678 20.1725 45.3232 20.1725H55.1383C57.4937 20.1725 59.4079 18.2587 59.4079 15.9037L59.4142 6.09347C59.4142 3.74168 57.5001 1.82788 55.1447 1.82788C52.7893 1.82788 50.8752 3.74168 50.8752 6.09664L50.8688 12.3237H49.5959V6.22677H49.5895L49.5832 6.09664C49.5832 3.74168 47.6691 1.82788 45.3137 1.82788H45.3169Z" fill="#11101B"/>
<path d="M45.3164 1.82764C42.961 1.82764 41.0469 3.74144 41.0469 6.09323L41.0532 15.9035C41.0532 18.2584 42.9674 20.1722 45.3227 20.1722H55.1379C57.4932 20.1722 59.4074 18.2584 59.4074 15.9035L59.4137 6.09323C59.4137 3.74144 57.4996 1.82764 55.1442 1.82764C52.7888 1.82764 50.8747 3.74144 50.8747 6.09641L50.8683 12.3234H49.5954V6.22653H49.5891L49.5827 6.09958C49.5827 3.74461 47.6686 1.83081 45.3132 1.83081L45.3164 1.82764Z" fill="white"/>
<path d="M80.5812 6.09664C80.5812 3.04027 78.0956 0.555176 75.0387 0.555176C72.9151 0.555176 71.0676 1.75805 70.1407 3.51951C69.2106 1.76122 67.3599 0.555176 65.2299 0.555176H65.2268C62.173 0.555176 59.6875 3.04027 59.6875 6.09664L59.6938 15.9069C59.6938 18.9601 62.1762 21.4452 65.2299 21.4452C67.3599 21.4452 69.2106 20.2391 70.1375 18.4713C71.0644 20.236 72.9151 21.4452 75.0451 21.4452C78.102 21.4452 80.5875 18.9601 80.5875 15.9069L80.5812 6.09664ZM75.0482 20.1725C72.6929 20.1725 70.7787 18.2587 70.7787 15.9037L70.7724 15.7926C70.7628 12.7458 68.2805 10.2702 65.2299 10.2702V11.5429C67.5853 11.5429 69.4995 13.4567 69.4995 15.8117V15.9037C69.4995 18.2587 67.5853 20.1725 65.2299 20.1725C62.8746 20.1725 60.9668 18.2587 60.9668 15.9069L60.9604 6.09664C60.9604 3.74485 62.8746 1.82787 65.2299 1.82787C67.5885 1.82787 69.509 3.74168 69.509 6.0903C69.509 7.56929 70.0835 8.97529 71.1247 10.0449C72.1786 11.1271 73.5722 11.7238 75.0482 11.7238V10.4511C72.7341 10.4511 70.7819 8.45161 70.7787 6.08712C70.7787 3.7385 72.6929 1.82787 75.0419 1.82787C77.3909 1.82787 79.3114 3.74168 79.3114 6.09664L79.3178 15.9069C79.3178 18.2587 77.4036 20.1725 75.0482 20.1725Z" fill="#11101B"/>
<path d="M75.0478 20.1722C72.6924 20.1722 70.7783 18.2584 70.7783 15.9035L70.7719 15.7924C70.7624 12.7455 68.28 10.27 65.2295 10.27V11.5427C67.5848 11.5427 69.499 13.4565 69.499 15.8114V15.9035C69.499 18.2584 67.5848 20.1722 65.2295 20.1722C62.8741 20.1722 60.9663 18.2584 60.9663 15.9066L60.96 6.09641C60.96 3.74462 62.8741 1.82764 65.2295 1.82764C67.588 1.82764 69.5085 3.74144 69.5085 6.09006C69.5085 7.56906 70.0831 8.97505 71.1243 10.0446C72.1782 11.1269 73.5717 11.7236 75.0478 11.7236V10.4509C72.7337 10.4509 70.7814 8.45137 70.7783 6.08689C70.7783 3.73827 72.6924 1.82764 75.0414 1.82764C77.3905 1.82764 79.3109 3.74144 79.3109 6.09641L79.3173 15.9066C79.3173 18.2584 77.4031 20.1722 75.0478 20.1722Z" fill="white"/>
<path d="M79.5874 15.9084H80.8623C80.8623 13.5561 82.7762 11.6457 85.1257 11.6457C87.4752 11.6457 89.3891 13.5593 89.3891 15.9084H90.664C90.664 12.8568 88.181 10.371 85.1257 10.371V10.3615C82.773 10.3615 80.8623 8.44792 80.8623 6.09885C80.8623 3.74978 82.7762 1.8362 85.1257 1.8362L94.9274 1.82984C97.28 1.82984 99.1908 3.74343 99.1908 6.09249H100.466C100.466 3.03775 97.9827 0.555176 94.9274 0.555176L85.1257 0.561535C82.0704 0.561535 79.5874 3.04411 79.5874 6.09885C79.5874 8.22859 80.7955 10.0786 82.56 11.0036C80.7955 11.9286 79.5874 13.7818 79.5874 15.9084Z" fill="#11101B"/>
<path d="M100.466 6.0918H99.1908C99.1908 8.44405 97.2769 10.3545 94.9274 10.3545C92.5779 10.3545 90.664 8.44087 90.664 6.0918H89.3891C89.3891 9.14654 91.8721 11.6291 94.9274 11.6291V11.6387C97.28 11.6387 99.1908 13.5522 99.1908 15.9013C99.1908 18.2504 97.2769 20.164 94.9274 20.164L85.1257 20.1703C82.773 20.1703 80.8623 18.2567 80.8623 15.9077H79.5874C79.5874 18.9624 82.0704 21.445 85.1257 21.445L94.9274 21.4386C97.9795 21.4386 100.466 18.9561 100.466 15.9013C100.466 13.7716 99.2576 11.9216 97.4931 10.9966C99.2576 10.0715 100.466 8.21836 100.466 6.0918Z" fill="#11101B"/>
<path d="M94.9621 20.1744L85.1604 20.1808C82.8077 20.1808 80.897 18.2672 80.897 15.9149C80.897 13.5627 82.8109 11.6491 85.1604 11.6491C87.5099 11.6491 89.4238 13.5627 89.4238 15.9149H90.6987C90.6987 12.8602 88.2157 10.3744 85.1604 10.3744C82.8077 10.3744 80.897 8.45769 80.897 6.10544C80.897 3.75319 82.8109 1.84278 85.1604 1.84278L94.9621 1.83643C97.3147 1.83643 99.2255 3.75001 99.2255 6.10226C99.2255 8.45451 97.3115 10.3649 94.9621 10.3649C92.6126 10.3649 90.6987 8.45133 90.6987 6.10226H89.4238C89.4238 9.157 91.9068 11.6396 94.9621 11.6396V11.6491C97.3147 11.6491 99.2255 13.5627 99.2255 15.9118C99.2255 18.2608 97.3115 20.1744 94.9621 20.1744Z" fill="white"/>
</svg>
