<svg width="68" height="24" viewBox="0 0 68 24" fill="none" xmlns="http://www.w3.org/2000/svg">
<path d="M23.547 6.36623C23.547 2.85584 20.7454 0 17.3026 0C14.9081 0 12.826 1.38312 11.7806 3.40617C10.7324 1.38409 8.64557 0.00194805 6.2453 0H6.24148C2.79968 0.00194805 0 2.85682 0 6.36623L0.00764419 17.6367C0.00764419 21.1451 2.80637 24 6.24721 24C8.64653 24 10.7334 22.612 11.7787 20.5841C12.8241 22.613 14.9109 24 17.3103 24C20.754 24 23.5556 21.1451 23.5556 17.6367L23.5479 6.36623H23.547ZM17.3103 22.539C14.6568 22.539 12.4982 20.3386 12.4982 17.6338L12.4925 17.5062C12.481 14.0055 9.68423 11.1614 6.24721 11.1614V12.6224C8.9007 12.6224 11.0592 14.8227 11.0592 17.5276L11.064 17.6328H11.0592C11.0592 20.3377 8.9007 22.538 6.24721 22.538C3.59372 22.538 1.44093 20.3386 1.44093 17.6357L1.43328 6.36526C1.43328 3.66136 3.59086 1.46104 6.24339 1.46006C8.90261 1.46104 11.065 3.65747 11.065 6.35649C11.0669 8.05714 11.7138 9.67013 12.8871 10.8994C14.0739 12.1422 15.6448 12.8269 17.3103 12.8269V11.3659C14.7036 11.3659 12.5002 9.07013 12.4982 6.35162C12.5002 3.65357 14.6549 1.45812 17.3017 1.45812C19.9485 1.45812 22.1137 3.65844 22.1137 6.36331L22.1213 17.6338C22.1213 20.3367 19.9628 22.536 17.3093 22.536L17.3103 22.539Z" fill="#04030F"/>
<path fill-rule="evenodd" clip-rule="evenodd" d="M22.2215 17.6435C22.2215 21.1009 25.028 23.9143 28.4763 23.9143V23.9153C30.8823 23.9153 32.9757 22.5482 34.0234 20.5484C35.0715 22.5476 37.1647 23.9143 39.5699 23.9143V23.9133C43.022 23.9133 45.8304 21.1009 45.8304 17.6425L45.8227 6.53589C45.8227 3.07654 43.0095 0.262207 39.5622 0.262207C37.1618 0.262207 35.0726 1.62528 34.0254 3.61942C32.9754 1.62607 30.8814 0.263547 28.4744 0.262207H28.4706C25.0204 0.264127 22.2139 3.07846 22.2139 6.53686L22.2215 17.6435ZM34.7426 6.52822C34.7468 9.20482 36.9539 11.4658 39.5663 11.4658V12.9056C37.8968 12.9056 36.3221 12.2308 35.1324 11.006C33.9562 9.79465 33.3077 8.20511 33.3058 6.52918C33.3058 3.86939 31.1372 1.70489 28.4725 1.70393C25.8135 1.70489 23.6506 3.87323 23.6506 6.53782L23.6583 17.6444C23.6583 20.309 25.8192 22.4755 28.4763 22.4755C31.1334 22.4755 33.3001 20.3071 33.3001 17.6416H33.3084L33.3036 17.536C33.3036 14.8704 31.1398 12.7021 28.4798 12.7021V11.2623C31.9243 11.2623 34.7289 14.0651 34.7404 17.5148L34.7461 17.6406C34.7461 20.3061 36.9099 22.4745 39.5699 22.4745C42.2298 22.4745 44.3936 20.3071 44.3936 17.6435L44.386 6.53685C44.386 3.87131 42.2222 1.70297 39.5622 1.70297C36.9022 1.70297 34.7471 3.86747 34.7471 6.52822H34.7426Z" fill="#04030F"/>
<path d="M17.4645 22.2223C14.8422 22.2223 12.7091 20.0883 12.7091 17.4649L12.7035 17.3412C12.6921 13.9461 9.92824 11.1886 6.53169 11.1886V12.6056C9.15393 12.6056 11.287 14.7396 11.287 17.3629L11.2918 17.4649H11.287C11.287 20.0883 9.15393 22.2223 6.53169 22.2223C3.90945 22.2223 1.78294 20.0892 1.78294 17.4678L1.77539 6.53705C1.77539 3.91466 3.90756 1.78067 6.52886 1.77972C9.15677 1.78067 11.2937 3.91088 11.2937 6.52855C11.2955 8.17794 11.9348 9.7423 13.0944 10.9345C14.2672 12.1399 15.8196 12.804 17.4654 12.804V11.387C14.8894 11.387 12.712 9.16039 12.7101 6.52383C12.712 3.90711 14.8413 1.77783 17.4569 1.77783C20.0726 1.77783 22.2123 3.91183 22.2123 6.53516L22.2198 17.4659C22.2198 20.0873 20.0867 22.2204 17.4645 22.2204V22.2223Z" fill="white"/>
<path d="M39.5868 22.6667C36.9075 22.6667 34.7281 20.4863 34.7281 17.806L34.7223 17.6795C34.7107 14.2106 31.8867 11.3932 28.4163 11.3932V12.841C31.0956 12.841 33.2751 15.0214 33.2751 17.7017L33.2799 17.806H33.2751C33.2751 20.4863 31.0956 22.6667 28.4163 22.6667C25.7371 22.6667 23.5644 20.4873 23.5644 17.8089L23.5566 6.64052C23.5566 3.96112 25.7352 1.78073 28.4134 1.77976C31.0985 1.78073 33.2818 3.95726 33.2818 6.63183C33.2838 8.31707 33.9369 9.91545 35.1217 11.1335C36.32 12.3651 37.9061 13.0437 39.5878 13.0437V11.5959C36.9558 11.5959 34.731 9.32088 34.729 6.62701C34.731 3.9534 36.9066 1.77783 39.5791 1.77783C42.2516 1.77783 44.4378 3.95822 44.4378 6.63859L44.4455 17.8069C44.4455 20.4854 42.266 22.6648 39.5868 22.6648V22.6667Z" fill="white"/>
<path fill-rule="evenodd" clip-rule="evenodd" d="M44.4439 6.56285H45.8807C45.8807 3.90498 48.0378 1.7424 50.691 1.7424L61.7475 1.73472C64.3998 1.73472 66.5579 3.8973 66.5579 6.55517H67.9946C67.9946 3.10349 65.1929 0.294922 61.7475 0.294922L50.691 0.302598C47.2466 0.302598 44.4439 3.11117 44.4439 6.56285ZM61.7453 11.3795V12.8193C61.7454 12.8193 61.7455 12.8193 61.7456 12.8193V12.8307C64.3979 12.8307 66.556 14.9933 66.556 17.6512H67.9927C67.9927 15.246 66.6319 13.153 64.6412 12.105C66.6317 11.057 67.9924 8.96414 67.9924 6.55905H66.5556C66.5556 9.21692 64.3976 11.3795 61.7453 11.3795ZM61.7414 12.8193C58.297 12.8193 55.4943 10.0107 55.4943 6.55905H56.9311C56.9311 9.21692 59.0891 11.3795 61.7414 11.3795V12.8193ZM50.6895 11.3958C50.6896 11.3958 50.6896 11.3958 50.6897 11.3958V12.8356C48.0374 12.8356 45.8793 14.9982 45.8793 17.656H44.4426C44.4426 15.2506 45.8037 13.1574 47.7947 12.1096C45.8036 11.0617 44.4424 8.96853 44.4424 6.56299H45.8792C45.8792 9.22086 48.0372 11.3834 50.6895 11.3834V11.3958ZM56.9384 17.6549H55.5016C55.5016 14.9971 53.3436 12.8345 50.6913 12.8345V11.3947C54.1357 11.3947 56.9384 14.2033 56.9384 17.6549ZM44.4427 17.6589C44.4427 21.1106 47.2444 23.9192 50.6898 23.9192L61.7463 23.9115C65.1908 23.9115 67.9934 21.1029 67.9934 17.6512H66.5567C66.5567 20.3091 64.3996 22.4717 61.7463 22.4717L50.6898 22.4794C48.0375 22.4794 45.8795 20.3168 45.8795 17.6589H44.4427Z" fill="#04030F"/>
<path d="M61.8105 22.659L50.6408 22.6667C47.9614 22.6667 45.7812 20.4891 45.7812 17.8089C45.7812 15.1287 47.9614 12.9511 50.6408 12.9511C53.3203 12.9511 55.5004 15.1306 55.5004 17.8089H56.9519C56.9519 14.3313 54.1206 11.5012 50.6408 11.5012C47.9614 11.5012 45.7812 9.32072 45.7812 6.63954C45.7812 3.95835 47.9614 1.78556 50.6408 1.78556L61.8105 1.77783C64.49 1.77783 66.6701 3.95545 66.6701 6.63567C66.6701 9.31589 64.49 11.4896 61.8105 11.4896C59.1311 11.4896 56.951 9.31202 56.951 6.63567H55.4995C55.4995 10.1114 58.3308 12.9395 61.8105 12.9395V12.9511C64.49 12.9511 66.6701 15.1287 66.6701 17.805C66.6701 20.4814 64.49 22.659 61.8105 22.659Z" fill="white"/>
</svg>
