<?xml version="1.0" standalone="no"?>
<!DOCTYPE svg PUBLIC "-//W3C//DTD SVG 20010904//EN"
 "http://www.w3.org/TR/2001/REC-SVG-20010904/DTD/svg10.dtd">
<svg version="1.0" xmlns="http://www.w3.org/2000/svg"
 width="400.000000pt" height="400.000000pt" viewBox="0 0 400.000000 400.000000"
 preserveAspectRatio="xMidYMid meet">
<metadata>
Created by potrace 1.14, written by Peter Selinger 2001-2017
</metadata>
<g transform="translate(0.000000,400.000000) scale(0.100000,-0.100000)"
fill="#000000" stroke="none">
<path d="M1930 3195 c0 -33 2 -35 35 -35 33 0 35 2 35 35 0 33 -2 35 -35 35
-33 0 -35 -2 -35 -35z"/>
<path d="M2010 3195 l0 -35 120 0 120 0 0 35 0 35 -120 0 -120 0 0 -35z"/>
<path d="M2260 3195 c0 -33 2 -35 35 -35 33 0 35 2 35 35 0 33 -2 35 -35 35
-33 0 -35 -2 -35 -35z"/>
<path d="M2340 3195 l0 -34 123 2 122 2 3 33 3 32 -125 0 -126 0 0 -35z"/>
<path d="M1680 3115 c0 -33 2 -35 35 -35 33 0 35 2 35 35 0 33 -2 35 -35 35
-33 0 -35 -2 -35 -35z"/>
<path d="M1760 3115 c0 -33 2 -35 35 -35 33 0 35 2 35 35 0 33 -2 35 -35 35
-33 0 -35 -2 -35 -35z"/>
<path d="M1850 3115 c0 -32 3 -35 29 -35 25 0 29 4 33 35 4 34 3 35 -29 35
-31 0 -33 -2 -33 -35z"/>
<path d="M1930 3115 c0 -33 2 -35 35 -35 33 0 35 2 35 35 0 33 -2 35 -35 35
-33 0 -35 -2 -35 -35z"/>
<path d="M2180 3110 c0 -39 1 -40 35 -40 34 0 35 1 35 40 0 39 -1 40 -35 40
-34 0 -35 -1 -35 -40z"/>
<path d="M2260 2985 l0 -165 35 0 35 0 0 79 0 80 -32 4 -33 4 33 1 32 2 0 80
0 80 -35 0 -35 0 0 -165z m53 78 c-7 -2 -21 -2 -30 0 -10 3 -4 5 12 5 17 0 24
-2 18 -5z"/>
<path d="M2342 3071 l0 -79 78 0 79 0 0 79 0 79 -79 0 -78 0 0 -79z m78 -28
c-7 -23 -8 -18 -8 27 0 45 1 50 8 28 5 -16 5 -40 0 -55z m-25 27 c3 -5 1 -10
-4 -10 -6 0 -11 5 -11 10 0 6 2 10 4 10 3 0 8 -4 11 -10z m72 -6 c-3 -3 -12
-4 -19 -1 -8 3 -5 6 6 6 11 1 17 -2 13 -5z"/>
<path d="M2632 3136 c7 -8 15 -12 17 -11 5 6 -10 25 -20 25 -5 0 -4 -6 3 -14z"/>
<path d="M2703 3143 c-7 -2 -13 -18 -13 -34 0 -24 4 -29 24 -29 26 0 48 21 29
27 -6 2 -9 13 -6 23 5 20 -7 24 -34 13z"/>
<path d="M2930 3040 c0 -16 -5 -30 -12 -30 -24 0 3 -13 42 -20 l40 -7 0 43 c0
44 0 44 -35 44 -32 0 -35 -2 -35 -30z"/>
<path d="M1592 3028 c3 -30 6 -33 38 -33 32 0 35 3 38 33 3 31 3 32 -38 32
-41 0 -41 -1 -38 -32z"/>
<path d="M1680 3030 c0 -28 3 -30 35 -30 32 0 35 2 35 30 0 28 -3 30 -35 30
-32 0 -35 -2 -35 -30z"/>
<path d="M2770 3050 c0 -5 7 -7 15 -4 8 4 15 8 15 10 0 2 -7 4 -15 4 -8 0 -15
-4 -15 -10z"/>
<path d="M2890 3050 c0 -5 5 -10 11 -10 5 0 7 5 4 10 -3 6 -8 10 -11 10 -2 0
-4 -4 -4 -10z"/>
<path d="M1421 2935 c2 -25 0 -48 -4 -51 -4 -4 -7 -2 -7 4 0 7 -15 12 -35 12
-34 0 -35 -1 -35 -40 l0 -40 123 0 122 0 -3 43 -4 44 44 -1 c43 -1 43 -1 43
34 l0 35 -123 2 -123 2 2 -44z m89 -35 c0 -5 -4 -10 -10 -10 -5 0 -10 5 -10
10 0 6 5 10 10 10 6 0 10 -4 10 -10z"/>
<path d="M1680 2941 c0 -36 1 -37 35 -33 32 4 35 7 35 37 0 31 -2 33 -35 33
-34 0 -35 -1 -35 -37z"/>
<path d="M2090 2901 l0 -81 80 0 80 0 0 41 0 41 -42 -4 -43 -3 0 40 c0 39 -1
40 -37 43 l-38 3 0 -80z"/>
<path d="M2429 2968 c-1 -16 -1 -118 0 -135 1 -8 15 -13 36 -13 33 0 35 2 35
34 0 30 -4 35 -27 39 l-28 4 28 2 c25 1 27 4 27 41 0 39 -1 40 -35 40 -21 0
-35 -5 -36 -12z"/>
<path d="M2531 2954 c0 -11 3 -14 6 -6 3 7 2 16 -1 19 -3 4 -6 -2 -5 -13z"/>
<path d="M2985 2930 c3 -5 8 -10 11 -10 2 0 4 5 4 10 0 6 -5 10 -11 10 -5 0
-7 -4 -4 -10z"/>
<path d="M2560 2920 c0 -5 5 -10 11 -10 5 0 7 5 4 10 -3 6 -8 10 -11 10 -2 0
-4 -4 -4 -10z"/>
<path d="M2345 2892 c-3 -3 -5 -20 -5 -39 0 -31 2 -33 35 -33 34 0 35 1 35 38
0 36 -2 39 -30 39 -16 0 -32 -3 -35 -5z"/>
<path d="M3033 2893 c-7 -3 -13 -20 -13 -39 0 -31 3 -34 30 -34 27 0 30 3 30
34 0 34 -18 48 -47 39z"/>
<path d="M2600 2875 c0 -8 2 -15 4 -15 2 0 6 7 10 15 3 8 1 15 -4 15 -6 0 -10
-7 -10 -15z"/>
<path d="M2630 2860 c-9 -6 -10 -10 -3 -10 6 0 15 5 18 10 8 12 4 12 -15 0z"/>
<path d="M3096 2811 c-1 -3 -3 -21 -4 -38 -2 -31 -1 -33 35 -35 37 -1 37 -1 6
-5 l-33 -4 0 -76 c0 -42 -3 -74 -6 -70 -3 3 -6 37 -5 76 l0 71 -39 0 -40 0 1
-66 c1 -36 -2 -68 -5 -71 -3 -4 -6 26 -6 65 l0 72 -36 0 c-35 0 -35 -1 -34
-37 1 -21 2 -55 1 -77 -1 -33 -3 -37 -16 -26 -12 10 -15 10 -15 0 0 -10 -3
-10 -15 0 -10 9 -15 9 -15 1 0 -7 -34 -11 -105 -11 l-105 0 0 30 c0 27 -3 30
-30 30 -25 0 -30 -4 -30 -24 0 -14 -4 -28 -10 -31 -6 -4 -10 7 -10 24 0 29 -3
31 -35 31 -34 0 -35 -1 -35 -40 l0 -40 -40 0 c-39 0 -40 -1 -40 -35 0 -34 1
-35 40 -35 l40 0 0 -90 0 -90 -90 0 c-67 0 -90 3 -89 13 1 6 1 67 0 134 l-1
123 -332 2 -333 3 -3 28 c-3 22 -8 27 -32 27 -16 0 -30 -6 -33 -12 -8 -24 -19
1 -21 49 -1 47 -2 48 -34 51 l-34 3 3 -42 c2 -25 -1 -44 -8 -46 -7 -3 -9 11
-6 41 l5 45 -87 0 c-48 0 -90 2 -93 6 -3 3 16 5 41 5 l47 0 0 35 0 36 -77 -3
-78 -3 -2 -35 c-1 -19 -2 -54 -2 -77 l-1 -43 -40 0 -40 0 0 -128 0 -128 -40 4
-40 4 0 -61 0 -61 -50 0 -50 0 2 -222 3 -223 45 -5 45 -5 3 -47 3 -48 40 0 39
0 0 -125 0 -125 40 0 40 0 1 -42 c0 -24 1 -61 2 -83 l2 -40 43 0 42 0 0 -42 0
-43 40 0 40 0 0 -46 0 -46 40 4 40 4 0 -43 0 -43 85 0 85 0 0 -40 0 -40 88 0
87 0 0 -42 0 -43 78 -2 77 -3 0 39 c0 29 -5 41 -17 44 -14 4 -12 5 5 6 20 1
22 -4 22 -44 0 -45 0 -45 35 -45 35 0 35 0 35 45 l0 45 90 0 90 0 0 -45 c0
-45 0 -45 35 -45 35 0 35 0 35 45 0 25 3 45 8 45 4 0 6 -20 4 -45 l-4 -45 198
5 c110 2 202 5 207 5 4 0 7 16 7 35 0 33 -2 35 -34 35 -32 0 -35 -3 -39 -32
l-4 -33 -1 32 c-2 31 -4 32 -49 36 -27 2 30 4 125 5 l172 2 0 165 0 165 -75
-2 -75 -2 0 -32 c0 -31 2 -33 38 -36 31 -2 38 -7 40 -28 3 -21 2 -22 -12 -11
-8 7 -27 14 -41 15 -22 3 -25 0 -25 -31 0 -32 2 -35 24 -29 28 7 116 -3 116
-14 0 -4 -13 -6 -30 -5 -29 2 -30 0 -32 -44 l-1 -46 -6 45 -6 45 -127 0 -126
0 1 35 c1 19 0 59 -1 88 l-2 52 -35 0 c-33 0 -35 -2 -35 -35 0 -21 5 -35 12
-35 9 0 9 -3 0 -12 -7 -7 -12 -30 -12 -53 l0 -40 -50 0 c-53 0 -55 1 -40 25 6
10 10 11 10 3 0 -8 13 -13 33 -13 31 0 33 2 32 33 l-2 32 -81 0 c-45 0 -82 4
-82 9 0 4 -18 6 -40 4 l-40 -4 0 43 c0 42 0 43 -35 43 -35 0 -35 0 -35 -45 0
-26 -5 -45 -11 -45 -7 0 -10 17 -7 45 2 25 -1 47 -7 49 -5 3 -4 5 3 5 7 1 12
15 12 36 l0 35 -80 0 -80 0 0 -35 c0 -35 1 -35 43 -35 l43 0 -4 -39 c-4 -38
-3 -40 30 -44 l33 -4 -32 -1 c-31 -2 -32 -4 -36 -50 -2 -28 -4 -12 -5 41 l-2
87 -35 0 -34 0 -4 -132 -3 -133 -2 133 -2 132 -35 0 -35 0 0 -87 c0 -47 -3
-84 -6 -81 -3 3 -5 42 -5 86 l0 81 -171 0 c-94 1 -174 3 -176 6 -3 3 18 5 46
5 l52 0 0 35 0 35 -90 0 c-80 0 -89 2 -83 17 4 11 8 12 11 5 2 -7 19 -12 37
-12 29 0 34 4 38 28 l4 27 2 -27 1 -28 80 0 80 0 0 80 0 81 -125 -2 c-69 -1
-128 1 -132 4 -3 4 53 7 125 7 l131 0 4 33 4 32 1 -32 2 -33 120 0 120 0 0 35
0 35 -382 2 c-309 2 -334 3 -128 5 188 3 256 7 262 16 6 9 8 9 8 0 0 -10 31
-13 119 -13 105 0 120 2 124 18 4 16 5 16 6 0 1 -16 14 -18 120 -18 86 0 121
3 124 13 4 10 6 10 6 0 2 -21 69 -16 74 5 4 16 5 16 6 0 1 -17 20 -18 250 -18
226 0 250 2 253 17 3 15 4 15 21 -1 9 -10 17 -13 17 -7 0 6 7 11 16 11 8 0 12
-4 9 -10 -3 -5 -2 -10 4 -10 5 0 12 8 14 18 4 16 5 16 6 0 1 -16 12 -18 81
-18 64 0 80 3 80 15 0 12 16 15 85 15 69 0 85 -3 85 -15 0 -12 15 -15 79 -15
l78 0 -4 383 c-3 344 -5 430 -11 520 -2 27 -2 27 -77 27 l-75 0 0 75 0 75 -35
0 -34 0 -4 -77 c-2 -60 -3 -50 -5 42 l-2 120 -35 1 c-20 0 -37 -2 -39 -5z m47
-168 c-7 -2 -19 -2 -25 0 -7 3 -2 5 12 5 14 0 19 -2 13 -5z m-1543 -43 c0 -5
-2 -10 -4 -10 -3 0 -8 5 -11 10 -3 6 -1 10 4 10 6 0 11 -4 11 -10z m-176 -75
l1 -45 -95 2 -95 2 88 3 87 4 0 34 0 35 -72 2 -73 2 75 5 c41 3 77 5 79 4 2
-2 4 -23 5 -48z m-201 -42 c-7 -2 -21 -2 -30 0 -10 3 -4 5 12 5 17 0 24 -2 18
-5z m657 -353 l0 -301 -132 3 -133 3 -3 285 c-1 157 0 290 3 297 3 10 39 13
135 13 l130 0 0 -300z m1070 0 l0 -300 -154 0 -154 0 -5 38 c-7 56 -8 526 -1
545 5 15 26 17 160 17 l154 0 0 -300z m-1533 198 c-2 -13 -4 -5 -4 17 -1 22 1
32 4 23 2 -10 2 -28 0 -40z m-250 -30 c-3 -7 -5 -2 -5 12 0 14 2 19 5 13 2 -7
2 -19 0 -25z m173 22 c0 -5 -5 -10 -11 -10 -5 0 -7 5 -4 10 3 6 8 10 11 10 2
0 4 -4 4 -10z m-127 -7 c-7 -2 -19 -2 -25 0 -7 3 -2 5 12 5 14 0 19 -2 13 -5z
m57 0 c-8 -3 -18 -10 -21 -15 -3 -5 -9 -3 -12 6 -5 12 0 16 21 15 16 0 21 -3
12 -6z m113 0 c-7 -2 -19 -2 -25 0 -7 3 -2 5 12 5 14 0 19 -2 13 -5z m-216
-255 c-3 -8 -6 -5 -6 6 -1 11 2 17 5 13 3 -3 4 -12 1 -19z m1263 7 c0 -8 -4
-15 -10 -15 -5 0 -10 7 -10 15 0 8 5 15 10 15 6 0 10 -7 10 -15z m-93 -27 c-3
-7 -5 -2 -5 12 0 14 2 19 5 13 2 -7 2 -19 0 -25z m136 25 c-7 -2 -19 -2 -25 0
-7 3 -2 5 12 5 14 0 19 -2 13 -5z m-136 -85 c-3 -8 -6 -5 -6 6 -1 11 2 17 5
13 3 -3 4 -12 1 -19z m88 2 c3 -5 1 -10 -4 -10 -6 0 -11 5 -11 10 0 6 2 10 4
10 3 0 8 -4 11 -10z m3 -82 c48 -1 68 -3 45 -5 -34 -3 -43 -8 -43 -23 0 -10
-3 -25 -6 -34 -5 -13 3 -16 42 -17 l49 -2 -49 -7 c-28 -3 -59 -5 -70 -4 -12 1
-31 3 -43 3 -19 1 -23 6 -22 29 2 23 2 24 6 5 4 -19 11 -23 39 -23 32 0 34 2
34 35 0 34 -1 35 -40 35 -40 0 -40 0 -38 38 1 36 1 36 5 5 l4 -33 87 -2z
m-1066 -5 c-40 -2 -103 -2 -140 0 -37 2 -4 3 73 3 77 0 107 -2 67 -3z m-12
-77 c0 -3 -4 -8 -10 -11 -5 -3 -10 -1 -10 4 0 6 5 11 10 11 6 0 10 -2 10 -4z
m80 0 c0 -3 -4 -8 -10 -11 -5 -3 -10 -1 -10 4 0 6 5 11 10 11 6 0 10 -2 10 -4z
m992 -61 c2 -19 0 -35 -4 -35 -4 0 -8 16 -8 35 0 19 2 35 4 35 2 0 6 -16 8
-35z m-1199 -112 c-7 -2 -21 -2 -30 0 -10 3 -4 5 12 5 17 0 24 -2 18 -5z m619
-38 c-2 -14 -6 -25 -8 -25 -2 0 -4 11 -4 25 0 14 4 25 9 25 4 0 6 -11 3 -25z
m-449 -42 c-7 -2 -19 -2 -25 0 -7 3 -2 5 12 5 14 0 19 -2 13 -5z m37 3 c0 -3
-4 -8 -10 -11 -5 -3 -10 -1 -10 4 0 6 5 11 10 11 6 0 10 -2 10 -4z m160 -92
c0 -8 -5 -12 -10 -9 -6 4 -8 11 -5 16 9 14 15 11 15 -7z m90 6 c0 -5 -5 -10
-11 -10 -5 0 -7 5 -4 10 3 6 8 10 11 10 2 0 4 -4 4 -10z m407 -137 c-3 -10 -5
-4 -5 12 0 17 2 24 5 18 2 -7 2 -21 0 -30z m-330 -110 c-2 -16 -4 -5 -4 22 0
28 2 40 4 28 2 -13 2 -35 0 -50z m88 -3 c3 -5 1 -10 -4 -10 -6 0 -11 5 -11 10
0 6 2 10 4 10 3 0 8 -4 11 -10z m412 -132 c-2 -13 -4 -3 -4 22 0 25 2 35 4 23
2 -13 2 -33 0 -45z m80 -20 c-2 -18 -4 -6 -4 27 0 33 2 48 4 33 2 -15 2 -42 0
-60z m80 -5 c-3 -10 -5 -2 -5 17 0 19 2 27 5 18 2 -10 2 -26 0 -35z m-264 -20
c-13 -2 -35 -2 -50 0 -16 2 -5 4 22 4 28 0 40 -2 28 -4z m14 -55 c-3 -8 -6 -5
-6 6 -1 11 2 17 5 13 3 -3 4 -12 1 -19z m291 -25 c-10 -2 -26 -2 -35 0 -10 3
-2 5 17 5 19 0 27 -2 18 -5z m49 1 c-3 -3 -12 -4 -19 -1 -8 3 -5 6 6 6 11 1
17 -2 13 -5z"/>
<path d="M1440 2802 c-8 -3 -4 -10 11 -19 24 -14 24 -14 1 -10 -12 3 -20 1
-16 -4 3 -5 16 -9 29 -9 20 0 24 5 23 23 -2 22 -19 28 -48 19z"/>
<path d="M1517 2802 c-3 -4 -2 -21 1 -37 l6 -30 7 25 c7 24 7 24 8 3 1 -27 31
-32 31 -5 0 14 -2 15 -10 2 -7 -11 -10 -7 -10 18 0 30 -21 45 -33 24z"/>
<path d="M2260 2775 c0 -33 2 -35 35 -35 33 0 35 2 35 35 0 33 -2 35 -35 35
-33 0 -35 -2 -35 -35z"/>
<path d="M2340 2775 c0 -33 2 -35 35 -35 33 0 35 2 35 35 0 33 -2 35 -35 35
-33 0 -35 -2 -35 -35z"/>
<path d="M2430 2775 c0 -34 1 -35 38 -34 20 0 32 3 26 5 -6 2 -8 18 -6 34 4
28 2 30 -27 30 -29 0 -31 -2 -31 -35z"/>
<path d="M2600 2775 c0 -32 2 -35 30 -35 28 0 30 3 30 35 0 32 -2 35 -30 35
-28 0 -30 -3 -30 -35z"/>
<path d="M2260 2695 c0 -33 2 -35 35 -35 33 0 35 2 35 35 0 33 -2 35 -35 35
-33 0 -35 -2 -35 -35z"/>
<path d="M2340 2695 c0 -33 2 -35 35 -35 33 0 35 2 35 35 0 33 -2 35 -35 35
-33 0 -35 -2 -35 -35z"/>
<path d="M2427 2723 c-12 -20 -4 -63 11 -63 13 0 13 -3 4 -12 -7 -7 -12 -27
-12 -45 0 -31 2 -33 35 -33 33 0 35 2 35 35 0 28 -4 35 -20 35 -11 0 -20 5
-20 10 0 6 3 9 8 9 25 -4 32 4 32 36 0 33 -2 35 -34 35 -19 0 -37 -3 -39 -7z"/>
<path d="M3430 2020 c0 -39 1 -40 35 -40 34 0 35 1 35 40 0 39 -1 40 -35 40
-34 0 -35 -1 -35 -40z"/>
<path d="M2010 1605 l0 -35 88 -2 c51 -1 68 -3 40 -5 l-47 -4 0 -80 0 -79 34
0 c38 0 45 11 37 58 -3 20 0 32 7 32 11 0 15 -25 12 -62 -2 -19 14 -24 24 -8
10 15 23 12 29 -7 3 -10 4 1 2 25 -4 45 -5 45 57 42 37 -2 37 -2 37 39 0 40
-1 41 -34 41 -32 0 -35 -3 -39 -32 l-4 -33 -1 32 c-2 28 -6 32 -34 36 l-33 4
32 1 c28 2 32 6 36 35 l4 32 1 -32 c2 -31 5 -33 37 -33 33 0 35 2 35 35 l0 35
-160 0 -160 0 0 -35z m77 -17 c-3 -8 -6 -5 -6 6 -1 11 2 17 5 13 3 -3 4 -12 1
-19z m133 -124 c0 -14 -3 -14 -15 -4 -8 7 -15 14 -15 16 0 2 7 4 15 4 8 0 15
-7 15 -16z"/>
<path d="M2340 1606 c0 -32 3 -35 33 -39 l32 -4 -32 -1 c-32 -2 -33 -4 -33
-43 l0 -40 38 3 c36 3 37 4 37 46 l0 42 168 0 167 0 0 35 0 35 -205 0 -205 0
0 -34z m247 -13 c-3 -10 -5 -4 -5 12 0 17 2 24 5 18 2 -7 2 -21 0 -30z"/>
<path d="M2930 1559 l0 -81 40 4 40 4 0 -43 0 -42 48 -4 47 -3 -45 -2 -46 -2
4 -35 c4 -33 7 -35 41 -36 20 -1 53 -3 74 -5 l37 -3 0 124 0 125 -34 0 c-34 0
-35 -1 -39 -47 l-3 -48 -2 47 -2 47 -47 4 c-29 2 -13 4 40 5 l87 2 0 35 0 35
-120 0 -120 0 0 -81z m167 29 c-3 -7 -5 -2 -5 12 0 14 2 19 5 13 2 -7 2 -19 0
-25z m-110 -24 c-3 -3 -12 -4 -19 -1 -8 3 -5 6 6 6 11 1 17 -2 13 -5z m166
-171 c-7 -2 -19 -2 -25 0 -7 3 -2 5 12 5 14 0 19 -2 13 -5z"/>
<path d="M1760 1522 c0 -37 1 -39 35 -39 34 0 35 2 35 39 0 37 -1 38 -35 38
-34 0 -35 -1 -35 -38z"/>
<path d="M1842 1480 l0 -80 38 0 c34 0 39 3 43 28 l4 27 2 -27 c1 -25 5 -28
36 -28 l35 0 0 80 0 80 -34 0 c-32 0 -35 -3 -39 -32 l-4 -33 -1 33 c-2 30 -4
32 -41 32 l-39 0 0 -80z m88 -6 c0 -8 -4 -12 -10 -9 -5 3 -10 10 -10 16 0 5 5
9 10 9 6 0 10 -7 10 -16z"/>
<path d="M2010 1480 l0 -80 35 0 35 0 0 80 0 80 -35 0 -35 0 0 -80z"/>
<path d="M3180 1479 l0 -80 37 3 c33 3 37 6 36 31 -1 15 -1 50 -2 77 l-1 50
-35 0 -35 0 0 -81z"/>
<path d="M1760 1435 c0 -33 2 -35 35 -35 33 0 35 2 35 35 0 33 -2 35 -35 35
-33 0 -35 -2 -35 -35z"/>
<path d="M1760 1356 l0 -35 120 0 120 -1 0 35 0 35 -120 0 -120 0 0 -34z m77
-8 c-3 -7 -5 -2 -5 12 0 14 2 19 5 13 2 -7 2 -19 0 -25z m90 0 c-3 -7 -5 -2
-5 12 0 14 2 19 5 13 2 -7 2 -19 0 -25z"/>
<path d="M2301 1374 c0 -11 3 -14 6 -6 3 7 2 16 -1 19 -3 4 -6 -2 -5 -13z"/>
<path d="M2783 1373 c9 -2 25 -2 35 0 9 3 1 5 -18 5 -19 0 -27 -2 -17 -5z"/>
<path d="M2685 1301 c-3 -2 -5 -17 -5 -33 0 -25 3 -28 36 -28 34 0 35 1 31 32
-3 26 -8 31 -31 33 -15 0 -29 -1 -31 -4z"/>
<path d="M2930 1270 c0 -39 1 -40 35 -40 34 0 35 1 35 40 0 39 -1 40 -35 40
-34 0 -35 -1 -35 -40z"/>
<path d="M3019 1305 c0 -3 -1 -20 -2 -37 -1 -31 1 -33 34 -33 35 0 35 1 31 58
-2 12 -11 17 -32 17 -16 0 -30 -2 -31 -5z"/>
<path d="M2368 1265 c5 -28 27 -33 36 -9 9 25 7 41 -4 24 -6 -10 -10 -11 -10
-2 0 6 -6 12 -14 12 -9 0 -12 -8 -8 -25z"/>
<path d="M2320 1269 c0 -5 -4 -7 -10 -4 -5 3 -10 -1 -10 -9 0 -9 7 -16 15 -16
8 0 15 9 15 20 0 11 -2 20 -5 20 -3 0 -5 -5 -5 -11z"/>
<path d="M2600 1260 c0 -11 4 -20 9 -20 5 0 7 9 4 20 -3 11 -7 20 -9 20 -2 0
-4 -9 -4 -20z"/>
<path d="M2281 1254 c0 -11 3 -14 6 -6 3 7 2 16 -1 19 -3 4 -6 -2 -5 -13z"/>
<path d="M2600 1185 c0 -33 2 -35 30 -33 27 2 30 6 30 35 0 30 -3 33 -30 33
-28 0 -30 -3 -30 -35z"/>
<path d="M2936 1213 c-3 -4 -6 -19 -6 -35 0 -25 3 -28 35 -28 33 0 35 2 35 33
0 28 -3 32 -29 34 -16 1 -31 -1 -35 -4z"/>
<path d="M780 1122 c-6 -2 -10 -49 -10 -113 l0 -109 115 0 115 0 0 110 c0 61
-3 110 -7 110 -56 3 -205 4 -213 2z"/>
<path d="M2180 935 c0 -33 2 -35 35 -35 33 0 35 2 35 35 0 33 -2 35 -35 35
-33 0 -35 -2 -35 -35z"/>
<path d="M2090 930 c0 -28 3 -30 35 -30 32 0 35 2 35 30 0 28 -3 30 -35 30
-32 0 -35 -2 -35 -30z"/>
</g>
</svg>
