<svg width="26" height="26" viewBox="0 0 26 26" fill="none" xmlns="http://www.w3.org/2000/svg">
<path d="M12.335 16.8945C12.5641 17.1237 12.8508 17.2329 13.195 17.222C13.5383 17.212 13.8245 17.0924 14.0537 16.8633C14.2829 16.6341 14.3975 16.3424 14.3975 15.9883C14.3975 15.6341 14.2829 15.3424 14.0537 15.1133L12.9287 13.9883H16.96C17.3141 13.9883 17.6058 13.8683 17.835 13.6283C18.0641 13.3891 18.1787 13.0924 18.1787 12.7383C18.1787 12.3841 18.0591 12.087 17.82 11.847C17.58 11.6079 17.2829 11.4883 16.9287 11.4883H12.9287L14.085 10.332C14.3141 10.1029 14.4237 9.8162 14.4137 9.47203C14.4029 9.1287 14.2829 8.84245 14.0537 8.61328C13.8245 8.38411 13.5329 8.26953 13.1787 8.26953C12.8245 8.26953 12.5329 8.38411 12.3037 8.61328L9.05371 11.8633C8.82454 12.0924 8.70996 12.3841 8.70996 12.7383C8.70996 13.0924 8.82454 13.3841 9.05371 13.6133L12.335 16.8945ZM13.1787 25.2383C11.4495 25.2383 9.82454 24.9099 8.30371 24.2533C6.78288 23.5974 5.45996 22.707 4.33496 21.582C3.20996 20.457 2.31954 19.1341 1.66371 17.6133C1.00704 16.0924 0.678711 14.4674 0.678711 12.7383C0.678711 11.0091 1.00704 9.38412 1.66371 7.86328C2.31954 6.34245 3.20996 5.01953 4.33496 3.89453C5.45996 2.76953 6.78288 1.8787 8.30371 1.22203C9.82454 0.566198 11.4495 0.238281 13.1787 0.238281C14.9079 0.238281 16.5329 0.566198 18.0537 1.22203C19.5745 1.8787 20.8975 2.76953 22.0225 3.89453C23.1475 5.01953 24.0379 6.34245 24.6937 7.86328C25.3504 9.38412 25.6787 11.0091 25.6787 12.7383C25.6787 14.4674 25.3504 16.0924 24.6937 17.6133C24.0379 19.1341 23.1475 20.457 22.0225 21.582C20.8975 22.707 19.5745 23.5974 18.0537 24.2533C16.5329 24.9099 14.9079 25.2383 13.1787 25.2383Z" fill="#FFF8F3"/>
</svg>
