<svg width="237" height="177" viewBox="0 0 237 177" fill="none" xmlns="http://www.w3.org/2000/svg">
<g opacity="0.2">
<rect x="30.5996" y="163.202" width="15.1684" height="15.1684" transform="rotate(-27.9244 30.5996 163.202)" fill="#CDEE00"/>
<rect x="115.87" y="72.2799" width="43.1483" height="26.4175" transform="rotate(62.0756 115.87 72.2799)" fill="#121212"/>
<rect x="185.446" y="35.4045" width="43.1483" height="26.4175" transform="rotate(62.0756 185.446 35.4045)" fill="#121212"/>
<path fill-rule="evenodd" clip-rule="evenodd" d="M121.195 56.3028L62.462 87.4322L93.5914 146.165L152.324 115.035L121.195 56.3028ZM116.134 72.7767L78.9359 92.4925L98.6518 129.691L135.85 109.975L116.134 72.7767Z" fill="#CDEE00"/>
<path fill-rule="evenodd" clip-rule="evenodd" d="M189.487 20.1063L130.755 51.2357L161.884 109.968L220.617 78.8389L189.487 20.1063ZM184.427 36.5802L147.229 56.2961L166.945 93.4944L204.143 73.7786L184.427 36.5802Z" fill="#CDEE00"/>
<path d="M146.873 66.6689L152.212 76.7428L128.55 89.2839L123.211 79.21L146.873 66.6689Z" fill="#CDEE00"/>
<path d="M77.2994 103.544L82.6387 113.618L49.099 131.395L43.7596 121.321L77.2994 103.544Z" fill="#CDEE00"/>
<path d="M70.3361 147.117L60.2622 152.457L43.7596 121.321L53.8336 115.981L70.3361 147.117Z" fill="#CDEE00"/>
</g>
</svg>
