<svg width="189" height="115" viewBox="0 0 189 115" fill="none" xmlns="http://www.w3.org/2000/svg">
<g opacity="0.2">
<rect x="79.8467" y="41.9103" width="40.6724" height="24.9016" transform="rotate(79.0452 79.8467 41.9103)" fill="#121212"/>
<rect x="152.719" y="27.8053" width="40.6724" height="24.9016" transform="rotate(79.0452 152.719 27.8053)" fill="#121212"/>
<path fill-rule="evenodd" clip-rule="evenodd" d="M89.0427 28.9705L27.5266 40.8776L39.4337 102.394L100.95 90.4866L89.0427 28.9705ZM79.9482 42.4307L40.9868 49.9721L48.5282 88.9335L87.4896 81.3921L79.9482 42.4307Z" fill="#8AD9FA"/>
<path fill-rule="evenodd" clip-rule="evenodd" d="M160.572 15.1252L99.056 27.0323L110.963 88.5484L172.479 76.6413L160.572 15.1252ZM151.478 28.5854L112.516 36.1268L120.058 75.0881L159.019 67.5468L151.478 28.5854Z" fill="#8AD9FA"/>
<path d="M109.341 45.3807L111.384 55.9321L86.6008 60.7291L84.5584 50.1778L109.341 45.3807Z" fill="#8AD9FA"/>
<path d="M36.4709 59.4856L38.5132 70.037L3.38394 76.8367L1.3416 66.2853L36.4709 59.4856Z" fill="#8AD9FA"/>
<path d="M18.2053 96.8544L7.65391 98.8967L1.3416 66.2853L11.893 64.243L18.2053 96.8544Z" fill="#8AD9FA"/>
</g>
</svg>
