<svg width="31" height="11" viewBox="0 0 31 11" fill="none" xmlns="http://www.w3.org/2000/svg">
<rect y="8.89453" width="2.09096" height="2.09096" fill="black"/>
<rect x="16.2549" y="3.3252" width="5.94799" height="3.64166" transform="rotate(90 16.2549 3.3252)" fill="#121212"/>
<rect x="27.1094" y="3.3252" width="5.94799" height="3.64166" transform="rotate(90 27.1094 3.3252)" fill="#121212"/>
<path fill-rule="evenodd" clip-rule="evenodd" d="M17.9345 1.7229H8.77132V10.8861H17.9345V1.7229ZM16.2547 3.40273H10.4512V9.20626H16.2547V3.40273Z" fill="black"/>
<path fill-rule="evenodd" clip-rule="evenodd" d="M28.5893 1.7229H19.4261V10.8861H28.5893V1.7229ZM26.9094 3.40273H21.1059V9.20626H26.9094V3.40273Z" fill="black"/>
<path d="M20.3929 4.64316V6.21485H16.7013V4.64316H20.3929Z" fill="black"/>
<path d="M9.53838 4.64316V6.21485L4.30566 6.21485L4.30566 4.64316L9.53838 4.64316Z" fill="black"/>
<path d="M5.87735 9.50083H4.30566V4.64316L5.87736 4.64316L5.87735 9.50083Z" fill="black"/>
</svg>
