<svg width="26" height="26" viewBox="0 0 26 26" fill="none" xmlns="http://www.w3.org/2000/svg">
<path d="M12.1562 17.1562C12.3854 17.3854 12.6721 17.4946 13.0162 17.4837C13.3596 17.4737 13.6458 17.3542 13.875 17.125C14.1042 16.8958 14.2188 16.6042 14.2188 16.25C14.2188 15.8958 14.1042 15.6042 13.875 15.375L12.75 14.25H16.7812C17.1354 14.25 17.4271 14.13 17.6562 13.89C17.8854 13.6508 18 13.3542 18 13C18 12.6458 17.8804 12.3487 17.6413 12.1087C17.4013 11.8696 17.1042 11.75 16.75 11.75H12.75L13.9062 10.5938C14.1354 10.3646 14.245 10.0779 14.235 9.73375C14.2242 9.39042 14.1042 9.10417 13.875 8.875C13.6458 8.64583 13.3542 8.53125 13 8.53125C12.6458 8.53125 12.3542 8.64583 12.125 8.875L8.875 12.125C8.64583 12.3542 8.53125 12.6458 8.53125 13C8.53125 13.3542 8.64583 13.6458 8.875 13.875L12.1562 17.1562ZM13 25.5C11.2708 25.5 9.64583 25.1717 8.125 24.515C6.60417 23.8592 5.28125 22.9688 4.15625 21.8438C3.03125 20.7188 2.14083 19.3958 1.485 17.875C0.828333 16.3542 0.5 14.7292 0.5 13C0.5 11.2708 0.828333 9.64583 1.485 8.125C2.14083 6.60417 3.03125 5.28125 4.15625 4.15625C5.28125 3.03125 6.60417 2.14042 8.125 1.48375C9.64583 0.827917 11.2708 0.5 13 0.5C14.7292 0.5 16.3542 0.827917 17.875 1.48375C19.3958 2.14042 20.7188 3.03125 21.8438 4.15625C22.9688 5.28125 23.8592 6.60417 24.515 8.125C25.1717 9.64583 25.5 11.2708 25.5 13C25.5 14.7292 25.1717 16.3542 24.515 17.875C23.8592 19.3958 22.9688 20.7188 21.8438 21.8438C20.7188 22.9688 19.3958 23.8592 17.875 24.515C16.3542 25.1717 14.7292 25.5 13 25.5Z" fill="#B0B0B0"/>
</svg>
