<svg width="142" height="112" viewBox="0 0 142 112" fill="none" xmlns="http://www.w3.org/2000/svg">
<g opacity="0.1">
<rect x="84.1367" y="47.9238" width="43.2924" height="26.5058" transform="rotate(65.8654 84.1367 47.9238)" fill="#121212"/>
<rect x="156.235" y="15.6201" width="43.2924" height="26.5058" transform="rotate(65.8654 156.235 15.6201)" fill="#121212"/>
<path fill-rule="evenodd" clip-rule="evenodd" d="M90.5263 32.2813L29.662 59.5513L56.9321 120.416L117.796 93.1456L90.5263 32.2813ZM84.3677 48.4384L45.8192 65.71L63.0907 104.258L101.639 86.9869L84.3677 48.4384Z" fill="#CDEE00"/>
<path fill-rule="evenodd" clip-rule="evenodd" d="M161.298 0.572358L100.434 27.8424L127.704 88.7067L188.568 61.4366L161.298 0.572358ZM155.139 16.7295L116.591 34.001L133.862 72.5495L172.411 55.278L155.139 16.7295Z" fill="#CDEE00"/>
<path d="M115.546 44.3621L120.224 54.8017L95.7033 65.788L91.0259 55.3484L115.546 44.3621Z" fill="#CDEE00"/>
<path d="M43.4479 76.6656L48.1253 87.1052L13.3682 102.678L8.6908 92.2384L43.4479 76.6656Z" fill="#CDEE00"/>
<path d="M33.587 119.827L23.1474 124.504L8.6908 92.2384L19.1304 87.561L33.587 119.827Z" fill="#CDEE00"/>
</g>
</svg>
