<svg width="150" height="134" viewBox="0 0 150 134" fill="none" xmlns="http://www.w3.org/2000/svg">
<g opacity="0.1">
<rect x="45.1367" y="47.9238" width="43.2924" height="26.5058" transform="rotate(65.8654 45.1367 47.9238)" fill="#121212"/>
<rect x="117.235" y="15.6201" width="43.2924" height="26.5058" transform="rotate(65.8654 117.235 15.6201)" fill="#121212"/>
<path fill-rule="evenodd" clip-rule="evenodd" d="M51.5263 32.2813L-9.33796 59.5513L17.9321 120.416L78.7964 93.1456L51.5263 32.2813ZM45.3677 48.4384L6.81918 65.71L24.0907 104.258L62.6392 86.9869L45.3677 48.4384Z" fill="#CDEE00"/>
<path fill-rule="evenodd" clip-rule="evenodd" d="M122.298 0.572358L61.4335 27.8424L88.7036 88.7067L149.568 61.4366L122.298 0.572358ZM116.139 16.7295L77.5907 34.001L94.8622 72.5495L133.411 55.278L116.139 16.7295Z" fill="#CDEE00"/>
<path d="M76.5463 44.3621L81.2237 54.8017L56.7033 65.788L52.0259 55.3484L76.5463 44.3621Z" fill="#CDEE00"/>
<path d="M4.44786 76.6656L9.12528 87.1052L-25.6318 102.678L-30.3092 92.2384L4.44786 76.6656Z" fill="#CDEE00"/>
<path d="M-5.413 119.827L-15.8526 124.504L-30.3092 92.2384L-19.8696 87.561L-5.413 119.827Z" fill="#CDEE00"/>
</g>
</svg>
