<svg width="52" height="19" viewBox="0 0 52 19" fill="none" xmlns="http://www.w3.org/2000/svg">
<rect x="0.318359" y="15.4404" width="3.45837" height="3.45837" fill="#712B8A"/>
<rect x="27.2041" y="6.229" width="9.83775" height="6.02316" transform="rotate(90 27.2041 6.229)" fill="#712B8A"/>
<rect x="45.1572" y="6.229" width="9.83775" height="6.02316" transform="rotate(90 45.1572 6.229)" fill="#712B8A"/>
<path fill-rule="evenodd" clip-rule="evenodd" d="M29.983 3.57886H14.8274V18.7344H29.983V3.57886ZM27.2046 6.35724H17.6058V15.956H27.2046V6.35724Z" fill="#712B8A"/>
<path fill-rule="evenodd" clip-rule="evenodd" d="M47.6055 3.57886H32.4499V18.7344H47.6055V3.57886ZM44.8271 6.35724H35.2283V15.956H44.8271V6.35724Z" fill="#712B8A"/>
<path d="M34.0491 8.40885V11.0084H27.9433V8.40885H34.0491Z" fill="#712B8A"/>
<path d="M16.0961 8.40885V11.0084L7.44141 11.0084L7.44141 8.40885L16.0961 8.40885Z" fill="#712B8A"/>
<path d="M10.0409 16.4432H7.44141V8.40885L10.0409 8.40885L10.0409 16.4432Z" fill="#712B8A"/>
</svg>
