<svg width="158" height="60" viewBox="0 0 158 60" fill="none" xmlns="http://www.w3.org/2000/svg">
<rect x="77.877" y="10.4531" width="38.3742" height="23.4946" transform="rotate(90 77.877 10.4531)" fill="#121212"/>
<rect x="147.906" y="10.4531" width="38.3742" height="23.4946" transform="rotate(90 147.906 10.4531)" fill="#121212"/>
<path fill-rule="evenodd" clip-rule="evenodd" d="M88.7142 0.115234H29.5968V59.2326H88.7142V0.115234ZM77.8766 10.9529H40.4345V48.395H77.8766V10.9529Z" fill="#DA72FF"/>
<path fill-rule="evenodd" clip-rule="evenodd" d="M157.454 0.115234H98.3371V59.2326H157.454V0.115234ZM146.617 10.9529H109.175V48.395H146.617V10.9529Z" fill="#DA72FF"/>
<path d="M104.575 18.9556V29.0955H80.7581V18.9556H104.575Z" fill="#DA72FF"/>
<path d="M34.5456 18.9556V29.0955L0.786133 29.0955L0.786133 18.9556L34.5456 18.9556Z" fill="#DA72FF"/>
<path d="M10.9261 50.2954H0.786133V18.9556L10.9261 18.9556L10.9261 50.2954Z" fill="#DA72FF"/>
</svg>
