<svg width="47" height="18" viewBox="0 0 47 18" fill="none" xmlns="http://www.w3.org/2000/svg">
<rect x="22.8467" y="5.36328" width="9.59354" height="5.87364" transform="rotate(90 22.8467 5.36328)" fill="#121212"/>
<rect x="40.3545" y="5.36328" width="9.59354" height="5.87364" transform="rotate(90 40.3545 5.36328)" fill="#121212"/>
<path fill-rule="evenodd" clip-rule="evenodd" d="M25.5562 2.77881H10.7769V17.5582H25.5562V2.77881ZM22.8468 5.48822H13.4863V14.8487H22.8468V5.48822Z" fill="#FD791A"/>
<path fill-rule="evenodd" clip-rule="evenodd" d="M42.7413 2.77881H27.962V17.5582H42.7413V2.77881ZM40.0319 5.48822H30.6714V14.8487H40.0319V5.48822Z" fill="#FD791A"/>
<path d="M29.5214 7.4889V10.0239H23.5672V7.4889H29.5214Z" fill="#FD791A"/>
<path d="M12.0141 7.4889V10.0239L3.57422 10.0239L3.57422 7.4889L12.0141 7.4889Z" fill="#FD791A"/>
<path d="M6.1092 15.3239H3.57422V7.4889L6.1092 7.4889L6.1092 15.3239Z" fill="#FD791A"/>
</svg>
