<svg width="120" height="89" viewBox="0 0 120 89" fill="none" xmlns="http://www.w3.org/2000/svg">
<g opacity="0.2">
<rect x="15.2842" y="82.1085" width="7.67266" height="7.67266" transform="rotate(-27.9244 15.2842 82.1085)" fill="#CDEE00"/>
<rect x="58.416" y="36.1176" width="21.8258" height="13.3628" transform="rotate(62.0756 58.416 36.1176)" fill="#121212"/>
<rect x="93.6094" y="17.4648" width="21.8258" height="13.3628" transform="rotate(62.0756 93.6094 17.4648)" fill="#121212"/>
<path fill-rule="evenodd" clip-rule="evenodd" d="M61.1092 28.0358L31.4004 43.782L47.1466 73.4909L76.8554 57.7446L61.1092 28.0358ZM58.5495 36.3688L39.7334 46.3417L49.7063 65.1579L68.5224 55.1849L58.5495 36.3688Z" fill="#CDEE00"/>
<path fill-rule="evenodd" clip-rule="evenodd" d="M95.6538 9.72649L65.945 25.4727L81.6913 55.1815L111.4 39.4353L95.6538 9.72649ZM93.0942 18.0595L74.278 28.0324L84.251 46.8485L103.067 36.8756L93.0942 18.0595Z" fill="#CDEE00"/>
<path d="M74.0979 33.2793L76.7988 38.375L64.83 44.7187L62.1291 39.623L74.0979 33.2793Z" fill="#CDEE00"/>
<path d="M38.9056 51.9319L41.6064 57.0277L24.6409 66.0197L21.9401 60.924L38.9056 51.9319Z" fill="#CDEE00"/>
<path d="M35.3834 73.9726L30.2876 76.6734L21.9401 60.924L27.0358 58.2231L35.3834 73.9726Z" fill="#CDEE00"/>
</g>
</svg>
