<svg width="36" height="13" viewBox="0 0 36 13" fill="none" xmlns="http://www.w3.org/2000/svg">
<rect y="10.3252" width="2.4273" height="2.4273" fill="black"/>
<rect x="18.8711" y="3.86011" width="6.90475" height="4.22743" transform="rotate(90 18.8711 3.86011)" fill="#121212"/>
<rect x="31.4717" y="3.86011" width="6.90475" height="4.22743" transform="rotate(90 31.4717 3.86011)" fill="#121212"/>
<path fill-rule="evenodd" clip-rule="evenodd" d="M20.8211 2H10.184V12.6371H20.8211V2ZM18.8711 3.95004H12.134V10.6871H18.8711V3.95004Z" fill="black"/>
<path fill-rule="evenodd" clip-rule="evenodd" d="M33.1897 2H22.5526V12.6371H33.1897V2ZM31.2396 3.95004H24.5026V10.6871H31.2396V3.95004Z" fill="black"/>
<path d="M23.6749 5.38999V7.21449H19.3895V5.38999H23.6749Z" fill="black"/>
<path d="M11.0744 5.38999V7.21449L5 7.21449L5 5.38999L11.0744 5.38999Z" fill="black"/>
<path d="M6.8245 11.029H5V5.38999L6.8245 5.38999L6.8245 11.029Z" fill="black"/>
</svg>
