<svg width="61" height="23" viewBox="0 0 61 23" fill="none" xmlns="http://www.w3.org/2000/svg">
<rect x="0.768555" y="18.0625" width="4.02579" height="4.02579" fill="#411B00"/>
<rect x="32.0654" y="7.33984" width="11.4518" height="7.01137" transform="rotate(90 32.0654 7.33984)" fill="#411B00"/>
<rect x="52.9639" y="7.33984" width="11.4518" height="7.01137" transform="rotate(90 52.9639 7.33984)" fill="#411B00"/>
<path fill-rule="evenodd" clip-rule="evenodd" d="M35.2995 4.25488H17.6574V21.897H35.2995V4.25488ZM32.0653 7.48911H20.8916V18.6628H32.0653V7.48911Z" fill="#411B00"/>
<path fill-rule="evenodd" clip-rule="evenodd" d="M55.8134 4.25488H38.1712V21.897H55.8134V4.25488ZM52.5792 7.48911H41.4055V18.6628H52.5792V7.48911Z" fill="#411B00"/>
<path d="M40.0327 9.87733V12.9033H32.9252V9.87733H40.0327Z" fill="#411B00"/>
<path d="M19.1343 9.87733V12.9033L9.05957 12.9033L9.05957 9.87732L19.1343 9.87733Z" fill="#411B00"/>
<path d="M12.0856 19.2299H9.05957V9.87732L12.0856 9.87733L12.0856 19.2299Z" fill="#411B00"/>
</svg>
