<svg width="209" height="201" viewBox="0 0 209 201" fill="none" xmlns="http://www.w3.org/2000/svg">
<g clip-path="url(#clip0_588_413)">
<rect width="209" height="201" rx="8.7764" fill="#6117AD"/>
<path d="M188.553 95.8845V98.8457H187.124V95.8845L188.553 95.8845Z" fill="#A4EFD0"/>
<path d="M193.956 95.8845V98.8457H192.481V95.8845L193.956 95.8845Z" fill="#A4EFD0"/>
<path fill-rule="evenodd" clip-rule="evenodd" d="M189.389 95.0868H184.827V99.6488H189.389V95.0868ZM188.552 95.9232H185.663V98.8125H188.552V95.9232Z" fill="#A4EFD0"/>
<path fill-rule="evenodd" clip-rule="evenodd" d="M194.693 95.0868H190.131V99.6488H194.693V95.0868ZM193.857 95.9232H190.968V98.8125H193.857V95.9232Z" fill="#A4EFD0"/>
<path d="M190.613 96.5407V97.3232H188.775V96.5407H190.613Z" fill="#A4EFD0"/>
<path d="M185.209 96.5407V97.3232L182.603 97.3232V96.5407L185.209 96.5407Z" fill="#A4EFD0"/>
<path d="M183.386 98.9591H182.603V96.5407L183.386 96.5407V98.9591Z" fill="#A4EFD0"/>
<path d="M14.2822 94.7165V106.5H20.174V100.608H26.0657V94.7165H14.2822ZM31.9575 94.7165V100.608H26.0657V106.5C28.9748 106.5 34.9033 106.5 37.8492 106.5V94.7165H31.9575Z" fill="#A4EFD0"/>
<path d="M53.3236 106.5V94.7165H41.5402V106.5H53.3236Z" fill="#A4EFD0"/>
<path d="M68.7866 94.7165V100.608H62.8948V94.7165H57.0031V106.5C62.232 106.5 69.4126 106.5 74.6783 106.5V94.7165H68.7866Z" fill="#A4EFD0"/>
<path d="M78.3635 94.7165V106.5H84.2553V100.608H90.147V94.7165H78.3635ZM96.0388 94.7165V100.608H90.147V106.5C93.0561 106.5 98.9846 106.5 101.931 106.5V94.7165H96.0388Z" fill="#A4EFD0"/>
<path d="M111.513 94.7165V100.608H105.621V106.5H117.405V100.608H123.297V94.7165H111.513Z" fill="#A4EFD0"/>
<path d="M137.074 99.2589H142.966V94.4329L125.291 94.4329V99.2589H131.183V106.548H137.074V99.2589Z" fill="#A4EFD0"/>
<path d="M160.145 106.5V94.7165H148.362V106.5H160.145Z" fill="#A4EFD0"/>
<path d="M182.615 100.467V106.548H185.656V103.508H188.696V100.467H182.615ZM191.736 100.467V103.508H188.696V106.548C190.197 106.548 193.257 106.548 194.777 106.548V100.467H191.736Z" fill="#A4EFD0"/>
<path d="M174.328 94.5844V98.5563H170.356V102.528H166.384V106.5H178.299C178.299 103.993 178.299 97.191 178.299 94.5844H174.328Z" fill="#A4EFD0"/>
</g>
<defs>
<clipPath id="clip0_588_413">
<rect width="209" height="201" rx="8.7764" fill="white"/>
</clipPath>
</defs>
</svg>
