<svg width="235" height="43" viewBox="0 0 235 43" fill="none" xmlns="http://www.w3.org/2000/svg">
<rect x="55.7998" y="7.48291" width="27.7764" height="17.0061" transform="rotate(90 55.7998 7.48291)" fill="#121212"/>
<rect x="106.49" y="7.48291" width="27.7764" height="17.0061" transform="rotate(90 106.49 7.48291)" fill="#121212"/>
<path fill-rule="evenodd" clip-rule="evenodd" d="M63.6449 0H20.854V42.7909H63.6449V0ZM55.8003 7.8446H28.6986V34.9463H55.8003V7.8446Z" fill="#C9362C"/>
<path fill-rule="evenodd" clip-rule="evenodd" d="M113.401 0H70.6103V42.7909H113.401V0ZM105.557 7.8446H78.4549V34.9463H105.557V7.8446Z" fill="#C9362C"/>
<path d="M75.1253 13.6372V20.9768H57.886V13.6372H75.1253Z" fill="#C9362C"/>
<path d="M24.4361 13.6372V20.9768L0 20.9768L3.20824e-07 13.6372L24.4361 13.6372Z" fill="#C9362C"/>
<path d="M7.33959 36.3219H3.20824e-07V13.6372L7.33959 13.6372L7.33959 36.3219Z" fill="#C9362C"/>
<path d="M162.937 35.8426C160.803 32.5443 158.495 29.2877 156.011 26.0726C153.527 22.8575 150.884 19.8226 148.082 16.9679V35.8426H140.727V7.03164H146.793C147.843 7.94628 149.006 9.06878 150.279 10.3992C151.553 11.7295 152.843 13.1569 154.148 14.6813C155.486 16.178 156.807 17.7439 158.113 19.3792C159.418 20.9867 160.644 22.5388 161.791 24.0355V7.03164H169.194V35.8426H162.937Z" fill="black"/>
<path d="M199.04 35.8426C196.907 32.5443 194.598 29.2877 192.114 26.0726C189.63 22.8575 186.988 19.8226 184.185 16.9679V35.8426H176.83V7.03164H182.896C183.947 7.94628 185.109 9.06878 186.382 10.3992C187.656 11.7295 188.946 13.1569 190.251 14.6813C191.589 16.178 192.91 17.7439 194.216 19.3792C195.521 20.9867 196.747 22.5388 197.894 24.0355V7.03164H205.297V35.8426H199.04Z" fill="black"/>
<path d="M221.96 30.8952C223.011 30.8952 223.871 30.8259 224.539 30.6874C225.24 30.5211 225.797 30.3132 226.211 30.0637C226.625 29.7866 226.912 29.4678 227.071 29.1075C227.23 28.7472 227.31 28.3453 227.31 27.9019C227.31 26.9595 226.8 26.1835 225.781 25.5737C224.762 24.9363 223.011 24.2572 220.527 23.5366C219.445 23.204 218.362 22.8298 217.279 22.4141C216.197 21.9706 215.225 21.4302 214.366 20.7927C213.506 20.1275 212.805 19.3376 212.264 18.423C211.723 17.4806 211.452 16.3443 211.452 15.0139C211.452 13.6835 211.739 12.4917 212.312 11.4385C212.885 10.3576 213.697 9.44294 214.748 8.69461C215.799 7.94628 217.072 7.3781 218.569 6.99007C220.066 6.57433 221.753 6.36646 223.632 6.36646C225.861 6.36646 227.787 6.57433 229.411 6.99007C231.035 7.40581 232.373 7.86313 233.424 8.36202L231.274 13.4756C230.351 13.0599 229.316 12.6996 228.17 12.3947C227.055 12.0621 225.702 11.8958 224.11 11.8958C222.326 11.8958 221.037 12.1176 220.241 12.561C219.476 12.9768 219.094 13.6281 219.094 14.515C219.094 15.0416 219.238 15.4851 219.524 15.8454C219.811 16.2057 220.209 16.5383 220.718 16.8432C221.26 17.1203 221.865 17.3836 222.533 17.6331C223.234 17.8548 223.998 18.0904 224.826 18.3398C226.546 18.8941 228.042 19.4485 229.316 20.0028C230.59 20.5294 231.64 21.153 232.468 21.8736C233.328 22.5942 233.965 23.4396 234.379 24.4097C234.793 25.3797 235 26.5577 235 27.9435C235 30.6319 233.917 32.7245 231.752 34.2212C229.587 35.6901 226.323 36.4246 221.96 36.4246C220.495 36.4246 219.174 36.3414 217.996 36.1751C216.818 36.0366 215.767 35.8564 214.843 35.6347C213.952 35.413 213.172 35.1774 212.503 34.9279C211.866 34.6785 211.325 34.4429 210.879 34.2212L212.98 29.066C213.968 29.5371 215.178 29.9667 216.611 30.3548C218.075 30.7151 219.859 30.8952 221.96 30.8952Z" fill="black"/>
</svg>
