<svg width="198" height="177" viewBox="0 0 198 177" fill="none" xmlns="http://www.w3.org/2000/svg">
<g opacity="0.2">
<rect x="-8.40039" y="163.201" width="15.1684" height="15.1684" transform="rotate(-27.9244 -8.40039 163.201)" fill="#CDEE00"/>
<rect x="76.8701" y="72.2797" width="43.1483" height="26.4175" transform="rotate(62.0756 76.8701 72.2797)" fill="#121212"/>
<rect x="146.446" y="35.4038" width="43.1483" height="26.4175" transform="rotate(62.0756 146.446 35.4038)" fill="#121212"/>
<path fill-rule="evenodd" clip-rule="evenodd" d="M82.1946 56.3026L23.462 87.432L54.5914 146.165L113.324 115.035L82.1946 56.3026ZM77.1343 72.7764L39.9359 92.4923L59.6518 129.691L96.8501 109.975L77.1343 72.7764Z" fill="#CDEE00"/>
<path fill-rule="evenodd" clip-rule="evenodd" d="M150.487 20.1061L91.7548 51.2355L122.884 109.968L181.617 78.8387L150.487 20.1061ZM145.427 36.58L108.229 56.2958L127.945 93.4942L165.143 73.7783L145.427 36.58Z" fill="#CDEE00"/>
<path d="M107.873 66.6686L113.212 76.7426L89.5504 89.2837L84.211 79.2098L107.873 66.6686Z" fill="#CDEE00"/>
<path d="M38.2994 103.544L43.6387 113.618L10.099 131.394L4.75962 121.321L38.2994 103.544Z" fill="#CDEE00"/>
<path d="M31.3361 147.117L21.2622 152.456L4.75962 121.321L14.8336 115.981L31.3361 147.117Z" fill="#CDEE00"/>
</g>
</svg>
