<svg width="237" height="134" viewBox="0 0 237 134" fill="none" xmlns="http://www.w3.org/2000/svg">
<g opacity="0.2">
<rect x="115.87" y="72.2797" width="43.1483" height="26.4175" transform="rotate(62.0756 115.87 72.2797)" fill="#121212"/>
<rect x="185.446" y="35.4038" width="43.1483" height="26.4175" transform="rotate(62.0756 185.446 35.4038)" fill="#121212"/>
<path fill-rule="evenodd" clip-rule="evenodd" d="M121.195 56.3026L62.462 87.432L93.5914 146.165L152.324 115.035L121.195 56.3026ZM116.134 72.7764L78.9359 92.4923L98.6518 129.691L135.85 109.975L116.134 72.7764Z" fill="#CDEE00"/>
<path fill-rule="evenodd" clip-rule="evenodd" d="M189.487 20.1061L130.755 51.2355L161.884 109.968L220.617 78.8387L189.487 20.1061ZM184.427 36.58L147.229 56.2958L166.945 93.4942L204.143 73.7783L184.427 36.58Z" fill="#CDEE00"/>
<path d="M146.873 66.6686L152.212 76.7426L128.55 89.2837L123.211 79.2098L146.873 66.6686Z" fill="#CDEE00"/>
<path d="M77.2994 103.544L82.6387 113.618L49.099 131.394L43.7596 121.321L77.2994 103.544Z" fill="#CDEE00"/>
<path d="M70.3361 147.117L60.2622 152.456L43.7596 121.321L53.8336 115.981L70.3361 147.117Z" fill="#CDEE00"/>
</g>
</svg>
