<svg width="64" height="23" viewBox="0 0 64 23" fill="none" xmlns="http://www.w3.org/2000/svg">
<rect y="18.3628" width="4.31683" height="4.31683" fill="#DA72FF"/>
<rect x="33.5596" y="6.86499" width="12.2797" height="7.51826" transform="rotate(90 33.5596 6.86499)" fill="#121212"/>
<rect x="55.9688" y="6.86499" width="12.2797" height="7.51826" transform="rotate(90 55.9688 6.86499)" fill="#121212"/>
<path fill-rule="evenodd" clip-rule="evenodd" d="M37.0276 3.55688H18.1101V22.4745H37.0276V3.55688ZM33.5596 7.02493H21.5781V19.0064H33.5596V7.02493Z" fill="#DA72FF"/>
<path fill-rule="evenodd" clip-rule="evenodd" d="M59.0245 3.55688H40.1069V22.4745H59.0245V3.55688ZM55.5564 7.02493H43.575V19.0064H55.5564V7.02493Z" fill="#DA72FF"/>
<path d="M42.103 9.5858V12.8306H34.4816V9.5858H42.103Z" fill="#DA72FF"/>
<path d="M19.6937 9.5858V12.8306H8.89062L8.89063 9.5858L19.6937 9.5858Z" fill="#DA72FF"/>
<path d="M12.1354 19.6145H8.89063V9.5858L12.1354 9.5858L12.1354 19.6145Z" fill="#DA72FF"/>
</svg>
