<svg width="31" height="29" viewBox="0 0 31 29" fill="none" xmlns="http://www.w3.org/2000/svg">
<path d="M5.67676 0.722656H25.0545V28.2782H22.2101V15.656H22.1822C21.8678 12.1675 18.936 9.43374 15.3656 9.43374C11.7953 9.43374 8.86348 12.1675 8.54908 15.656H8.5212V28.2782H5.67676V0.722656Z" fill="#855DCD"/>
<path d="M0.520508 4.63379L1.67607 8.54491H2.65383V24.3671C2.16291 24.3671 1.76495 24.7651 1.76495 25.256V26.3227H1.58719C1.09627 26.3227 0.698267 26.7207 0.698267 27.2116V28.2783H10.6538V27.2116C10.6538 26.7207 10.2559 26.3227 9.76495 26.3227H9.58719V25.256C9.58719 24.7651 9.18919 24.3671 8.69827 24.3671H7.63163V4.63379H0.520508Z" fill="#855DCD"/>
<path d="M22.3872 24.3671C21.8963 24.3671 21.4983 24.7651 21.4983 25.256V26.3227H21.3205C20.8296 26.3227 20.4316 26.7207 20.4316 27.2116V28.2783H30.3872V27.2116C30.3872 26.7207 29.9892 26.3227 29.4983 26.3227H29.3205V25.256C29.3205 24.7651 28.9226 24.3671 28.4316 24.3671V8.54491H29.4094L30.565 4.63379H23.4538V24.3671H22.3872Z" fill="#855DCD"/>
</svg>
