<svg width="33" height="33" viewBox="0 0 33 33" fill="none" xmlns="http://www.w3.org/2000/svg">
<g id="Group 512">
<path id="Vector" d="M4.23535 5.99017C11.6952 -2.53559 25.5277 -0.853291 30.6969 9.10657C27.0562 9.10854 21.3575 9.1046 18.2705 9.10657C16.0319 9.10657 14.5857 9.05732 13.0211 9.86696C11.1817 10.8184 9.79163 12.5815 9.30821 14.6538L4.23535 5.99017Z" fill="#F44336"/>
<path id="Vector_2" d="M11.0044 16.5004C11.0044 19.5549 13.4893 22.0388 16.5429 22.0388C19.5964 22.0388 22.0813 19.5549 22.0813 16.5004C22.0813 13.4459 19.5964 10.9619 16.5429 10.9619C13.4872 10.9598 11.0044 13.4459 11.0044 16.5004Z" fill="#2196F3"/>
<path id="Vector_3" d="M18.3891 23.7C15.4401 24.5925 11.987 23.6033 10.0974 20.2751C8.65445 17.7366 4.83965 10.9652 3.10817 7.88477C-2.96388 17.3699 2.26812 30.2941 13.2895 32.5001L18.3891 23.7Z" fill="#4CAF50"/>
<path id="Vector_4" d="M21.3277 10.9639C23.847 13.2994 24.3963 17.0815 22.6897 20.013C21.4047 22.2232 17.3003 29.1267 15.312 32.4683C26.9562 33.1835 35.4446 21.809 31.6098 10.9619L21.3277 10.9639Z" fill="#FFC107"/>
</g>
</svg>
