<svg width="33" height="33" viewBox="0 0 33 33" fill="none" xmlns="http://www.w3.org/2000/svg">
<g id="social" clip-path="url(#clip0_1315_12408)">
<path id="Vector" d="M27.6323 6.04044C25.5927 5.1046 23.4056 4.41511 21.1188 4.02021C21.0772 4.01259 21.0356 4.03164 21.0141 4.06973C20.7328 4.57002 20.4213 5.22268 20.2031 5.73567C17.7435 5.36745 15.2965 5.36745 12.8874 5.73567C12.6692 5.21128 12.3463 4.57002 12.0637 4.06973C12.0423 4.03291 12.0007 4.01386 11.959 4.02021C9.67351 4.41385 7.48638 5.10333 5.44555 6.04044C5.42788 6.04806 5.41274 6.06077 5.40269 6.07726C1.25416 12.2751 0.117702 18.3206 0.675209 24.2911C0.677731 24.3203 0.694129 24.3482 0.716833 24.366C3.45391 26.376 6.10525 27.5963 8.70734 28.4052C8.74899 28.4179 8.79311 28.4026 8.81961 28.3683C9.43514 27.5278 9.98383 26.6415 10.4543 25.7094C10.482 25.6548 10.4555 25.5901 10.3988 25.5685C9.52848 25.2383 8.69977 24.8358 7.90261 24.3787C7.83955 24.3419 7.83451 24.2517 7.89251 24.2085C8.06027 24.0828 8.22806 23.952 8.38824 23.82C8.41722 23.7958 8.45761 23.7908 8.49168 23.806C13.7287 26.197 19.3984 26.197 24.5736 23.806C24.6076 23.7895 24.648 23.7946 24.6783 23.8187C24.8385 23.9508 25.0062 24.0828 25.1753 24.2085C25.2333 24.2517 25.2295 24.3419 25.1664 24.3787C24.3693 24.8447 23.5406 25.2383 22.669 25.5672C22.6122 25.5888 22.587 25.6548 22.6148 25.7094C23.0953 26.6401 23.644 27.5265 24.2482 28.3671C24.2734 28.4026 24.3188 28.4179 24.3604 28.4052C26.9751 27.5963 29.6265 26.376 32.3635 24.366C32.3875 24.3482 32.4027 24.3215 32.4052 24.2923C33.0724 17.3898 31.2876 11.3939 27.6739 6.07852C27.6651 6.06077 27.65 6.04806 27.6323 6.04044ZM11.2363 20.6557C9.65963 20.6557 8.36048 19.2081 8.36048 17.4304C8.36048 15.6527 9.63444 14.2052 11.2363 14.2052C12.8508 14.2052 14.1374 15.6654 14.1121 17.4304C14.1121 19.2081 12.8382 20.6557 11.2363 20.6557ZM21.8693 20.6557C20.2926 20.6557 18.9935 19.2081 18.9935 17.4304C18.9935 15.6527 20.2674 14.2052 21.8693 14.2052C23.4838 14.2052 24.7703 15.6654 24.7452 17.4304C24.7452 19.2081 23.4838 20.6557 21.8693 20.6557Z" fill="#04030F"/>
</g>
<defs>
<clipPath id="clip0_1315_12408">
<rect width="32" height="32" fill="white" transform="translate(0.542969 0.5)"/>
</clipPath>
</defs>
</svg>
