<svg width="33" height="33" viewBox="0 0 33 33" fill="none" xmlns="http://www.w3.org/2000/svg">
<g id="social" clip-path="url(#clip0_1315_12418)">
<path id="Vector" d="M27.5464 6.04044C25.5068 5.1046 23.3197 4.41511 21.0329 4.02021C20.9913 4.01259 20.9496 4.03164 20.9282 4.06973C20.6469 4.57002 20.3353 5.22268 20.1172 5.73567C17.6576 5.36745 15.2106 5.36745 12.8015 5.73567C12.5832 5.21128 12.2603 4.57002 11.9778 4.06973C11.9563 4.03291 11.9147 4.01386 11.8731 4.02021C9.58758 4.41385 7.40044 5.10333 5.35961 6.04044C5.34194 6.04806 5.3268 6.06077 5.31675 6.07726C1.16822 12.2751 0.0317642 18.3206 0.589271 24.2911C0.591794 24.3203 0.608191 24.3482 0.630895 24.366C3.36798 26.376 6.01931 27.5963 8.6214 28.4052C8.66305 28.4179 8.70717 28.4026 8.73367 28.3683C9.3492 27.5278 9.89789 26.6415 10.3683 25.7094C10.3961 25.6548 10.3696 25.5901 10.3129 25.5685C9.44254 25.2383 8.61383 24.8358 7.81667 24.3787C7.75362 24.3419 7.74857 24.2517 7.80658 24.2085C7.97433 24.0828 8.14212 23.952 8.3023 23.82C8.33128 23.7958 8.37167 23.7908 8.40574 23.806C13.6427 26.197 19.3124 26.197 24.4876 23.806C24.5217 23.7895 24.5621 23.7946 24.5923 23.8187C24.7526 23.9508 24.9203 24.0828 25.0893 24.2085C25.1473 24.2517 25.1435 24.3419 25.0805 24.3787C24.2833 24.8447 23.4546 25.2383 22.583 25.5672C22.5263 25.5888 22.5011 25.6548 22.5288 25.7094C23.0094 26.6401 23.5581 27.5265 24.1622 28.3671C24.1875 28.4026 24.2329 28.4179 24.2745 28.4052C26.8892 27.5963 29.5405 26.376 32.2776 24.366C32.3016 24.3482 32.3167 24.3215 32.3193 24.2923C32.9865 17.3898 31.2017 11.3939 27.588 6.07852C27.5791 6.06077 27.5641 6.04806 27.5464 6.04044ZM11.1504 20.6557C9.5737 20.6557 8.27454 19.2081 8.27454 17.4304C8.27454 15.6527 9.5485 14.2052 11.1504 14.2052C12.7649 14.2052 14.0514 15.6654 14.0262 17.4304C14.0262 19.2081 12.7522 20.6557 11.1504 20.6557ZM21.7834 20.6557C20.2067 20.6557 18.9076 19.2081 18.9076 17.4304C18.9076 15.6527 20.1815 14.2052 21.7834 14.2052C23.3979 14.2052 24.6844 15.6654 24.6592 17.4304C24.6592 19.2081 23.3979 20.6557 21.7834 20.6557Z" fill="#7367FF"/>
</g>
<defs>
<clipPath id="clip0_1315_12418">
<rect width="32" height="32" fill="white" transform="translate(0.457031 0.5)"/>
</clipPath>
</defs>
</svg>
