<svg width="34" height="33" viewBox="0 0 34 33" fill="none" xmlns="http://www.w3.org/2000/svg">
<path id="Vector" d="M16.9981 0.5C7.91166 0.5 0.542969 7.8449 0.542969 16.9055C0.542969 24.1524 5.25794 30.3004 11.7997 32.4715C12.6225 32.6227 12.9229 32.1161 12.9229 31.6811C12.9229 31.291 12.9085 30.2595 12.9002 28.891C8.32308 29.8816 7.35623 26.6912 7.35623 26.6912C6.60948 24.7958 5.52948 24.2913 5.52948 24.2913C4.03394 23.2741 5.64057 23.2945 5.64057 23.2945C7.29245 23.4109 8.16057 24.9857 8.16057 24.9857C9.62937 27.4919 12.0136 26.7688 12.9517 26.3481C13.0998 25.288 13.5256 24.565 13.9967 24.1544C10.3432 23.7398 6.50045 22.3325 6.50045 16.0477C6.50045 14.2564 7.14228 12.7919 8.19554 11.644C8.0248 11.2294 7.46114 9.56061 8.356 7.30363C8.356 7.30363 9.7384 6.86245 12.8817 8.98462C14.1942 8.62106 15.6013 8.43927 17.0022 8.43314C18.399 8.44131 19.8081 8.62106 21.1226 8.98667C24.2639 6.86449 25.6442 7.30567 25.6442 7.30567C26.5411 9.5647 25.9775 11.2314 25.8088 11.646C26.8641 12.7939 27.4998 14.2584 27.4998 16.0497C27.4998 22.3509 23.6529 23.7377 19.9871 24.1442C20.5775 24.6507 21.1041 25.6516 21.1041 27.1814C21.1041 29.3751 21.0835 31.1439 21.0835 31.6811C21.0835 32.1202 21.3798 32.6309 22.215 32.4695C28.7464 30.2963 33.4573 24.1503 33.4573 16.9055C33.4573 7.8449 26.0886 0.5 16.9981 0.5Z" fill="#5C6BC0"/>
</svg>
