<svg width="14" height="15" viewBox="0 0 14 15" fill="none" xmlns="http://www.w3.org/2000/svg">
<g id="social">
<g id="Vector">
<path d="M3.00323 1.44141H11.0024V12.8164H9.82823V7.60592H9.81671C9.68694 6.16587 8.47667 5.03737 7.00282 5.03737C5.52898 5.03737 4.31871 6.16587 4.18894 7.60592H4.17742V12.8164H3.00323V1.44141Z" fill="white"/>
<path d="M0.875 3.05592L1.35202 4.67044H1.75565V11.2019C1.55299 11.2019 1.38871 11.3662 1.38871 11.5688V12.0091H1.31532C1.11267 12.0091 0.948387 12.1734 0.948387 12.3761V12.8164H5.05806V12.3761C5.05806 12.1734 4.89378 12.0091 4.69113 12.0091H4.61774V11.5688C4.61774 11.3662 4.45346 11.2019 4.25081 11.2019H3.81048V3.05592H0.875Z" fill="white"/>
<path d="M9.90161 11.2019C9.69896 11.2019 9.53468 11.3662 9.53468 11.5688V12.0091H9.46129C9.25864 12.0091 9.09435 12.1734 9.09435 12.3761V12.8164H13.204V12.3761C13.204 12.1734 13.0397 12.0091 12.8371 12.0091H12.7637V11.5688C12.7637 11.3662 12.5994 11.2019 12.3968 11.2019V4.67044H12.8004L13.2774 3.05592H10.3419V11.2019H9.90161Z" fill="white"/>
</g>
</g>
</svg>
