<svg width="14" height="15" viewBox="0 0 14 15" fill="none" xmlns="http://www.w3.org/2000/svg">
<g id="social" clip-path="url(#clip0_60_1591)">
<path id="Vector" d="M11.8516 2.55303C10.9593 2.1436 10.0024 1.84195 9.00194 1.66918C8.98372 1.66585 8.96552 1.67418 8.95613 1.69085C8.83307 1.90972 8.69676 2.19526 8.6013 2.4197C7.52524 2.2586 6.45469 2.2586 5.40069 2.4197C5.30521 2.19027 5.16395 1.90972 5.04033 1.69085C5.03095 1.67474 5.01275 1.6664 4.99453 1.66918C3.99461 1.8414 3.03774 2.14305 2.14488 2.55303C2.13715 2.55636 2.13052 2.56192 2.12613 2.56914C0.311145 5.28069 -0.186054 7.92558 0.0578551 10.5377C0.0589587 10.5505 0.0661324 10.5627 0.0760655 10.5705C1.27354 11.4499 2.4335 11.9837 3.57191 12.3376C3.59013 12.3432 3.60944 12.3365 3.62103 12.3215C3.89032 11.9537 4.13037 11.566 4.33619 11.1582C4.34834 11.1343 4.33675 11.106 4.31192 11.0965C3.93116 10.9521 3.5686 10.776 3.21984 10.576C3.19226 10.5599 3.19005 10.5205 3.21543 10.5016C3.28882 10.4466 3.36223 10.3893 3.43231 10.3316C3.44499 10.321 3.46265 10.3188 3.47756 10.3255C5.76875 11.3715 8.24923 11.3715 10.5134 10.3255C10.5283 10.3182 10.546 10.3205 10.5592 10.331C10.6293 10.3888 10.7027 10.4466 10.7766 10.5016C10.802 10.5205 10.8003 10.5599 10.7728 10.576C10.424 10.7799 10.0614 10.9521 9.68013 11.096C9.65531 11.1054 9.64426 11.1343 9.65641 11.1582C9.86665 11.5654 10.1067 11.9532 10.371 12.3209C10.3821 12.3365 10.4019 12.3432 10.4201 12.3376C11.5641 11.9837 12.724 11.4499 13.9215 10.5705C13.932 10.5627 13.9386 10.551 13.9397 10.5382C14.2316 7.51836 13.4508 4.89515 11.8698 2.56969C11.8659 2.56192 11.8593 2.55636 11.8516 2.55303ZM4.67835 8.94719C3.98854 8.94719 3.42016 8.31389 3.42016 7.53614C3.42016 6.7584 3.97752 6.1251 4.67835 6.1251C5.38468 6.1251 5.94755 6.76396 5.93651 7.53614C5.93651 8.31389 5.37915 8.94719 4.67835 8.94719ZM9.33027 8.94719C8.64048 8.94719 8.0721 8.31389 8.0721 7.53614C8.0721 6.7584 8.62944 6.1251 9.33027 6.1251C10.0366 6.1251 10.5995 6.76396 10.5885 7.53614C10.5885 8.31389 10.0366 8.94719 9.33027 8.94719Z" fill="white"/>
</g>
<defs>
<clipPath id="clip0_60_1591">
<rect width="14" height="14" fill="white" transform="translate(0 0.128906)"/>
</clipPath>
</defs>
</svg>
