<svg width="40" height="41" viewBox="0 0 40 41" fill="none" xmlns="http://www.w3.org/2000/svg">
<g id="Frame">
<path d="M0 20.6289C0 9.58321 8.95431 0.628906 20 0.628906C31.0457 0.628906 40 9.58321 40 20.6289C40 31.6746 31.0457 40.6289 20 40.6289C8.95431 40.6289 0 31.6746 0 20.6289Z" fill="#11101B"/>
<path id="Vector" d="M20 35.6289C23.325 35.6287 26.5558 34.5242 29.1851 32.4889C31.8143 30.4536 33.6932 27.6027 34.5267 24.3839M20 35.6289C16.675 35.6287 13.4442 34.5242 10.815 32.4889C8.18568 30.4536 6.3068 27.6027 5.47334 24.3839M20 35.6289C24.1417 35.6289 27.5 28.9122 27.5 20.6289C27.5 12.3456 24.1417 5.62891 20 5.62891M20 35.6289C15.8583 35.6289 12.5 28.9122 12.5 20.6289C12.5 12.3456 15.8583 5.62891 20 5.62891M34.5267 24.3839C34.835 23.1839 35 21.9256 35 20.6289C35.0041 18.0491 34.3398 15.5122 33.0717 13.2656M34.5267 24.3839C30.082 26.8479 25.082 28.1369 20 28.1289C14.73 28.1289 9.77834 26.7706 5.47334 24.3839M5.47334 24.3839C5.15792 23.1572 4.99888 21.8955 5.00001 20.6289C5.00001 17.9539 5.70001 15.4406 6.92834 13.2656M20 5.62891C22.6604 5.6278 25.2732 6.3345 27.5703 7.67651C29.8674 9.01852 31.7662 10.9475 33.0717 13.2656M20 5.62891C17.3396 5.6278 14.7268 6.3345 12.4297 7.67651C10.1326 9.01852 8.23385 10.9475 6.92834 13.2656M33.0717 13.2656C29.4428 16.4088 24.8009 18.1358 20 18.1289C15.0033 18.1289 10.4333 16.2956 6.92834 13.2656" stroke="#828187" stroke-width="1.5" stroke-linecap="round" stroke-linejoin="round"/>
</g>
</svg>
