<svg width="73" height="72" viewBox="0 0 73 72" fill="none" xmlns="http://www.w3.org/2000/svg">
<g clip-path="url(#clip0_1315_14335)">
<circle cx="36.25" cy="36" r="35.5" stroke="url(#paint0_linear_1315_14335)"/>
<path d="M22.5516 45C20.3284 45 18.5199 43.1212 18.5199 40.8115L18.5151 40.7025C18.5055 37.7133 16.1622 35.2856 13.2825 35.2856V36.5331C15.5057 36.5331 17.3142 38.412 17.3142 40.7217L17.3182 40.8115H17.3142C17.3142 43.1212 15.5057 45 13.2825 45C11.0593 45 9.2564 43.122 9.2564 40.814L9.25 31.1902C9.25 28.8813 11.0577 27.0025 13.2801 27.0017C15.5081 27.0025 17.3198 28.878 17.3198 31.1827C17.3214 32.6349 17.8634 34.0122 18.8465 35.0618C19.8409 36.1231 21.157 36.7078 22.5524 36.7078V35.4602C20.3684 35.4602 18.5223 33.4999 18.5207 31.1785C18.5223 28.8747 20.3276 27 22.5452 27C24.7628 27 26.5769 28.8788 26.5769 31.1885L26.5833 40.8123C26.5833 43.1203 24.7748 44.9983 22.5516 44.9983V45Z" fill="#F8FAFF"/>
<path d="M41.2196 45C38.9964 45 37.1879 43.1212 37.1879 40.8115L37.1831 40.7025C37.1735 37.7133 34.8302 35.2856 31.9505 35.2856V36.5331C34.1737 36.5331 35.9822 38.412 35.9822 40.7217L35.9862 40.8115H35.9822C35.9822 43.1212 34.1737 45 31.9505 45C29.7273 45 27.9244 43.122 27.9244 40.814L27.918 31.1902C27.918 28.8813 29.7257 27.0025 31.9481 27.0017C34.1761 27.0025 35.9878 28.878 35.9878 31.1827C35.9894 32.6349 36.5314 34.0122 37.5145 35.0618C38.5088 36.1231 39.825 36.7078 41.2204 36.7078V35.4602C39.0364 35.4602 37.1903 33.4999 37.1887 31.1785C37.1903 28.8747 38.9956 27 41.2132 27C43.4308 27 45.2449 28.8788 45.2449 31.1885L45.2513 40.8123C45.2513 43.1203 43.4428 44.9983 41.2196 44.9983V45Z" fill="#F8FAFF"/>
<path d="M60.3974 44.9933L50.7725 45C48.4636 45 46.585 43.1235 46.585 40.814C46.585 38.5044 48.4636 36.628 50.7725 36.628C53.0814 36.628 54.96 38.5061 54.96 40.814H56.2108C56.2108 37.8173 53.771 35.3787 50.7725 35.3787C48.4636 35.3787 46.585 33.4997 46.585 31.1893C46.585 28.879 48.4636 27.0067 50.7725 27.0067L60.3974 27C62.7063 27 64.585 28.8765 64.585 31.186C64.585 33.4956 62.7063 35.3687 60.3974 35.3687C58.0886 35.3687 56.2099 33.4922 56.2099 31.186H54.9592C54.9592 34.181 57.399 36.618 60.3974 36.618V36.628C62.7063 36.628 64.585 38.5044 64.585 40.8107C64.585 43.1169 62.7063 44.9933 60.3974 44.9933Z" fill="#F8FAFF"/>
</g>
<defs>
<linearGradient id="paint0_linear_1315_14335" x1="36.25" y1="19.0846" x2="36.25" y2="72" gradientUnits="userSpaceOnUse">
<stop stop-color="#C496FF"/>
<stop offset="1" stop-color="#86F9E4"/>
</linearGradient>
<clipPath id="clip0_1315_14335">
<path d="M0.25 36C0.25 16.1178 16.3678 0 36.25 0C56.1323 0 72.25 16.1178 72.25 36C72.25 55.8823 56.1323 72 36.25 72C16.3678 72 0.25 55.8823 0.25 36Z" fill="white"/>
</clipPath>
</defs>
</svg>
