<svg width="40" height="41" viewBox="0 0 40 41" fill="none" xmlns="http://www.w3.org/2000/svg">
<g clip-path="url(#clip0_1909_4348)">
<path d="M0 20.6289C0 9.58321 8.95431 0.628906 20 0.628906C31.0457 0.628906 40 9.58321 40 20.6289C40 31.6746 31.0457 40.6289 20 40.6289C8.95431 40.6289 0 31.6746 0 20.6289Z" fill="#11101B"/>
<g clip-path="url(#clip1_1909_4348)">
<path d="M15.5 21C17.981 21 20 18.981 20 16.5C20 14.019 17.981 12 15.5 12C13.019 12 11 14.019 11 16.5C11 18.981 13.019 21 15.5 21ZM15.5 13C17.43 13 19 14.57 19 16.5C19 18.43 17.43 20 15.5 20C13.57 20 12 18.43 12 16.5C12 14.57 13.57 13 15.5 13ZM23 27.5V32H22V27.5C22 25.57 20.43 24 18.5 24H12.5C10.57 24 9 25.57 9 27.5V32H8V27.5C8 25.019 10.019 23 12.5 23H18.5C20.981 23 23 25.019 23 27.5ZM25.5 17C27.981 17 30 14.981 30 12.5C30 10.019 27.981 8 25.5 8C23.019 8 21 10.019 21 12.5C21 14.981 23.019 17 25.5 17ZM25.5 9C27.43 9 29 10.57 29 12.5C29 14.43 27.43 16 25.5 16C23.57 16 22 14.43 22 12.5C22 10.57 23.57 9 25.5 9ZM32 23.5V28H31V23.5C31 21.57 29.43 20 27.5 20H21.5C21.306 20 21.119 20.027 20.934 20.057C21.153 19.724 21.343 19.371 21.499 19C21.499 19 21.499 19 21.501 19H27.501C29.982 19 32 21.019 32 23.5Z" fill="#828187"/>
</g>
</g>
<defs>
<clipPath id="clip0_1909_4348">
<rect width="40" height="41" fill="white"/>
</clipPath>
<clipPath id="clip1_1909_4348">
<rect width="24" height="24" fill="white" transform="translate(8 8)"/>
</clipPath>
</defs>
</svg>
